<mxfile host="Electron" modified="2023-04-30T20:14:47.444Z" agent="Mozilla/5.0 (Windows NT 10.0; Win64; x64) AppleWebKit/537.36 (KHTML, like Gecko) draw.io/21.2.1 Chrome/112.0.5615.87 Electron/24.1.2 Safari/537.36" etag="4k8DtL0_b9I1WZeAkGiC" version="21.2.1" type="device">
  <diagram name="Page-1" id="rfda8F30O05fM46-fLuf">
    <mxGraphModel dx="1098" dy="820" grid="1" gridSize="10" guides="1" tooltips="1" connect="1" arrows="1" fold="1" page="1" pageScale="1" pageWidth="850" pageHeight="1100" math="0" shadow="0">
      <root>
        <mxCell id="0" />
        <mxCell id="1" parent="0" />
        <mxCell id="iLwp0gC0lX80GOxpzJ4_-1" value="" style="shape=image;verticalLabelPosition=bottom;labelBackgroundColor=default;verticalAlign=top;aspect=fixed;imageAspect=0;image=data:image/jpeg,/9j/4AAQSkZJRgABAQAAAQABAAD//gA7Q1JFQVRPUjogZ2QtanBlZyB2MS4wICh1c2luZyBJSkcgSlBFRyB2ODApLCBxdWFsaXR5ID0gODAK/9sAQwAGBAUGBQQGBgUGBwcGCAoQCgoJCQoUDg8MEBcUGBgXFBYWGh0lHxobIxwWFiAsICMmJykqKRkfLTAtKDAlKCko/9sAQwEHBwcKCAoTCgoTKBoWGigoKCgoKCgoKCgoKCgoKCgoKCgoKCgoKCgoKCgoKCgoKCgoKCgoKCgoKCgoKCgoKCgo/8AAEQgDIAMgAwEiAAIRAQMRAf/EAB8AAAEFAQEBAQEBAAAAAAAAAAABAgMEBQYHCAkKC//EALUQAAIBAwMCBAMFBQQEAAABfQECAwAEEQUSITFBBhNRYQcicRQygZGhCCNCscEVUtHwJDNicoIJChYXGBkaJSYnKCkqNDU2Nzg5OkNERUZHSElKU1RVVldYWVpjZGVmZ2hpanN0dXZ3eHl6g4SFhoeIiYqSk5SVlpeYmZqio6Slpqeoqaqys7S1tre4ubrCw8TFxsfIycrS09TV1tfY2drh4uPk5ebn6Onq8fLz9PX29/j5+v/EAB8BAAMBAQEBAQEBAQEAAAAAAAABAgMEBQYHCAkKC//EALURAAIBAgQEAwQHBQQEAAECdwABAgMRBAUhMQYSQVEHYXETIjKBCBRCkaGxwQkjM1LwFWJy0QoWJDThJfEXGBkaJicoKSo1Njc4OTpDREVGR0hJSlNUVVZXWFlaY2RlZmdoaWpzdHV2d3h5eoKDhIWGh4iJipKTlJWWl5iZmqKjpKWmp6ipqrKztLW2t7i5usLDxMXGx8jJytLT1NXW19jZ2uLj5OXm5+jp6vLz9PX29/j5+v/aAAwDAQACEQMRAD8A+qaKKKACiiigAooooAKKKKACiiigAooooAKKKKACiiigAooooAKKKKACiiigAooooAKKKKACiiigAooooAKKKKACiiigAooooAKKKKACiiigAooooAKKKKACiiigAooooAKKKKACiiigAooooAKKKKACiiigAooooAKKKKACiiigAooooAKKKKACiiigAooooAKKKKACiiigAooooAKKKKACiiigAooooAKKKKACiiigAooooAKKKKACiiigAooooAKKKKACiiigAooooAKKKKACiiigAooooAKKKKACiiigAooooAKKKKACiiigAooooAKKKKACiiigAooooAKKKKACiiigAooooAKKKKACiiigAooooAKKKKACiiigAooooAKKKKACiiigAooooAKKKKACiiigAooooAKKKKACiiigAooooAKKKKACiiigAooooAKKKKACiiigAooooAKKKKACiiigAooooAKKKKACiiigAooooAKKKKACiiigAooooAKKKKACiiigAooooAKKKKACiiigAooooAKKKKACiiigAooooAKKKKACiiigAooooAKKKKACiiigAooooAKKKKACiiigAooooAKKKKACiiigAooooAKKKKACiiigAooooAKKKKACiiigAooooAKKKKACiiigAooooAKKKKACiiigAooooAKKKKACiiigAooooAKKKKACiiigAooooAKKKKACiiigAooooAKKKKACiiigAooooAKKKKACiiigAooooAKKKKACiiigAooooAKKKKACiiigAooooAKKKKACiiigAooooAKKKKACiiigAooooAKKKKACiiigAooooAKKKKACiiigAooooAKKKKACiiigAooooAKKKKACiiigAooooAKKKKACiiigAooooAKKKKACiiigAooooAKKKKACiiigAooooAKKKKACiiigAooooAKKKKACiiigAooooAKKKKACiiigAooooAKKKKACiiigAooooAKKKKACiiigAooooAKKKKACiiigAooooAKKKKACiiigAooooAKKKKACiiigAooooAKKKKACiiigAooooAKKKKACiiigAooooAKKKKACiiigAooooAKKKKACiiigAooooAKKKKACiiigAooooAKKKKACiiigAooooAKKKKACiiigAooooAKKKKACiiigAooooAKKKKACiiigAooooAKKKKACiiigAooooAKKKKACiiigAooooAKKKKACiiigAooooAKKKKACiiigAooooAKKKKACiiigAooooAKKKKACiiigAooooAKKKKACiiigAooooAKKKKACiiigAooooAKKKKACiiigAooooAKKKKACiiigAooooAKKKKACiiigAooooAKKKKACiiigAooooAKKKKACiiigAooooAKKKKACiiigAooooAKKKKACiiigAooooAKKKKACiiigAooooAKKKKACiiigAooooAKKKKACiiigAooooAKKKKACiiigAooooAKKKKACiiigAooooAKKKKACiiigAooooAKKKKACiiigAooooAKKKKACiiigAooooAKKKKACiiigAooooAKKKKACiiigAooooAKKKKACiiigAooooAKKKKACiiigAooooAKKKKACiiigAooooAKKKKACiiigAooooAKKKKACiiigAooooAKKKKACiiigAooooAKKKKACiiigAooooAKKKKACiiigAooooAKKKKACiiigAooooAKKKKACiiigAooooAKKKKACiiigAooooAKKKKACiiigAooooAKKKKACiiigAooooAKKKKACiiigAooooAKKKKACiiigAooooAKKKKACiiigAooooAKKKKACiiigAooooAKKKKACiiigAooooAKKKKACiiigAooooAKKKKACiiigAooooAKKKKACiiigAooooAKKKKACiiigAooooAKKKKACiiigAooooAKKKKACiiigAooooAKKKKACiiigAooooAKKKKACiiigAooooAKKKKACiiigAooooAKKKKACiiigAooooAKKKKACiiigAooooAKKKKACiiigAooooAKKKKACiiigAooooAKKKKACiiigAooooAKKKKACiiigAooooAKKKKACiiigAooooAKKKKACiiigAooooAKKKKACiiigAooooAKKKKACiiigAooooAKKKKACiiigAooooAKKKKACiiigAooooAKKKKACiiigAooooAKKKKACiiigAooooAKKKKACiiigAooooAKKKKACiiigAooooAKKKKACiiigAooooAKKKKACiiigAooooAKKKKACiiigAooooAKKKKACiiigAooooAKKKKACiiigAooooAKKKKACiiigAooooAKKKKACiiigAooooAKKKKACiiigAooooAKKKKACiiigAooooAKKKKACiiigAooooAKKKKACiiigAooooAKKKKACiiigAooooAKKKKACiiigAooooAKKKKACiiigAooooAKKKKACiiigAooooAKKKKACiiigAooooAKKKKACiiigAooooAKKKKACiiigAooooAKKKKACiiigAooooAKKKKACiiigAooooAKKKKACiiigAooooAKKKKACiiigAooooAKKKKACiiigAooooAKKKKACiiigAooooAKKKKACiiigAooooAKKKZI2xWPoM0APyPWjI9azvtywWAnvWSEhN8mW+VfXk9q4iy+IFxrGszQaLYLLp8KMTcSkjeR0Kj0/nWXtoc3JfUtU5OLkloj0jIoyPWvNm8fXXBFtCAeepqOTx9drzstwM7c89fzr0Fgaz6HA8dRTs2em5oyK8sPjnUnLhPs3yjn5cYqqvj3UZV3RSQFemQtX/Z1fsS8xorqeu5FGRXjC/ELUZZAqTqC33T5eA309ajk8d6oJliaaTcxwCsYxVLLKxDzOij2rcPWlBBrx6x8S6nPqFqkt5JhpVU8+pr19T61zYjDyoNKT3OnD4mOITcR1FGaM1gdAUUZpM0ALRSZpc0AFFJmlzQAUUZpM+1AC0UZozQAUUZpM0ALRSZpc0AFFGaM0AFFGaM0AFFGaTNAC0UZozQAZozRmkzQAuaM0ZozQAZozRmjNABmjNGaM0AGaM0ZozQAZozRmjNABRSZ9qXNFwCijNJmlcBaKM+1GaYBRSZpc0AFGaTNG6gBc0UmaM0ALRRmkzSuAtGaTNGRTAWikLAUZFIBaKM0A0wCiiigAooooAKKKKACiiigAooooAKKKKACiiigAooooAKKKKACiiigAooooAKKKKACiiigAooooAKKKKAA9K8+8Z/EVPDettpxsHuGWNZSynGAc/wCFegnoa+cPjbKB46vwM5FrCOPxpMa3OqufjVsXMGjsQOpeTGBUbfFrVLmF0Xw1dLvBXcqSHGe/3a8i0AiXXdKRgGDXkIKnkEb1617N8RviPqnhvxVLpdjb2zQpFG+5wc5brRyt6XFe2pz8f9v/ABEv/wDSz9i0WFtogBznHdvU8fSu817UdI8DeGpGBRWEZWNCRvkbHFfPXiKfWNNu5JtLvbiEOeRG5GO/b61z0Meq6tfCTU7iadgR/rGJP4Uo5PV9ouxc8zpSpaaWPV9Iujc2kbuwZtoyfWmrETdSW7pmFwZgx7N2A/HBqvocZjiwxOCK0NQZo7FjHncCvI7DPNfYQXKuU+PrNObYWe10kcqcyuXO7r+NMtIGEU6OBGGdtvpg1blIUknoOSar2jsymZj/AK35kUnoO3+P41pFGFyGNJpBAkkTRiA53k5DY44FJLBNJMrPHGvlnKybjkKOuBjqaZBgxRTeY32hnw65z9Rj0FQ3cmbiZ5TGTHINgLHcRjjH+eaYGxbSbLiKQDlXVhnuQa6XU/ifrmm25nfw9K1uEVjMY3CL9T0rlAcHkc5H869Jk1K51a28a6VIq+Va2q+V7742J/kPzrxc2WsdD2soekkcYPjbe4+bSIQf+uhqX/hc2pCSOJdGhmlkwEWJyxJPbHrXgiXblUOx8455r2fwzZr4L8N6NqdlZPqPirxCm20V8YgUqDtGenBBJrxT2jY/4W1r/mFP+EZuCwOCPJk/wqoPjVqCyusulQq68FGYqVPoR2rvtO07XUskbXfEckd9IMlLaJBHGfTkEn68VkeMvDGi3ZbV/E8TSyadF50zwLsS9ToA49iP19KQGDb/ABb1yZVlh8PTTwuMo0UMjK49QQMGmXfxe1yyMTX2gi1WU4QXAaPcfQZHX2re8E6pr3iJZNZu7r+zdBLmO1toIgXkA4ySR8oGMcdcVvazo0eq6VNZajLJqem3RCEOqiWBjwGUjr1FMDgLT4wa3es/2HQhdKn3vs4aTb9SBxU0nxV8SR5kl8MzRwou5y8MgAHqTitHw15w1SXwn4LT+zNL0hv9O1B1DvK57DPVjg5Pb8cV3lnat5gEGqXU8iDDLOQVf6jA/SlcDyYfGy/dQyWFmB6iTND/ABo1LjbYWnHJG/rXN/GLw3ZaJrlpc2duLZdSR5Ht8DbG6kA7fY5zXCRxxyjy0j3ytjbimB68/wAatQwNthaD6vSP8a9SIHl2NoPUl+K8hulhgKxwgTSAfvGU8Z9B64qurbjj7ODgc/NxQM9lf406pt+Wysgf94mhfjXqW3Js7H/vs8142M97dcD3ppDDnyAMHk5ot5iPZW+NepNwtpZKfd6VfjTqh/5c7L8XxXJaVpdvJ8H9Z1A2UH2xNSRRKw+YIAvAPbqayfAWjReIPGGmaZfRD7LNITMAfvKoJx+OKBnoI+Neos2wQaaXHUCT+XNB+NepI214dMVvRpMGma7410OQaxod/wCF7NLWPzYY5LcAEspIUggZH1q3eeJLbwN4Q8LLB4fsLx7mw86RigDbgFJOcZOcmgQlp8ZtScF5LSwZcZGJSP6VaX4y3Hy7rayGep808fpXGfGPR7XS/FEEul2kaQ31stw8S8BXJPQe9cr4etDdeJNKt7i2ieGW7hSRTyNu8ZFJpsZ60/xmugu4W9gV5wfOOD+OKjk+MGpOqmKHTkHTmQn+lW/EHhXSvC+val4n1SK2mDyf8S3T0QBC+0ctxjOegxgVx3hHwLN4pt73WdSuoNH04zsI9kXmGRs/NgZACg8DrnmnbzEdD/wt3VypP/Es9MAk0N8XNXwD/wASxR3yTWTqXwtvLXXo7BbuGSzngluYbwR4I8sAlGX1O4c56VyvhzRJNZh1Z02x/wBn2Zu2JG7zPRB6d+eaAO/Hxc1cnA/s8/XNB+LernjdpykdcAnP6VCnw006IW8N94mt7e+mjR/J+zDgsOBnd0zXMw+GVXxhLoGsXcdlJGG3TpEZd3AI2r75/SgDqn+Lesbvll08D0waJPi3rcZG6O1Kk43BetZHiHwDPYNpn9kzrqcGoSi3R2i8kpJyfmBz8uAefauz8E+B9H0jxJB5mux6ncIkimzMK7Q2PmIOSeKLAYQ+LevbAxhtQPp1+lMf4u64qsXSzRV6nbXnF5IUdgvCByq89OTXa/BqC1utfvmnFu1/Bb5sRc8p5pJ5I/AfmaAL4+L+tHO1bU8dl6e9RD4w64f4bfnp8tdP4vi1K40mwTxTotrIx1CER3NmQ4iBdchhgEA9KoeK/Aehal40uoU8QNZ6pdMHjtFgXy1O3gfjijQDJPxf17HC2312Uw/F/X/4fsze/l1mWvghJdE8QvcX8iato2TNaogKFRkg7uvzYJ9qp/D/AMHN4ulvZfPnt7CyA82RIt0jsRkKg+nU+4oA23+MHiLni2H/AAClX4v+IDjcIFPfMeCPzqHxj4N/4QuxtPEumXFxc20Eq7o7qELIj5+U47ij45Kq+MLWcxOXuLGJsIB8zbiOnrk0WAl/4W/4g5O63GP9mhvi9r4O0vCD3+Sr9j4G8OaFqemQ+I9bmGsebFIbWNVMZYsNqdMkZwPeuG+KES2/jrWViwE+0k/L0yQDRYZ6D4X8c+LvE+p/ZNOkt0VFDzzunyQR/wB5vf0Hfmu0sJNZ1GCSXT/FsdwkZKs8enbgD3Gd3avJmvZ9N+CVsbCUwvd6hJHcOnDOMNxnr2r2nwZDLbeCNEj0qOJU+zIxyOpIBP6k1LEch4o13xjoqW8tjdR6rZzt5aTQ2+GEnTYygnBz3z+VbNnca+80FpqHia3t9WkXc1lBaCUp7E7u2Rk4p02pXFl8QNTs4m8uKbRzeMo7Srxu/wA+lYXwDZ72HXtRnAl1CSWNXkc8425x+ZNMDd1g+KrO3mGla2l/fxDebSW1EbOnqpz1rG8P6/4lvtMbUte1aPRLFm2wGS3DSTH12noP1P8APe+J15dWGh2WoIoiu7e+iVWXkFWO1h9CDXIa1M+pfHSzs79vNtbeVTDE3Kg7N3T68/hQB3MyaukCSt4meISgbGlsFC5PTPPFcpaal4/m12fTby4gs47dfMnvDFmNY/7ynoSeeM/WvTZY7m4MsF1HE1tKpUgcnBFeHeKdb1Gf4RaMzXTl5byS3lOcllTdgfoKQHounf2jqVu9xYeLbmeBTgulipGe4zWH4jv/ABrp32aTSL4atY3DCOOVIAJFc8YcDoPeu08IwvbeENFTT4o1hFrGSuOuVBP61z0+pXdt438S20DNHE2jC7VP7soyNw96Yx2ntqr3aWF54sdtX27pre0tVdI/bJ9PU/lSa3b+KIIJf7D157u/iO82t1Aqb077SO9Yf7PmbjT9avXxJfSSxhpH6lduQM/Umul+JN5eWGl6ZeIRHcxalAm9eMozbWFJMRgaRqPiJtOTUfFPiA6PFOwS1txbgyye5B6dsCuluLDVYIRLJ4n1CEScK0tsm0E9M+n6VxN5Ibr4+QRXrGWKKQCJCeFIjyOPxNewXUUtx5kE8aPbSoUYexFMDy3T38fSa7PaanqCWVlbLvnvvLyhTtszwSf0rptHF5qVi11p3iPUbqAEgSC2j+Yjrj1ryzxXrWo3Xwj8PNNcSFnupYZSCcsEyFB/KvcPD8TReGNITTgixJaxgccY2ikOxwnifXfFOgNHqFpdLqWiZxI5iCyQsOquO31ruPB/imy8SWQltmVJlGHiJ5U1w3iS5mj8XeLNO3YtptDN2U7CQDGa8b8N+ILvRr+G5s5CjjBK5+8PejXcD7AFFcp4H8YWviayDIRHdKPnjz/KurHSqTuIKKKKYBRRRQAUUUUAFFFFABRRRQAUUUUAFFFFABRRRQAUUUUAFFFFABRRRQAUUUUAFFFFABRRRQAHpXzX8Z/m8fapx0gh/lX0o3Q180fGvb/wnuqD5iPIhz9cUDRx/hvB8R6QDx/psHB7fOK6z435PxFu8ZI8mLtntXEaVdLZ6rZXTqWFvPHMQOpCsDgV6vrvjH4fa7qDX2q6HPcXbKFaRhjgfjTW5L2OdmtFmOSMlgCar29gFkAChcfjVXxh4ltrBblNOOLreDGrocKh5z+VcNJ451UrhGhUe0dfTLEQilc+adCrJtI9WgRUXHNFxDFcjEy71UfdJI/SvJh421VkYtdmN+2EBFVH8a62wx9sx3yFAqni6cQ+o1ZHsyRRpEIlA8vBGAf61HFDbwtuiiVGHGVGK8ZfxjrZGDfygH0wKrnxTrG7P2+cEDH3qn6/TQ/7Oqvqe4rGiyGREHmEY3Ac0pi3EyeVllGNxHIrwqTxJqsigG/nIH+2RVd9b1FgAb64wf8Apoeal5hBbIf9mTe7PfpdwJ8wHJXOO+K66wV2fx9MJ8LNpsLDcfunZJz+mK+cPD/jO5021kilVrpnfcHdiSOMYr3nwzepqnhTxPfxDi40WMlc9D+9BFcGYVo1opo78voSoSkpHgu64SNA207lBBI6j1r3pNTi0G3+F2qai3mW8dhLHKVGSmUTDf0rwYuWWNSxJCqAPbHAr03x1dNZeB/AMgwI30t0Yt0P3DXkNnrI+lIZLLUIY7qJop4yNyyZyMVwPj3X7PUvDHivT9PlWX7BYr5hU5ALMcD8kryvw34G8calo6z2ObOymG5Ip7gxs47HbzgH3qz4a0q+0bw38RbPV7aS3uVs7c7H/i5k5BHBHvU6gep/B3WtN1PwNplp5kYnsoxDJGxxgjofxrR8Qa1pllr2nxJcKbqaRYFhR+pZhyR04AP5ivnPwX4Z13xHPKdBgJSIgSzvJ5cakjoT3PsK6a08GeIPDnjXw7c6vbrLbvfRr9oil8xQc984INGuw7I9O+G2oWaeK/GWkuVW5bUTOM/xqVA4+mK9EZYoU3EKiJzk4GK+UvE0Op3HxP1a10NZ/wC0HvX8sRHDepOewrrNa8JfE640o/atRW7iUZa3hut0hHp0AP0zVEk/7Qd2mpw+F72xzJDcpOI26jgrzXkqyiNTBBzKw/eS+n09K7rx4ZIvhz4DjbKOLSZWBGGBBXIPoa84eUpGIkHH8R/vGgCeS5SNCq5K/wAR/vEVnjWrMEqrsT2wK9S+FXwwbxbENU1pnTS9xWKIcGYg8sf9nPbvXutp4B0C0thBBYxRoOyIB/SgD49g1C2mQtDKzvkhlxjAq1vYqGXkV9KeLvhDomrQM1nELS5wdskSgEH+v0r5v1fSrzQdVuNOvlZZoTtJxgEdiPrQB3/gefRb3wDqOia7qz6a8l8LlHRN5wFHY8dQadZt4d8HeJtE1TS9cuNWEczieNogm1CuMjFeaMxBIOD6U0NwMCgD1vVLX4fwTahqo1K51OSUO0Ni/CK7Hg5HJxk96sS/8Ij4j8MeHINY166srmwsvIdIQPbOSQfTtXkAdtpHA9qdCU8zMuCvfH9KAOx+JfiK017XoX0oP9itrdbaNmPLhc8msDw9dLa+IdNupc+VDdRSOeuFVgTW78P/AAYfEjzX2o3BsNAsyftFyTguR/Amf1Pbiu70nwl8P9Wgae1g1Z4QxUSNOQGPfHPOKBjbj4g6bq2u6vpmtqbrw3dtmGRvvQkDqPxq38OvGOk6Z4cn0e4v7ix+z3DtFc7QzSIzE85GAaxPEHwva5e3u/A8rXFrK4imt7mTD2zf3iepHPI6+mc1p6b4K8FLctpk0+oahf2oAubmOQpGXPUADgcjpQIWH4iRp48WS9u3u9IhR4I5CoBw23LYHuK3NB0Lw9oPhvxHqmkXF7JY3Viyh7kAR7fmwEOASMn+VZWofDXw/qNg6eHLia31FRmI3EpkjkI/h/8AriqyacmkeCo4PiJfXccUpEdtpVtJ8yKOBkj7x6cdKVwNb4g6V4T/ALX0q98QajewXKWsRWGEja6ocjPH1HWsvw5450dvFmv6jfRvayX4VILtAC8aKMBefXg1r6t4U8KX9vHJqr6qWVAA8lyWaFB6+gFckvwvnstbuZNZ1FYvDMCib7crDfcKc4QDs2Op/KncDofEfxD0mGLSGtL241CW2vRcMZgAdu0gjjvzUeka34C0jxLNr9leXwupFdjCzZjBbqAPr/OqWleGPAut2rXVlpmrvCCVDm5YbsenNZmu/C/7etveeBpTLE0giubW7l+e3bu+7rj1H5Ur3A4HUpVa8nmQ/u55mk2/3SSTj9a3vAWq6Naancr4htTLYSwmMuD80TZzvHv2rrtL8LeB/wC1l0CRLzVdRgTdc3iTFIwe/A4HPGK0tX+HXhm/ElloDSabq23fBJLKXjmI6qcn+VMZQu/F2haPoq6d4env7lZrqOaZ7mQsUVWBIH5Viap4jtJ/iWniJfM+xJOjgEfNtUYJq3aeE9H8K6Sl54+SWe/uW2RaZbSYMY7ZI6k8e1dVceE/A6W7m40q5iRAN7/aGJiB79e1AjG0DxP4ac+K7rU5L0SazKylE6eUM7QPQ8nP1rG+Fni9PDkmqWmorMLC8YMk0bfOhGQD+IrTj+GSWWr3F1repQ/8IvColjuFbElyDkhOvHufyre8P6B4I16zF3ZeHZvIkcpG0lwy+Zg9QM0bAcd8QPE8euX9hZW97qE2hbgboSsN/X+H8OPrSfFjxBpmuTabeaALr7VAojcynC7F5Xj1z39q2Nf+GdvqrpP4OMdqBKIL2zuWz9m9XBzk4HOO9aej+HvBB1FtDtdIfWLqzQNdXryFRk8ZJz3IOAPSi4GXceL/AAdqup2OseILS9g1iMoziFz5bMhypIrgfHOrQ6v4u1PU7VSbK5cMobqMADNeseIfh54X1OI2Gm2qaTqD5NvNvLpIw6oQTXi93p11o2o3dhfw+VcQna6ZyFPsfTFK4Hongmz0zxX4GPhW6uWtrxJ2ubWfqpY54P54xXtHgSC9s/CthY6nb/Z7q0iEDDeCrbeNwI7Gvnz4eeGI9S83Vb69lsNHsJMzzI+0yEdI1/Pk+4r1Lwv4g0fxAkz2GjTC0icos0lwwDkegpgXtbax0jxVNruuuyyXUAsLa2TnEWcs7e5J/ACl+GfhqXwrqWqR2rfbNGvvLmtrkMMoACNjD6Ec1y/iTwpbeLpnk0KRtP1i1YR3FnNKShQ9HGenGTx1qXSNS8P6Pf2vhmwhuNbvEUma7knKqCPvH0Az2FAHcfEDTo9Ws4bbUJPsukwyrc3M2cFtpyEX3J6n0HvXP6Xp+k+JfFln4t0iSR5oc/aLQths7dqv+Hp3pPEtjo2oRx6Vqls+l/bRi2vYpiV8z0Of68GuOtdN034cxSy+JpG1HVbn5IbK3chdmcBj6lv06e9ID3PUZbpLF2soBJdlcRo7YAY9Cx9BXkz6T4c1DSh4GGoyfa7UmeO+OMNOxO7j6np710LPYRWAuLnw+qLjLoJyWUd8e4ripPAWkQamNeOrKfCWPPXDHzS+f9UD6e/XtTWoHrvgu3vbPw1Y2OqQiK5tYlgYq4ZX2jAYfUc81yOvXenaH4ludY8QOTPqEQ0+K1Rs+XBn5mY+pzVXwxrWleJI5Z7PQEjtlZlSSWU5cj0FZHiPwjZeLJ3/ALDMWma7aMsdzayMWQxk/fH4c5796LgdX8N/Dh8L3moJpzi70O/2TW8+8bo8AgoR3+taHxCtre9tbf8AtSdbfSLWRbudw43SshyqL+PX8K4LStY8OWWpQ+GtD0was0CZlvJpCBkHDE/j0FbfiDTdAusaZq9jBpv2ghbe8gbO1+2c/wBetJdgK9pa2nifxBY+MfDRH9pW0gF3ZTPt3rgqDnsQPzr02+uJ/sDm0WMXTDCrI42qfU49OteIxWulfDS2lfXhHq2uXTbY7WIkRxx7sLx6nI5NdgRZi0M03hzTyUwJY0Yk89ge5xTAwXsfCurWB8Cx3UiSWuZYL4sDunbO446YyenvXpnhM3NloVpZasLeO5tYlhLRyhlfaMZHcdOleRyeCvDlldp4jbVAPC2PMjtwT5jS8/uuv3f17V0/g/ULHxXZy3tv4csreAsRE0g3NJjOTjA9MUAUfiFfWeizapqlxIk2uanbGytoEYMsEHPJ9Sc5/IV4Qdkcm7zFUjgfMK9w8ReE9M8XSgaS1vpGtQf65MHypY84LY4zj/6x9ah8PXvhuLV18P8Ah3QrXVY7dN0+oXShixzjqRySc8e1IDy3w9rVxp1+l1YXAWVDn5W+99a+jvAHja18S2YSQrHfIBuTP3vcVg+I9H0Ge3FnrOkWWmQXB2xXlqio0UnY5Arx/Uba+8I+JJrFpf8ASbZhtkjOA6nlW9sjtSt1QH1nkUtcB8OPHlv4igW1uSEv0HIz9/3rv81SAKKKKYBRRRQAUUUUAFFFFABRRRQAUUUUAFFFFABRRRQAUUUUAFFFFABRRRQAUUUUAFFFAoAD0NfMfxmbPxA1jawBEcIwfpX023Svl/4ytnx7rPynpCMgE/wilcDgmb5eenaoLlgbeTABGDnPPapTk/wtnt8p/wAKR7O5licR207blIGI25OPpRcDqf2hLKOyvfDt4NwF5pkecDjcgH9CK8ceQ96+iPjiuma74F0a8s9Uge4sIVj+zL8zNuCgk9xjHSvncIWdlLIoB6txmuqM1yq7Odx95oY0nc9fpUbPjgjmrosC+M3duue2c09NJMjBUu4Cx6Lzk0nUv1KUDOMmDn17Um/PTNaraFIZPL+1wrJjO3qajbQ1Rtsl9ErjkgjFT7RdylEzhIR0PFIH49vStD+yYT/zE4OnYE05NEt92W1NBjHAQnNHtA5TO80Z44r6H+CV4br4W+LFbJeCzePnpjDEfzNeC3WmRQjMV0JyOQgQ5Nes/BvWbOx8B+NrSbzYrm4hCwRBWYvlWHHHrim5qUXcXLaSHW2X+Cssi2a/uNVBM6x8suz7xb8QK7DVIrSfQvhBFqOGtnKh1bGD9zg+ozgV5Xbv4gfSV0uKLUDpzHcYBG2wn6Yr0Xwprdpqfh1fCXjayuYrWNP9BvRA26Egf04rnNfQ+gb/AEZry7M5upYtownl9RXK/ECWFPCOtQ3hWa8h04NcGM7SVL8fTJDGjwvq8Wn6aNOm8StqMqKUjnksmVhxxnBwaxfEGo6l4WvrO0sNDn1myvjm/unw8lySMcjsBk8cAUgubfwssbO7+GGlQ2BEMcqbpdvJDkktz65reura20izihll3QNNEsSy8nzCw6f59a5rQfDUfhK/lXSNant7LU3zFYvAJlhfqcMDx/Kr/iVL21mtpbdP7Y1ny2+xo+IoISBzIfc5AzyfTvQM5f4ZR2zfFrx28pH21XRId3UISxbH4hfwAr0yDSEtp/OgmkDsctk8N+FeXappH9qajZ6lqEtz4c8UwKPOuLKP7RHcLjHOMD+tXb/zpbUrqninV7uzQZkt4LDymmH93cORn2pXA5X4+TwXVnoE1mytbv8AaShU8N8y8j8a8VkPyS7T8+w/yr0bxlJrviacSrod3bWFtGYrW3WIgRpx2rlV8M62HUtpF9scYI8o07htufXvhixh0zQNNs7ZQsMFvGigDAwFFa1cf8NtWuL3wzaRalDLbXtsgikWVdu7AwCK6wyp03r+dO6EPIzXzp+0pZRQ+KNKuolAkntnEh/vbWGP519CPdRKjMZFwBk4NfM/xWfWvFvimS4tdJvja26+VDmI8jufxPNFwPMSSeEGRQDxjnFap8M68rEHR74t0/1ZqQeFfEDLuOj3mB/0z5/Ki6Ba7GShXjPakbaDuA6c8VsDwvrrDH9k3m7/AK54/OrC+F9dOP8AiUXYIHPycCi6YHTatM8XwR8NCJioa8nDBDw3J6/jUXgDxfL4b0wy3elT31g0IjiKj5ImBOTXTeCNKl1Pw2fCXirSLu2tEZprW+C4MTkknPPqaZD8LfFVvYmwtdd0lrRRjALqXA9gDg1MvIaaW4/wNrUlz4o8UyQTyCF9HacLu/jAA3fXmuG8KeKE0LTvOmTzQ0qOw6FgOSPxr1HQ9DHw+tvNFg2u61fgRXTQjEcMPdFyenv39qwfEHwZN/M7+HNXtbLT5j5iwXSMzxE9VGD0oC6RS1T4iR+JHtZ9OtfsMcV5blQjYIy4DdMVS+L94f8AhaEvmSFkiuIsKTkAbRxit3wz8L28HfadQ1q6i1qKPZJBZWkRBklU5Xdk9AcGtfxF4Rj+ItkmqTQf8I94hiYCQzrujlA6Zwefr1oXYG7HNn4lR3WnnQorINcM0iy3DtzIvPtWZ4gvppfgt4UJnkcG7nVstnKjOM/StHT/AIE6il5FczeJrPYxPm+VC25VOc7STyfqK7X+y9N1G3PhCbw/cW3h63QC1vQQWSTnL+oz60aIL3POvCPjxvD+iy2a2TTxvAI0YMF2Nk5at7wbrTX3iHxPNFuhD6C77QerA8N9eetUp/gjqJkZYfEuniJeVPkMT14B5rqtF0NvAFmosNOOv6vebUvZ1wkaw/8APNN3bH596SsndhdNaHivhrWZdIubi4idssqM5zywBJxn3rrdY8bT+KbzQdQjgFjHHexRiON89GGT047Cun8TfB231G8N34c1W3063uFDGzuYixQnsCDwPal8NfC1PDdyuoa3dw6r9jfzbWxtkKh5B0Zix7HtTuriuct8Wrsx/FK5aViyQ3UPGc4+UflWxp3xPhv2uNEmsFaAvKxuC3LDBwP8+ldHr3haL4i6fFe6nCPD/iKFwDMVDpIM8ZAIzXJad8GbuDVM3XiewFs2d7wwt5mD12gnAJHftQ2hOSW7GardO3wQ8MP5rti9kjyW54DYH6Vn+DPiE3hbTrJXtvtQCFY4i2Pxr0+3h0+5jPhSbQRD4XijCW9x5ql0fu/rn3rjZPgek0mP+Ert/Jjz5R+y/Mozxk7qG0wVSPcu+B72Q+MfFStK4aXRWmK5zhsA/wBa888MeIpdEsdTeCVsTLFvYHBIAPf869d0bR38DbW0uKLXdZvmVb26kYRosQ48tAc4HJrP8R/CjTNXuZbrR9Zi0m1ulVpbN4fMCsM/dO4Y78UXVhe0j3OW8R+NpfEj6TfxW62MUV1CoVG5zu6k0z4vgp8RtXA4yI+n+4K6/RPhxpvh1kvLzUE1mO1bzYLJEEYkl7FySeBzgfzrkfEPhnxN4g1q81S8itklnbO3z16dgB24oTSE6sO4to7j4LXW04H9s7TzjgqKyPCXxBl8KWunR21ql0480bHO1RuPU/l+td78O9M1TRre60jXbG0udEvX3SxmdSyMe/Sq1z8ENKN+8lt4oeK1DM0cZgDMueg3Z5H86G0HtIdxPA+tPrHxP0+5kxHPc2M3mKp4PXbXnHhzXDolzqFwg3SG12hj1A3H8jzXtGi+HD4KgL6E1tqet3ACy3twRGkMQPCIvP8AOq3i74aaT4suk1WDUF0O8kXFzBGokRznk9Rjv9eKLoPawvucF4o8e3vinw/cC5ggto7aOPaqN0fPBz+OKu/GO4+y/EOznmy6xw2rjI+v9RXUaB8LNJ0XVTf3esLrEUJEsFlJGEV5B90yNk5A7DFbeuaHH470iSz8Ym1s71GL215ZvvaME/d5HNJNWB1odzzyD4o304/suK0hy85PnF+eo4AqzqE6T/B66eNv3Q1xtuOmM/y5NaCfBLS4WR18WzBt2WZYEBx3xzwcd67bTbVLCVNEtLLSx4Sjh8kwPKTJIe7njr1pqy6h7aHc8W8JeP5/C1pp62lrHcCNJFMTtgFiwya7rwNrM2q/FWCedFjmn0qUsqnqM5X8qWX4MeHGuZ3h8SXUVu5PlxBFYx5OcAnqK27Hw+PB1tJL4aura+1e6YLNfXbbfLiXpGigHAo0Woe2h3PDvD2tyaBe39wi5cW2088gBjmuq8TePrrxb4cnnuYIrSCBUiCK2cnd8p/QivQvEnw80DxVeRak98NF1CRNt1FahXjlJ789/eq+j/DLw/4du1vl1F9VNt+9gtJyqI0o6MxHUDsPxpPvcarU7bnG/HJjH8QIJSCN0Vq4zxu+lVofiBq0H2jQbHyQLqff9pOSyHj8hwPyNen3elp400R7Hxs9pFco5kt7yzf54uenI7cVi2nwl8O28nnJ4ovTcP8AI74QEjuB6H3odn1EqtPucndz/a/g/cTxbjCNdZgcdAR3/E1U8OfES58OWejpZW0UiJFjYx/4D/n6165aq+nXUOlWlvpA8LLF5H2PeS2P75OMFjXLXnwe8NO8xstelit2YvHC+GEJPZT1x7US12Y1Vp33JdE1o6z8SbB41VWksLnCRj/ZGTgdt1eVeFdan0WW5Fuvl3JVdytkYIJHP0Oa9l03w8fCGn+V4U1Cxm1O4ZTc3962G2L0jRQOF6//AK6k8SeAvDfie+h1O9vV0/Uim2f7Gw8uU+pBHWi6tYPbU73ucD4s8Taxe+Hbp9Xlt2gMYEPk9C2RgUfGIMPHUxYfM1rAee52816Fp3gbw9pT280F+L9rIb7a2uWAiEnZnwCTjt+NcjrHgfWta1Ke/vtY0s3Er5Jy547AcdAKUWluxSr0+6OA0+6ns7mOe0kaORGyCDyK+hvht8QItejFnqBWO+UAAk8PXlsfw21E4/4mulqM4/jP9KsRfDzVbG7jltNZ09nVs5XeuKfMu5Pt6e/Mj6QFFcv4W1K8FksOtXFo9wvAkgJw31yK6dTkCrTTV0XGcZ/C7i0UUUygooooAKKKKACiiigAooooAKKKKACiiigAooooAKKKKACiiigAooooAKQ0tJQBz/iy9ls7VPJcoWycjrxivP73WblpCAzO7nGAMsx7D3rsfiC+y2tjn+9/SuNspZdP0mfVbW3FxqM8/wBlsYj2c9T+n6VyVZNTsjx8TCrXxKpQlZdSeTSNTaKNr6/s9OZ+VSZ8sfwHSs/VdJ1mK2aW1u4tQhQZYWzfN+VSJoulaZIJfGGsy3+rSfM0Fsx+XjoT1P14+laaXeks8f8AZem6jbMq5WYEg59wTyKlxlbc7/qNK3Km7+p5qrx6gJo5ZCjY4AUZJ75rAu/DERLFnOOTnYK7b4lWRtn0zXIYPsz3bNHcRkYxKvOfxGfyqlNi4sRIg5Zc8e9SpSsfPY6NbCVbOWhwo8Lwy/L5wXGcYQcV1ngfwD4f1Hwfca3r00tuYpnQnf5ahV6E8ZPesjRLTUEu5Tdyb1ZyU46L6UeNNYW906x0uKRms7VXkkVTlZJGPGfoKpSctD0srxEpVHGTucj4jbSxrzxeHPMfTkwollAYue59h6VRieKVWaNNr52jcM5rfbQ59AnMetWs1rIY/NCTJjeMnpz7VlRpGywtGgRWkDqnpk8CuhaaHr1FezQy2tr4y7Ra4zyMxjn3HrWzPp0lm6R3MaGQgNwgGBSaVpmq6hfNqEclwun2U4SS4X7qEn7v4j+daPiy7F3rkzqSEACgKfTpRN9hVU+Uv+HLGed4p9yw2bSiN52hDKmTjJPavU9a0CXw74Zjnuo4ZLgsUaaJzjknB249K8J0caxqOrWWk6R5kyXDH/Rt4VZMcnPboK95+Jviu3utBlsIxsmjnWKRQfusByKUkrDd+VmL4U1WxZZf7UuJFG4EAHtjk/XNdpoemXGrWn2uEG0tAvyPL8zS89cZ+Va+fbm9ZJY2XHyAsx9u9e5weI59O8G6c2oyKgvLbMKHGQNuccexFRFe7dk4a7powhrRj1yMzMViDgMCcZGRmu41NZZEH9jQtI/Ub3yp/wAK8I1DUjJG0rN1GS341678NteZdFuoZI3drWMSu7EfKhzj+VTBJ7meEbvNPuM8Y3FxpLrA7ncVDbgaueF3fWrNdl0Y50faUUbiV9TnpXCeOddXUNXbZKJAIwODkDk074Za0bPxD5wUvCcwSbTn5iRt/WiK96zJV/rDXkena7pzaVpz3T3rSMCAFZQo5rkfDWqSXOsLaSSYE77FYnp1Oa0/izrYTQnQlVeOVVZA2SG4P8q8usdUEOsWgT/WNKcexGMUNLnSQ6yl7WFj39fD+3JN7Ltx/dGcV5zr2rNDqxETlljYqDnG7Brvx4gNxp4lChYpGMIkzxvHUf59K8Jv9S869uWBVtkjj24PX9KKqStYMYn7NWfVHullpjXtva3FreMEdcyjAPOP4fxrK8aKdFsojHNI7S7vmY8jGDxil+HWtK+jWdqNrSuhkjUHnaMZP5kVyPxI8SR6hcwpG4MaKwAz37/yqpcqjojWsn7OXodV4IT+2rG4Es0kbRNgFSCTnOetb2p6Wllp09wJ5pGiQsAcYJ/AV578K/EMdiNR+1MotkCsX7gnNdx4x8TW+m6ddQTr5dw1uzqjnqOmfzqoKPLdioX9mrnCabqx/tsK7EpI+wc+pr0b/hH225N4/TJ+WvBrS9K6paOp4MykHsDXuI8QxLoc00zjMQxIc/dPH+NZ0krXZng1Jxd31ZxHie98m9SCCQkIccHvxXZ6BYxarp6XKXLqTwQnQGvFda1YS6pcyKwMavwR7CvR/g5r8E2hJGXBd38vaDzv7ilTs3aQ6Sftqlzb8TCLS9JljcZmZcJJu5P1qh8PD/akc8chOyIgsc8nPQfpWP8AFfUwJoPLbALlWX3Aqj8LNdSzv7iOaQLGyB2LegzSslPyFNP28fQ9QfQ4wzuZpGXHyrgcfjXnen6iZPEsUMrYR5NjD+7616BfeILddLFyhKRyoXiduNwxnI/MV4VbaoX1iG4BwWlDZJ6ZNXUsmrCxKb5Ldz386JbeXt3y59d3NcX49Kac9vBDI5JGTuNdVpevR3UEiQjzpLdA0rKeADnH8jXkPjzXkvtXRUfcoTIx1GTTqW5dDTExbpSPUvCVlHqOhwXEzSZcYUK2AAOKn1/TorLSbmeEvuVc4LZFYfw88RW48N2/2iVFQOIEQdS56D6ml+Iniy1tbCbTUJ+2SAB4z1RTzn9Kq0eUqMXyW8ih4Eu4b7U5rS4G4yoTGc424/8A112Q0GNAd1xKRjndivGvButRWHiC0eRgGdiqgnrntXq2u+KrSHTY7kMVtpXMSyngFhnj9D+VKLXLqRhE/ZK5wuoauq62XRiIg/b0B616JHotvcxx3FvNKUdQRufPWvn/AFHVhN9pmzwpcHn3xXvHgzU1k0aziX53aMFB0yABn+dTTfM3cnDJqU35nNeNmi06eC1ikcliN249844rOIiDkbDx6msfx/qST+LoQGyA2w+xDDNa03E8mOcE1L0kfO59OVOqnB9BAYSMbDnvyabIkQAAQ4/3jSEgjnilfkA9u9Fz5/6zVt8QgCeYCY8j0yacroqtmBRnvkmmZG4YPIpUbIIPWi5KxNX+YAEZBlBge5oZY8jan4ZprZ8sA9BTd43ACgl4ipfclBj3gbM/jQphYH/V57fNQjYZs/3T/KuS+zumlW9+jFhIxTCj7rCk2zqoOpVV+Y64tDgD92P+B0ZiDgHy/f5q5p7CGC48m5vBFiFZD8mcE/w06+04W0lpHBOZZZz8qlcYHY0rstxn1kdETDz/AKr6buaYJY9hyY/++q568sFhiLw3CzBXEcmFxsJ/nUep2y2N7NbmTf5ZxnHXgUudijCb2kdN5kO3rEM/7QpjTQbsZiHHUtXJH7v/ANetaTR449yS3n+lLGZWjVenGcZoUmDp1EtZGwJocHLR49N1Alt9uWeLr3Nc09oI57KIyn/SURzxwuewqaDSkk+0GW48tFm8iM4yXbmjmY1Tn1mdBG8bbWVVYdm9akAiBJMS81V0iPbZRJK2xk3A/UE8VOCN2COtX0Oec6kPtAvl5b92pHvTv3ZUExL9cUi9G4Apd4IAouJVZ2+IYzx+YMRAntgUKycjy1GexFJcW0txY3UFlffYLyQARXOzf5fPPH4VLOgEiKJfNKoqtIVwZCBgsR2z1pamlqip+05+trDQqdPLXn2pzKgAHlpx3xQMbCfQ4pxwcdxTEpz7iALz8qgdzjtVTTIZta1JoLLaiqN7ufuxp0yfr6Uay5i0u4ZeGICZ9Mmtjwjp11/wjlpJpyoWu5HnumxnO35UTFS027I9jKcG8VO83ojUh03SbWPP2a/1AgcyojbfwqpANB1a5a002aW0v1GRDLkE/UHpWldah4ost0n2RJIFBJGOf0rIvL2LxSghv7dLDUYAWt7leWB9PofSidNpH1P1bDtcjhoQI9xZ34guRiRGGRXrER/dqfavLNZujfaLo+pyDbcsDFN/vDGf616hbnMEZxjKjitcM27nFgsO8NVqU+nQmooorpPTCiiigAooooAKKKKACiiigAooooAKKKKACiiigAooooAKKKKACiiigApDS0hpMDifiT/x72menz8f981ymmW1xquhaZHZsVltb5/Olz/qlZT8+PXHT3rqPiYR5NmCez/+y155YajdaNLLOsBls5hsmRuA6/Xt9a5K2k7o8ideNHGe9s0df4W8GwXt1PqE/mJatIRGmfmkA7lvT+fWu5j0XToUCxWyrxjPeuZ0z4haC9qg87yAigbJOo9qg1z4n6HYWxaCY3cp+6icD8Sa2VSFtD1eaNr30OV+Or29npel6XEf3rztcEdwAMD8yf0rC0qHyrBEk/hQAg1RJufEOrya7rbeXAGDRq/Cn069AP1rQXVdO2n/AImFp/39X/GsJO58pnWI9rNRpq9hqIInB24yea801vSLjThNvZdjNlZOo4Peu+1LX9Ls7VpWvYJmHSOOQEsfT2rDuL+e8iBl1HR0SQZMZkBxn+tKN07k5XXrYduSjocTdahrPiTUSl/eNd3IxHHux0z0q7qmlXOlssE6gOFDKQc5x6V0NiyWDM9rqOhxk91ZRRqMkWqXEH9oa1pgSMbA0cn3R16eta877HrvMJSmrR0OGXXNTs1n0u0u3j0+4kWSaMcBmGOvv0rVQB3aTcTuPU9TXRX914dkdNM0+WxRcgS3cpGPwPc1qaXP4asLdo/7Rs5nfhpHYEn8O1NzHWzL3L8rPOZL7UdJnjn0uWS3vImYpJGcEAjsa2ba5mmhQ3N09zPKfPmdzj5j2+tauoWWgzyE2mtWYTr5cjZxV/QtP0OGRJZ9WtbjYc+XGcL7Zo51YuWZJ07pP7mcdrbTLF5kOThSDtrQhuL298P2U+qaw8oiTbFZ5yVA4A+mBXYazDoepfOL62gl6ZUjB/Csi08P6YJAz6zZBSf4Mbj9Mmkp3ViMPmCdPWL+4yJRJJppjwDIVwfc0/wxc3nlXXm6zLY+apidAcEqOgP5mu5lPh9bEWRntlj4OS43Z9c1zl1oekvNlNcsjGf+ehGR+RoiRhce7tSi18jFsGIurqQOXQkBWPVsd6htZbiDV9wu5LOMuJFdem4HIruNB/sDTGLtqVtcT4wGdgAPoKp6xa+Hb0mS31e1gYnlCQy0r6ijj26zfK/uOa1u+ury/wAS6hJqMzkF5HOQMVHrMtwywyxPh4jn5R+orfsNM0G2lBuNatHUfwREKD9T3rc1K48NahAsUt9bRbRhXjYDH+NF9SquYS9pG0H9xxTaterorWi65IbWM7lhz1OScD8zRZO/2Eq5/eODnPvWl/ZOhJKWbXrLZnrs+at+zv8AwtaWjW3263kD/fZ2yzf4US1YsVjZOKUYt/I5Xw9earZssljrLWdyoMe04AC9eD+AqK2kkW7m33P2srljNnqx5PFal5a+HZpy0GuWyr/dkG7H41oaJL4a0yYSSanBczD7uRhF/Cm3psaVcdJ037rv6HPP51xMYEuxbK+CGI+XI5Gan1bU9V1G8M2raut7dxqIogE7E5Nbut3XhbUSZP7UhtpyOSBlT+FZVtB4ahkDza9DIvoi7SfxoT02HSxklT1i7ryKWqXM/lK0Wcqcis86pe/ZZ8as6pJy6EnJ9q7241nwpdWQtXu7cRJwuwYK/jXNy2vhstka5HtGcZhyaS0RnhcXOz5otfIzNJaZbJmmb95IxI4yce9Gjapd6dco1lftY3Nu25CTkNkY+ldlpGseGdMjZILyOR3GGdkJLD09qydSh8KXkpkj1IREnlTEWFEVrsFLG1HUleDs/IwG1LUdS1Zmvbt7pY2LNKTwxqxqEsgmRXna3SRSpY8evBre0mTwrp8gkfURO68qpiKqD9B/Wr+s6n4Z1UZnujFIP41ib+WKHq9hSxdX2yag7ehyN34m12Se0sL2+Nza20RjgEYChQQBjj2AqxeTvbWRMMTSNGOPc1dtofDUUwZ9WkdMnhbcjP410I13w19j+ybm8kjO0wvnPr0ptbaFYnFVG48sH9x5hb+NvENlNdDT7qez+0ALJGOjAAj+prU8OC4+zGWd5JJX5+bJOK3p7fw47ZTULlRnhTbMcfjitfSdU8P6Wc28lxLK3BkaBifw4ol2sXiMVUlTtGDu/I4rV9WvdPiU2ckscyTCZCB8oI749aXSdRvdSeTUdUvpri8mwrB+yLnGT+NdVqM/hq/k8xZruKRj0S1cj8sVHp58O2sgeSa7uSDwptWAz7in0tYpYuoqV+R3MTW/tdpbx3ixyIpUlGx+orJj8SapeaRBp93ezSWdvL5sdvt6t7n8TXpd5r+kzxlJoror0wbV/wDCsuOfwvFOGFtdbxyAYXI/lRHtY5sNjK8Ics6bMTStI1C78Ny3OzAbc3PU5J6CsvRdY1SzmZ21O5tJIk8tFUnGDyf5CvRx4t0tYtgW6ReAALZgPp0rIutR8MXchE0F0ZOp2QMD/KoSs9iaGKxCk+em7MwvDX27V9eRppXl/eb3dup5yWP5Yr1mQlpWIPGelcnp/iHQtPiMVja3can7222b9eKtN4x00E5jvSfT7O2aHFt3PLzCnicTO6puyOhVdynnFOf7oHb1rnB4tsBwIL/0/wCPZqQ+MLArlYb847i3bFLkfY855bibfAzoB1x2pykDdmua/wCEx0/dkQX+AMn/AEZqQ+MLAFibe/A65+znpRyslZZiv5GdJklPalCjIORXNJ4y04LgQX7f9u7Up8Y6fjK21+RnGfIb8aOVj/svFb8jOoQZcr0yp5/Cua8G3ElxBLZJJt+YSL34zhuKanjXTg4/0bUD2GIDya5iw1v+z5TPbLeLJtIyICcZ7U+STR34XLcQoNOLR1FoYtT8S3EkoLQRl5An94L0FRSyXZvLPVJV3NcTERR9+OOnp2rm7fWFtLhZII7xWXuITVu68QyX0sU1yl4WjHyYgIC85zSUJdjp/s6u9OU6S5WGPTdReBZY8zJuEgwA2eg9ab4lieLU5JWwqTklAeuABzXOXviCS7WNbgXjIpyoMBHOf1ovNZ82UT3a3UjSL/DGSQB2x2odOT6E0strp6xNAlEuIiGDIHBJ9sjNdBcRuPE18xDGOWF3U9iCo71xUurW4ZkEN07LgErCcH6VYHim6WAxBL7y9u3Hk9u/NNU2aVcur/ZR0nnQJFpXnQmSWSOPY5ONozTNWLw6ZcOhw0eosc+hxXLtrZdof3F8TAoCfueFAPGOaSXW5JY2jkgvmDyGUjyerHv1o9nJ9CI5XXTTcTutBdp9LhkkbJYsSfU5NX2XEgBAwe9cXpfiu3sdPit5bC/Zkzysfqauv4ytA+BY35I7eXz9aFB7HJUyvEOTtA6dI7tp9QFxaQQWUZUWkqS7nl653Dt0H501FBXvXLf8JtASc6dqGPdRx9aevjO2MY2aZqJPqUGP50+V9iquXV6jTjTsdRtGRmjHzE1yg8awMwA0zUMZxkoOKH8aW4bjTr8jpkIKOV9jH+ysT/KdbGAUUvJHGGYKu9gNx9BnqaAdrFWXBBwc1x8/ivS7n7L/AGloN5cm1lM0JZfuP60+TxzA0hkbS78FjnOzinys3llVZQi4xd+p0+pw/atPnhX77Llc9yOa6T4ParFcaJJp7HFxbOTtPdSc/oa8zXx3bbsjTb/PpsFZ8Xiq2XX4JNOjuNP1GRwFWTADsTwOKXK1qj1Mro18LJ+0jofUBHHFc5rOjR/b4buCEMXbZIgHXPf2rkbT4mXNsvl6rpMpkHG6I8Gm6h8QL/UIjFpdg0O8Y8xzkj/CqdZW21PZeLoxXNzEXi3ybX7Bo1q4eOzQmQ+rsR/9f869VtcNbRN6oP5V4h9kaK2ead8zE89+vv3r2zTm3WFuw6GNT+lFBWucWBxKxFapNbaFmiiiug9UKKKKACiiigAooooAKKKKACiiigAooooAKKKKACiiigAooooAKKKKACkNLQaAOD+JoylmMgcPyfqtcPZSt9iUM2/JYHnOeTXa/FAAx2g/2X/pXCWBC6dCAABz+HNcdT42fI55Jxq6Mr3Gk2FwpZ4sHr8pxzVddKtrSZJIbZGOc7n5I+ma1CwEY9aVnLld2Kk8eGLqR3eh5j4u1x18eQLKWlsREMwScqcg54/rWNqJ0b7Q5ttOURZyATnA9M074jHPjyPb2jFZbvCY5vMjd5mxsIbAT14711xWh97hVGVKMkugXF7p9uC/2GIKfRelVD4g00KFe0jwM4G3pUgtFut0e3c3QCq0nhdUcm5cwN2RsKSPUZqjptEVvEOnY+Wyi9ANntTT4hsB92zhzx/B0qN/DkATPntkDI5HNZjaOBy0jfSgOVGs3iOxII+xxjnj5aZ/wkVpjiziH1UHNZX9kKc/vc05NEV32iTn8KA5TU/4SW2AObKI8dNoxUs/iSzgciCCGVSvJEe3k9RWI2jxqSDIaBpUJGfNb8aAsaf/AAlFuv3bKIf8BFJ/wlEAxiyiBzn7orO/smEdZSB9aQaXBwfNIOfXigbRpP4sRgA1nEcdMqKj/wCEpRjkWcXXngVR/suDGTISfrSppUDkkS9CBy1ArF0eKgG+W0iz7gGg+LMA4tIs+yjrWf8A2ZbjIMnIODzThpltj/WdOp3UDsi4fFj54toufYU7/hMJB/y6w9PQf4VQ/s217yd8YzTl0y0zzJ/49QKxdHi+UY/0eLj/AGR/hR/wmVxni3iHGMgD/Cqf9nWfH7zPtupV06yB5bp1y1A9C5H4yuM48iPnjpkY/KpG8aXGUQwpsB5IA/wrOXTrLHMhB9mp39m2PJDg46jdzQGhoyeNLgyP5aLjPy8DPXucVA/i++SRjtRXzngD/CqjWFkACr8emelOk0yyVyDPHk+jdKALX/CbXy5wic9eBzj8KU+OdRfklc9elVP7Lsdm4zwjv9806PTdPJw0qfXcaALiePNSU7gcOQAen+FOPjzUxnDkMTknPWo4dM0gq2+4hBHbecn9Kspomj4/4+7cqfRm4pXHYP8AhYWr7SPMOP8APtSt8Q9Y2/69z2xmr/8AwiummxkvVmtmt4mCMwkOcnnGMZqqNF0Qls3dv1xj5s/Xp0phYryfEHWdqqLhyMZwe1H/AAsTWwAPPk46c9P0qc6DoxAIurc5OMAP/hT10HRQABd27ZychXOP0oEVG+IOsuxY3EuRxy1OHxF1vnF1KPfcaujQ9EX/AJeIAfeN+f0p/wDYuhqoJuoMegifikMzk+IeuKAqXUu303cUg+IOtjn7XKDn+9WomhaN/wA9kx/1wkp6aHomRmaPngbreSmIyf8AhYWt5ybqXufvHimjx9rHBF1KfU7q2v7E0XpvBI64tpKP7E0Q5y649fs780WAwz461gjm5kIz/eNNh8Z6q05aOWTzXwCQeT7VvroGjMwwTzjpauafHoekByUSTjkEWr0Ac+3jrWVJU3EoIPILHNN/4TfVh1mk9Qdxrov7C0jlgkpPXP2RzUn9haMoDbJTn0sn4oEcwPHOsL0uZAf9496H8b6sSB58mByMueK6IaTpBUt5MrEHhRaNzSnR9Mx/x7zFf732Nv05oGcyfGuq4A898em6mv4y1R/vTtjr8zGuoGkaUrDNvcHI6/ZD/KlOlaXkYtrhyf8Ap0NAHKnxjqhGDO+O3zGj/hMdTbjzmPpljXXQ6TpTbmazuSBwF+yHmkbStNXDfY7oeg+yEZ59aBHJnxbqUef9IJ56BjxTR4w1PGPObn0Y11x0mwUZFjdZ/u/ZcUg0yyjYN9gu1xzn7LQByH/CX6gWy0rZ/wB6nf8ACY6ntx57gegauuGm6cxGywu27kfZc1JFpFo7hY9Pui5OMfZuaBnJweN9RihuYyRJ5wVdzE5jAOflqH/hLtRJyXOTyeTiuuGnWLMVFhckjIP+jZ5p/wDZ1nyBp1368W9MRx6eL78D/WYwOm6mf8JfqH/PUkA+tdhJYW3P/Euusev2fpQbG3wuNOuTngYhGaQHIjxjqOABISPTdTf+Ev1HtIT9TXYrZW3J/s+4BH/TEc09bCAgY0263f8AXAcUDucX/wAJfqBYsZDzyeTTT4svw25pCxPGSa7M2UXONNutw/6ZClFmm8EaXcnPOfJFFgucb/wl+ornDn6ZNL/wmN+B989OOa7I2cbAZ0q668fulFKlrGDiPSrr2/diiwI4z/hMNS42ucjpyeKUeMtRySXyfrXZG26/8Sm6B7fIKUW2B82l3IGeoQUBocV/wl2oH7ufzOK0dL8TX9zKoZ2EfTINdfHoU9yjmDSZ5AFLMuVBxWU+jW+nWI6tfTv5jwqvywD+7uPU/lQAf2hdht3nMcnoWqPTbkzeJtIeVizfbIySep59aT7NIfvKAO1RWatFrmmN2F1Hn3+ak9iJfCz6IZslgehoUnOAMCmMcs/uaFI4wK5ep+cTqS5mri3X/HnPkZ4H869Y0Jt2kWZ/6ZL/ACryW6P+hXGeoXj869V8MnOg2XH/ACyX+Va09z6TIHfmNaiiitz6UKKKKACiiigAooooAKKKKACiiigAooooAKKKKACiiigAooooAKKKKACg0UhoA89+KR4tgOoRj+oriLI7dOiJHHP867b4pYxbDttOfzriLM/8S6HGD1/HmuSp8TPj8+0qEhwUByBSOcBcnHpTWGE+bFMuCSvpxWWp4MI3Z5F8Q2B8fqVO5REuSO/FZBjZ5yeg960/G6f8ViuecQ55PtVVeDyRkYFd0Nkfo+F/gx9ESxfuCHXqpzurcm8QC5tjDeWNnOpGA0iAsv0NYXXOeAahnljhXdM6ovqTTNy/mx/58oc/WgiyPSzhz2zWIdZslztkUn+VA16zDAeYMfSgDZb7Dxiyi46mh2sQP+PGI/pWM2v2Oz75OD6U3+37H/npxjsKAubY+wuRmyjx24p26xJB+xQ4HUVhf8JDYrkbmPOQdtNPiOwHQt+VFhm75ljk/wCgxEE8cdKDJZKONPg69SKw/wDhJLHJIZgPTbUbeJrLdkbzj2osI3x9h3f8g+2bt93rTCLJQf8AiXW/TPSsP/hJrMt9x8deKRvFFnx8kmO/AosBuN9kCANpttnOc7aeXtNoB0+1xkH7tc+PFNpzlJPwApp8VWmB+6kyOnIoGdIk0CjalhaAehSmM9pLuA062XHcJ1rATxZaAjMLE+5om8UWiyvsjk6+ooA6JXtlGBp1qDnqUzSyNatwthagHrhOhrmT4sti2TA/5imjxZbj70Dn8aAOl/0YYC2VttAxjy6lWS2RgP7Os25yFKZBrlf+EutzgmB/++hzQ3i22PIgcH2IoEdU08DMCmnWgI7CPGaV7hGS3RbK1UQ52gRj1zz61ybeLbckfunx3+YVPN4ptEt4ZIgXkYncmeU9PrQM6NbhDKJGsrZpMls+UP5VIl4B5v8AolsWkbJJhGRXIf8ACXxA5W3b/vqg+MYj0t2z/v8ASiwjvLXWGt4BGlpacHqYBkVeTxVcwyh0srPp0a3WvND4yQ4xbk+xamjxgq8C25zn79Fh3PUU8Z3gXAs7Mc55gFPXxpfAoVtbMbRhcQrgV5X/AMJiD/y65+rUf8JjzzbDPs1Fguetv8QNUdPLEFqqng/ul5qNPHepxAKsFsMcD9yv8q8oXxhnObXj03UHxjkcWvbn5qLAeut8QNWYbyluXH/TEUw+P9U5DxwEHj/UrXkg8YncSLUA+m44pR4ycDBtkYdvmPFFgPYl+IOs7RGvkhR6RikHxA1gHLCIgYH+qAxXjn/CZSD/AJdlz1znNKPGU23i3XPrk07CPYm+IGruWyITzxiMcf401fHesAHIgCk9owK8cHjGfJ/cJn2J/lSnxhcHH7lcHtzQB7CfHer7gcRhhzwgFLH481ZS2SuTgcKBXjv/AAmFxni3XP40v/CY3OMG3Q/nxQB6+fHGrl2JYA55wOtN/wCE31gEgMMH0UCvI/8AhMbk9bdf1px8ZzkBTaqMe5oA9VbxjqhOQ46HGFFL/wAJdqu4MWVmOMHANeUf8JjcZH+ijj60f8Jlc4GLVcDvzS1A9UPi7U2IO4e/Apf+Eq1Nhww/75ryo+MLjaP9EU9+9IPF91gAWyj86YHqo8VajuHIyDnkZzR/wlGoYIyCSckEV5WfGN3xi1Uj05preL7s522oGfXJxQB6qPFGoAYO0c+lI3ifUQCN45615WPF92OfswOPY05fF95zi1HseaLAepHxLqAzyuCMHtTR4j1BupBOK8u/4S+8AOLVcEYzg5o/4S++xn7MM9jg0AeoHxDqAIxtUdegFIfEF+eC3Dc4rzA+L77P/HsB7YNB8X3wP/HuCM5xg5oQHqB12/xtJUc84FJ/b99ntj1wK8vPi+/GcW+AfVTSv4uvzndbgHHXBoA9Q/t+95OR69BSNr18Mc4PbAFeXL4uvk5NuPxBobxbfcf6MPxBosB6iNfvgcAgA+oFB8QX5GA+ccdua8uPi6+z/wAe+Mj0NIPFt+vIgOQOuDQB6l/b9+dwGD6dOKT+374IASCTXl6+L77IBt/xwacvjC9wQbb9DRqB6Z/bd9ggyNj8KhOtXuSDI2OwFec/8Jhed7UY/EUv/CX3IJ3WozzgDPFAHo765eNEy+a6A8fLwaypZWaQkjJPXPeuUtPFyPIEuoCme4/rXTKyyRK0b7lIBGOaQxXwVOCB2zWd9zUbJgelzGef96tE/KMLwD3NZl8gEsRJxiZM/wDfVAmrpo+gxDM7NthlK9RhDz+lWI7K7OP9FuM+vln/AAr1y0C/Z4SBxsH8qnwPSsvYrc+ffD9JycnJnj9zp941pOotZy7KQAIz/hXovhZimkW1u6SLJFGoIZSMcVtYHpRtHpVxgo7HoYPL4YS7g9xaKKKs9AKKKKACiiigAooooAKKKKACiiigAooooAKKKKACiiigAooooAKKKKACkNLTWoA86+KZP7gZ/g/qa4i1b/QIT6A12vxROZLcH/nn/U1xFsdthECOx/nXHU+I+Pz7+KyQgFAT0HaklOSBwF65pDgpzjHpUb4Y8kAis7njU0eTePG2eM84/wCWIrMhIdmOR161oeOOfGjgc7YKoQoqoAe4613R2R+h4b+FH0RYQjPPXuDXPatHLqV+0KnZFFwSOcmtjHzckkE1HZIPOuTx/rDzVxV2bXsZC6DB/tn3zTj4fthjKuQeOv8AWuj25OAOg57UFd2DnjqB2FbKkyOc50aDbEcq3/fRzTv7Btu6ds8dq3scZA+p6UmAM4wfamqT2DmMJdCtccxg/Uk04aDagA+WvHNb23jJ/LFGzLYwMU3RaDnRgjQrQ9YgPbJpf7Ctc/6lc45JBrdKt3bPNKVwSMgjHXFCosOcwxoVttAMSYPPGc006LakkeSvH+zW8EOOCopNhw+fxpqgw5zD/sa04/cIDj07046JaY4hTP0rcxtJxxxSbcJw3ej2DDnMUaPaYBEKZHQYpZNItXYnyEBySeK2lT72OMAYGKFTO3kZ9hR7FhzGH/Y9tn/UR9Ou2nDSbbH+oT/vnrW0y8HIHpzQseMYxjFL2Goc5jHSbfP+ojwf9mhdJtwcCFMDj7ozWyUXaN3c+tHlgZ547VTou4c6MdtKtw2PITGP7opRpUGcGFMH/ZFawQHaSx+lKF4bnp70vYsFNGU2l2+CTEnI4+UUg0yA8+THz/s1q7Ohz+tBTGOgB4FNUegc5mDTYecxR/8AfIp39nQZyIkJH+yK0toy3QYHrQBxjuelH1dhzmcdOhCn90g9topP7Nh6iNAM/wB0Vpbdo6YpwTjGc+3pR7BoOYzBp0PIMS/l1pf7OhGT5YH4CtFRgA8nPfNKQBn5uP60/q4c5m/YYmOGjXJ/2RThZxZGI198KK0FXJJPXPNLt54xj160vYWYlMz1sYyPuL+VO+yRkD5FPbpV05PTApQpzj1GB2o9gHOUktI8/cXPXoKDYx8/KOD6VeK4O7b3xTtmGxn8qr2Fg5zP+yIuAFUY6HFKlmvPygfQVewcZ70BeR29s1P1cfOU/sSddo9wRSCzQDOAcfyq+QASevPOaCi9B1HFNYdhzlA2iED5QPoKd9lUgEqDir2OW9e1OPOaHQEpGetmoXlBjoOKBZqSOAD2OK0MjjIyfc0m0AHBzSVEfOij9kBIJA5A5pxswcYXknp2q6Rg/wB6l45z3x0o9gLmKIs+QCB9BS/ZF2kEDOAKuD5QDnkDvQAOOcn34o9gPnKZtAc/LnjnNH2NWHKjIz1q53JUdOtAIyD6E5Jo+rhzlI2qYGFpfsq9AOfpVwDsePb1oPDDJznuKPYsOYp/ZExkDjOaT7InA7GreN2MnHrSgYIywz0FL2DDmKQtkUFgvtQbZC2CCfwq6w+XAP1oAyw+YfWn7HQOYpfZVByOvr3oFqinOOvNXeoBbntTfuqevJpKhcOYqLaIeB3PINJ9kTZ90cHAAq7sAIGecfhSkdxye+aXsB8xTNmhYghcYpv2NMKQFGeP0rQKgMQVz0NJjhcjrx9fak6Vg5jA1XR4rmJl2gN2YcEGpPCshOlKkh+aNipPrg1rTocN8o6dDWJ4cbbDcJ6XDisJKw0zcPPGdwrL1ghYndT90g+/WtMdQT1B4rJ1sf6PMDwMfnUlI+6NKbfptm/96FD/AOO1brL8MP5nh3S367rWI/8AjorUpiCmPjuM80+obmXyonfGSozigCaiiigAooooAKKKKACiiigAooooAKKKKACiiigAooooAKKKKACiiigAooooAKYxA60+o2JBoA84+KB/0mAZ48sfzNcUmWtIto3ZXOa7H4pk/aIv+uXT8TXIwLiwgzx8vArjqfEfI50uaqxgUKopkwAxgc4qUgbRkGopBk8ZqGeTFWPLvFFsk/iq/cvgxRIuPc1l4KrhRWt4sZk8T3mQSDGnyisknA98V2Q+FH3mFd6MW+yGEZIwPrzUdguTcH/pqeMVIw55OOfyqPTj/r8/89Dn1ropK8jaWxeAG44POOtK2MDg9DyaUYYkc5xSgbgNwr0oxOe4wr2IOB60u0AgFfrTlGQecfrSkDPBz/OnyivYjWNckYxnrTsAHAH/ANenEgfXrRu6A0coDdi7fu9etCqoGCP0p+CCMjjsKB35/KnyhcaUXk4H40m1eMg81IMggHOPpQMM2cn8B0pcoXGbBuyVOKUopzkfWnDO72JzTux4JzVKIuYi2gHhelKVXAOBk0pOGzS8ZBzz0x2osHNYYY1HalKLj7vGO1PXhcZJpSOuM/4UrDuRbRkFhjijaMY2mnjGcZPSnY9/fNUkOLI9mAcLS7RjAXjH1p3brjPr3pD17j2o5Quuo0KuAcHFKFGPmX35p+O4yf6UgAyOScntyaLCuN2gcYz60rKAfmXjFPUZz6UDnnJPBFLlHcjKArkin7QB0yBTiOp5+poPfg4zT5Q5hhUFshacFHccUvBPUjHtmj25o5RX1uIFHUDA70eWM/d/KnkAE4zjPU0igc4z/OiwJsbgDnbx6Uoxngc+9OT1Oc9OaVe/J64NCigGiPqcdeaVl4Hceo4pRwR1+hpcEnGDjuKGhjdqg9MUuOeme+aUYwM0vOcdPep5R3GFcdFB9acE6AqM0NjkEE96Vf1qlEVxFj/Wk25AAH1qUAKCSCQKT255/SpaC4wplfug9zQq8HjPbIp7LxjoKMYPGQAKfKFxpVR+fajZtBIB5py8HkEjtilP3eTyOcU7IOYaF/2RRjnjr/KnAegOfelJyBweKVguMC4XhQMH8qTZnPAPtTyODkd6QgknrmhJLcLiAfLnAGKRRkdB9afjngE+tA65A4NLlQcwwpx0yAOfahVyu4jpTiv50LgdyfrTUAuN2lsZH05o2/Lg4zTgOcY6e9IcjHBNHIgGFSM/KKXacj37jtTmAIJ20p5AGOvajlC4wJggY4pHG1Sf0qToMHOOKa+CvQnHFTyBzWG7Ru703GVHJzn8qkG7Of0pMHA6YBqZRKUivMuVkIJ/+tWDoW5bi+VfmKzt+tdFLkq2R2rndHJXUNRHOPNBHvxXBWRrFm2pIABHPc1na0v+iTgHGV9OtaCkFcE9u9VNSUyRGNcZZSMk4A9/pXOWfZvgdzJ4P0R/W0i/9BFbtcx8NJPN8A+H3znNlF/6DXT0wCkxmlpkjBFZmOABkn0oAfRTUYMAynIPQ06gAooooAKKKKACiiigAooooAKKKKACiiigAooooAKKKKACiiigAooooAD0qJqkY4qInikwPM/ii2LyIDr5X9TXIwnFnCuT9wV1fxQ/4/4h/wBMhj9a5VBmzhbk5QVyT3Pks4/isTkgbs0yY5PSpGGVHUVBIw3EZNQeTE8y8WN/xU13knIjTr3rJJGeB+tafirnxNecdESs0fLjoD6V2w+FH3eE/gx9EMLZ285qPTckT8HmQ8+hp5UbwehBpum8+cQTgyEYroo/EbS2L3XAJOQM8+tLkg/MwFMBbA/pTz05UCvTWhzMeMEnkUmOACQO9ITxkDg9fal6Hkc1VuohxJIx1H8qTtwcYFIQwGBj6il9WGOOKBCnoMHg9qMkjI45xzzSHBPTJoI9MY9PWmgsL0yc4z7UgJXnNL19vrRyDz6cUBYQZwBuP8qcBx2x1pMFiCAKUdeQKXUYEcjngfpS/LzyQfX1pCR1IH0o5xg8mmTYAcHk9f1pxPr+FNGcjgZzSEdcnr0FA7igkdD35OKX6E8dBSAcgdM+9KBtGCO9MLsTpyME+wpSSQMkZHtRgg/w8HrR68gj6daAuL1IBPv9KTqRz9aD26Ajr70h6dBRYY7gAnOcUuMEYbPHX0pM7cYNIuevGMUCYq9Tz+FKRjgnjPQUgI284FLz049aOowY4IwaMknk9fSkGe5ApVORxgHNNBuKDjA5zSqODg8ZppzwOMU4cg5P5dqW4XAdBz2peuCT9OKTqeOhPWlzjgYwOlFgFBwxycikznB5yentSjJ9PxpCfz/lQA4dOMH3pc9iaaW59zQCRjoD296NQuKWxySMdKFOcAgGhuMnIzS+g4HqadhPRi5yOCce9C4x/nig5IABB5xS/eBGRg9aQw/HA74pASR1o5GQCOKF4IzjntTsFxNxzyM+1OxnODgUEkYB/P0o5+YE8ClYVxE6A5zn1pSSOAScUqnvnj2o+uM0D6B1780mdoIxj2oPXH86QcZwaLAKDznP0xRzu6kfSkU98gfpQT97nilsFwyPm5Io5zxxxSnODtI9aaMHOOAP1qkK6FwMDrRjkqW5H60g4A+bP4UuMZG7GaLDTA8k8nGKFHoce1GeMZAo5O3pz1pWYNgevGTnv6UhACHk5HpTtxwSeTSMPvbWxjmiwK43HzABexNIcdMc5p3pg8BaiLHnB4z+dSyrhLzu+XnGK5vTgBq+oqDxuQ4/A10RJ2MSTn+dc9ZMU12+AzyEz+tediEbwNoltvCDr3qrfEbMEeoAPerbNuIHJ4qnektGQQPumuQ0Prr4RuZPhv4dOc4tEGfpXYVwnwQbd8LvD2O1vj9TXd0xBUc8QljdGzhgQce9SUUARwxiJERRhVGAPpxUlFFABRRRQAUUUUAFFFFABRRRQAUUUUAFFFFABRRRQAUUUUAFFFFABRRRQAjVC/XNSt71E3PFJgeX/FAkainOP3QP6muXj4tYNx52Cul+KJ/4mQAHHlLz+JrmYzm2hJA+6BXJPc+Szh/vmOk+VetVJDhgefxFWXJKrk4FQSfMevAqGeSjy7xVn/hJbsHkqqAflWbzgkjFaXign/hJb3dwMJ/I1mD1B/Cu2Hwo+8wv8GPohMZYA/nTNP8AuzbgT+8PFKxOcc8ntTNPOUm5ABc8Cuih8RrPY0N244xjFAxkDBJ9aQFdw54x+dKOVBB/GvTRzDg3ouKDg/dJoA+bkn60Y6djV2EwBBUEjPNLuDc44x06UHAPXv1pCMkgZx6mmFhV4I4OSKdnkbRSAgY5Jx6UoHzYXNIQDHPBNCnGBgnHNI3fB/Ol2jOcnGMUAKrkY45J70bu2D/jSEjqASB2FLjIHXjmgYFs5+XJFAx93pmm4wD1Geee9OGCD296fUQmQOOSDSnB3ZHHrTTj3GPXvTiAAeucZpPQBc84wcAUgbPOMA80cZ70YAOefXnvVLQBS/DcY7ZNNyDkN27ntRgZOe9HGeppBdi5Axxx2JpdxYAlT14zSADscmkAUDHJx0+tFwHE/eJH/wBak4GARjvSqAQRyQepHejgEjk8UALuOMFRyeKAcKRtNJjOOp7YNAUZPamArEY5GcUL2460EDdznpz7UAj8RQCHEggjbgdaFYAMCKbwOPXkUqhcH1oYx27B6ds5pfQ44z0pvy5GQ2KCMnvjNKwDi/UFehoYnJBHIpNoyepxzil+XJxk8dqYWDP+zx2NCHjhQfag4K4Oce3ajAOABQIVudx2gAep6Uo4PI/+vTRtA5B59KCMnvRcGODZIJHel3c/dOPekUjAIU496XAAPU9/SkMDlieM4GaVScrx7imnngdfbvQOCePxqhMcCQBkcGkyMsSOO9KADjgnnpmgkENjv3/+tSYC5O4cDp19aVT0z36GkxyDt9uaQKABj1496VgAMeDilzzwORzSEL/Fx60HHQqcnjH/ANemMN2e2Se9BI4OO/AoABxgHnpilAHbofWgQ0HIOfXGaAcEAgD3zSrj0ye5pNgK/NkY5oCwZyBkdemaVSQM8cUu0DGB196bxzxQwFzkHAHuKUZJ5644pG6kdQRQMLwBjtg8UwuGcADGB0pGI5PHt70rADsSM5FA9wMmpC4LkkA46VEy9TnvUjHpxxnrSk/Ljbx9eaiQyEgorLwQRXOQZTxDeDGcop610jY6hcfjXOxgf8JJcc4HlKR+dcGIN6ZtYPlLJvAy2No+99fpVS8+7uHX2qfOB+tV7jJAJGPx61xmx9UfAR9/ws0P2jYf+PGvQq81/Z5fd8LtMGfuvIPp85r0qmIKKKKACijNFABRRRQAUUUUAFFFFABRRRQAUUUUAFFFFABRRRQAUUUUAFFFFABRRRQAjdKhP1qV844qFu9IDy34oN/xMsf9Ml/rXMxjEEWOuwZP4V0nxOy2p44z5aj+dc3H/qIT/sD+VcktZM+Rzf8AjMST5goJ61XkyH4OeKlfOMHn0qKQHf16io3PLW55b4nP/FR32epCfyNZpbAwOvetHxMf+Kkv+g4QfoazOQwBHPrXbDZH3eF/gx9EGRlfQHqaTTj8kpH/AD0Ofzo4Dj65wabpozHJyeZDx+PrXRQ+I1nsaAHzggYpy5CgHFMjOcE56c+9OHIHyn2r1I7HMKCcYPHHrS9QPmz6ikAw5P604ZHXGe9UAqjqcjGeMUmTk5I2ijtgAD3pR93A54pCEJ+UY+b3NO5DdKTnOOM+lLnnj8aYByck4PY0nIP3j6cUp654NIuT93HNAhc8AE59qM/NxyaRTz05FLyB2pABJyOmcc0pPzDOOvWgkk4XBpMEgg4z61QCnp1xRnGP503H3ielHAGOtAxx6Yz9M9qMnoetJyCM4zjmlBOBjFJMaAkjODyMUhGCxPGeKTJ/XkUpPI4FD1BC84+npR6YPNITkcfSjpwMY7UCQ5eeSwwOSaTdgjB+XvxSEngZGc8UqnI5/AUbbgOJ460cjP8AnFMbIIBxz1zS5OD0pitYXqM5x6UoOByfypMncDnj3pAMDggd6ZSJCeAcgdqaTjOTz0zSZ25pTnHIGaBbi5GFznnilJOT/jSZ2gH9aF6ZXGPWgNh2eTuJyeTilbIb04pmewxml4HXvQFxy5xjPHWgemeDSAnPBoJG0jv6+lIQ7OTknt6UgAyMMcdqTOF5PsaRTgnoe/0p2AkXpxkClycZB6etMHTnHSndxkjPXpQDA8Hg0DsOopASepHsMUueBnoaAuKVwcGlyPXp3pmQSfTtSknpmgAU89TzTjkA84IpucnORxxShs8D73Whi3FXg4I/GgsMACkycmhieOQM9vakCFUnAzmgHtnrTTxjJ6UZ64HGaYxx5I7HpSZ6ZOR9KVjzhiOlNX73XbTEO5yeSPpQGIU56mkB/wBokUoxnrx9OaBDWwMfMemMU/HGSaYQSOvH86c27uQeKkYZPHtSnPOSfagEjIBFNbkg5GTQwDJ7sfpRwccntgUDKgENnApDkLk8iokVsISQTg5Ga5hiB4kkPOGhGB+NdKeCMEbTXNT5HiTkgZg4HbrXDiNjambBIBGf1qC5OVwQeeKmz+fQVBeNtjAbHXpXEbH0x+zc5f4Z2oJztnlH/jxr1OvJv2aZA/w4QA9LuUHjHfNes0wCiiigBBS0gpaACiiigAooooAKKKKACiiigAooooAKKKKACiiigAooooAKKKKACiig0AMeo271IeOlRPxSBHlHxNP/ABNW/wCua5Fc4RiCPOD8g/lW/wDE0/8AE1fH9wfyrnycxIfRQMVxy+JnyGbfxmMYkjC4qN8huDUrDIAAHJqB8BuO/FTc8yO55X4mJ/4SXUB1ztz7cVQ5wRkelTaoS/jLUwcEM2cD2FQZAUkAc12xWiPvKCtTivJDQwDYIyaNMJETgYzvOfbmkP3hj8qdpv8AqW+XGXYE/jXRQ+IqpsX1wDtyMHjHpSjJA+bvSKPRe3elHVeB1xjvXppnOxVyc457+lLtAX3PIpBgf7PtQCN3Dc981QJjhwcjJOeKRcEnABpQRkZPP6Um4ZPPpSQuopxkFV49aD+RzxRuG4fNk+1IMLyT1pg2K2M7T9aBww45x3pAUPBHbikLBSDzQMecggYBzQW65Az1xTCcdO/rS5U+uTTJBjyO+B1oGPlbHtTTjnB6cZp4YAjBIzzimO2ooGVAPJoGcZA56U0EBfTPekBxnkfWkhjlySeAB9etLjoBTQQDnJ574pdyr7k0guLjqSppM9PlBHcUbuME9KCQeCefp2qtg0FXp0/Cj0BBFJuH9RgUBhg9SDS8xPyH8fWgA/3RTQRz1wKMgYwcdcVVhodnB4Xik5JOeKQEZ7/1NBKknOaQDyOnegfdPGfrTdw6HORSfKcYyPrSaAd7EcAd+9OUnbnGPQU0kDn86MhhxnNUAu3kcAfSlQZ+o54pgZexP407zF3Y78ckUgHDpkD6Up59CKZvXPOTn8KUlQO+aYkKmc4wKDk/dxmkJBxx70uVwM80kwFxx6Y6Uo9eM0gYYJwee1AILgdPrTFcUEkkgYpdpPGOnHFNDDAGM+vFAYEH72TQh3HkY4AzxSjkHimA9+TxigOCMc4PFDEPA7dPrQeCMED29aaTjqCSenFIpB4IJHrRsCYvcegp4B54we9RgEnkH8O1KT/dyRRcEO7YAGBSH1AHP4UwMuGDA7aeDuYYBx707EtgBxjgetOHJz0PrTQfbnPpSjBJGCB6UnoCYoPJ6ZpAcHgjj9aQFcYwcUnAXOD+NAuYcOM5XinH1H50xmwMEYPXBoJ45Bx0oHcUg9hxS5IXnHHSkHHOCMd+1JuyeAQe2aAuOPI5wD9aOR6fTHNNyMk4zzge/rRu45BJpMaYqk7fu4BpPmAbsKOeSc80dOc8kVMikMccKe4/Cuauh/xUgHH+p+neujI4yDmucvAP+EiiJ7xH/wBCrgxBvTNcHK8gVDc4MfQEe9SqTtGPT6VBcnEY4HXiuI3R9GfswtnwFcrn7t9KP5V7DXi37LjA+C9RUHOL9/8A0EV7TTEwooooAjSRXJ2kEA4OPWpBUEMKxbggxuYsfqanFIAooopgFFFFABRRRQAUUUUAFFFFABRRRQAUUUUAFFFFABRRRQAUGig0AMaoZKlY1C9IDyT4lt/xOJB3CKRj6CuekU+XGegCDH5VvfEsg6xKD/dH8hWDJIFSLcSMqAB+FcUviZ8dmv8AGYzkAEg0yQgHpx0p5BwCOM1G/wAucg5xSPPjujyDVW/4rDUSPUioecDBGRU2qSbPFeo4wQw9Kqknjk/hXdHY+9pfAhxbDDrT9PG2FiDyHOR+NQOucNzx6Vo2sCSR5hdfNJyyMcflW1JpS1HUV0Sgru+91FAYYxnHPTNIsLKSMHHril2Ec4POOMV6CnHucrgxSRk9waDnAPT69qTbyfvfTFJgkdGI+lXzx7itLsOz1IGM9aByQAMDpSDOB8h9uKOSSSrAn24pqpG+4WYvIxkZPoKUn7w7jnNIc9lOPYU6SN42/exurEA4I7Gj2ke41FiMSMDIx60pOSOfwqPJP8P6UoU7uFbnpgZo9pHuPlYvfDcim855wPSnHdt+6ceuOtB3FQNpJPoKOddw5WAGXBYHOfWhTtGR0pSGBXIcEHj5e1GG6FW56fLim5x7j5WIMAEHrijAI7seKGR1+8j89Bto2vn7jdj0qfaR7i5WGcDocHPWlBBGDxSbJgcGN+PagJIWGEck+gp+0j3HZikj1xSDA7HOe9PkgmTaGif05FAt7jHMMn/fNP2ke4uVifwt1NG73571IlndMSot5dwHpQtncMRsgfnjp1pe0j3HysiPIxz60pwQCOD/ACqYWlyVOIXwOc46UpsLsH/j3cHOBnFP2sO4nFlcNjj8aXJ56g9asDT7zLD7M5A68gYpRpl8yti2c546j/Gk6sO4KLKmSFwcDFKOQNrdOP8AJq02l3uebdiN2MZHJ/OnjSb7H/Huwz0y6/40/aw7j5WykvABJ60biAOeKvf2Tfhc+QcHj7y/40DSr3keTyP9tf8AGj2sO4crKa4JHFKG59/erR0q/BAMIHH/AD0X/GlfSrxTyiD/ALaKf60e1h3BxZWH8XQUgzgjFWxpt0cfInPOTKv+NH2CcgjagA55lX/Gl7WPcnlZVPqPXk0gzyR0qybGbIOYsD/pouM/nSfY5t+FaJuecSr/AI0/aw7hysgUntxTiT1bAxUotpS2N0OT381f8aatszH/AFkHqSJV/wAaPaw7hyS7DS5wpHQcjNMVixOCMmpltjjiW3OB3lUf1ppjwwAmgJxk4lU4pe2h3E4S7CBu5A4oLEKxyOvHtS+WFyTPbjtzKBSOiAAme2wemJRR7aHcahLsL5gzkDBxnigt046frSbV+XM9sPYyihTGeftFtz6yij21PuPkl2DedpI/KnB+QenJyajzEG2/abVee8opzGFQQLq2JH/TQfnR7an3JVOXYcCQDjvSg/N17Y4HWovOtsZN5a47ASDNHnWw4+2Wvv8AvKXt4LqPkl2Jc5UHIwKGztPOPwqI3FsNxF3bnHo9DXVnk/6Zbcer0e3h3J9nLsTckjOM+1GSMknjpUP2uzIYm6gx1B39aDd2uMm7g/Ak0vrEO4vZy7E5JyfT19abzxzx6dKha+s1HzXMYHbNH22zKlhdRdegB/nS+sU+4/ZTJ8knk4PPGKPQY/E1AL61J/4+FI9waRr6ywSLpeDxhDzR9Zh3H7KfYsHGePypM7iSM81UOo2hzickHkEof5Uh1GyUDM7c+iUniYdx+ymXG4AX174puTkdc9hVY6jaFQfObB4/1ZpwvbRgMzP9NnBqXiIdzRUpdSSQ8AED1NYc8Bl1l5lyUhiwx92PA/Q1si6tiD88vtgY57VXuZjOkcSrsjjJwoHUnufU/wCFclWqpLQ1hGxEjZA4IIGM02fc0fA/SlPHSmzyEpj6cVy3NT379l1mPhbV0P8ABfce3yivbxXhf7LD/wDEi16P+7dqcfVa90poTCiiimBEjEs3scVKKgjVg75Octx7VNnFIBaKKKYBRRRQAUUUUAFFFFABRRRQAUUUUAFFFFABRRRQAUUUUAFI1LQfagCFh61G/tzUjc1E/TAqWB4/8Ssf2zOe+0Z/IVgzKHEZPO0Aj24re+IxH9s3H4fyFYzgBFye3SuOW7Pjs1f76RAD8gAyTTJBulVS2ATU7cAEdRVeXG456npikefB+8eO6uD/AMJfqKg8byM+oqIng80/UDv8U6gT90sce3NRv0yoz2xXctj76l8CFDE8DjikkKg9e3rWLqE9xJMVTO1eBtPWsh55RkMxzQaXOrcS53LOQO4DVWLXuSUlb6b+BXN+dJ0LGk8+UfxEfjQB0X+nlsmY47ENSY1DAHmsB67q57z5OzfrSefLn77D8adxWOiaLUuf3z4J/vdKNl+Sf30mT/t5rnTcS5wXbA4xmk8+XON7D8aQWOjMeoAYM7nPq9NI1E/enc/V654zyf3zn1zS/aJv7x46c0BY6Ax6jkDzm/B8Yo8jUGyBMcE5J3Vz/nyknLn8+aaJ5geJD+dCYWOgMWoBhmaQDt89DQajyDK7e++sDz5P77fnSefLz8x/OgLHQGLU9o/fSEf79Bh1LbgvJn0L/wBa58TTYGHIz70G4myTvYfjQOx0P2fUXB3XEpPZTJTRa6iPuzuD7PXPebJj7x/Ok8+Tu5x9aWorHRiDUQRmcY77pKRrW/bpKFX/AGZOv61zvmvnBY8e9HmPxyeKaY7HRC01AAnz2/7+cfzo+z37cCfbx2k6/rXNmV+Dk/nRvkx1JoCx0n2TUcf8fHTsZP8A69M+x3wJBnGSMDMvSudDtxySKBJJg4J60BY6IWF4Rj7QMe0tJ9iun6XScf8ATSufZ5OmT7YpN745JNAWOg+wXIz/AKSpx28ylGnXABzcRg/9dK55mk96AXPI3fUUDsdEumXDEbbmMnry/Slj0u4Y7ftcXQ8mTFc4DIQSoPHUdM08mQ9N547igDoRpU+5R9qiAPUl+BSNpUqsQbmMn03cVzv73A4b60rNOxzhjn2oA6BtMk+6LiDOMcPQumNzm7txj/arn9sx/gf8ulAEvQq2fpQKx0Q0vH3rm3b2LUh0td3N1bjsDurnQs/GFf8AKgpN/cb8qAsdGNPXy/8Aj9hGeuWpDp8TMA15BnoM1z4iuG/5Zyc9ODR5U7HHlsfwoCx0Q0+PBH2uAr6A0n2GEEn7bBXPmG4z/q369NtIYLnABikAPTK9aAOmWztnHzX0XHpxTRZWykBb6D8R96ucNtdD/ljJj6Uv2e5HHkycf7Jo9BnSrZ2pBD3kI9hTVtbFSS18hFc6LW6IyIJM9T8tAtbtv+WMn/fNHqKx0gtLLPF1ESaQQWfa8RcHrXO/ZLw9IJMf7tBtLsf8sJMf7tAzpTFYFQTdpu9qQw6f/wA/iDjvXOCyvSP+PeTj2oFleZ/1EvPtRqB0ghsADi9X+QNLjTwOLpR9BXNCxvCCBBLn0xTjY3uDmGQY9qNxWOkH9nHIa7GfTHP50udOUnF0Meu3pXNf2df4ybeTH0pV069PSGTnpS1Cx0JOnYI+0kZOKUTacq8XL46EYrnRpt6Sf3LmnLpl+V/1L+nagZ0Sz6eBxctx220gvNPPH2hv++etc9/ZV/yPJfj6Zo/sm97wv+lGorHRm9sP+exz9KY13YDrKxPQcdKwTpN93hP5ikGlX3IETevJo1GdC19YgA+YSc9u1OXULJWwJG+uK5z+yb3/AJ5nn3pTpF6Mfu+f96gLI6D+0LFc/MxGeeKcNSsRgFyB64rnDpV7jJjI+rUo0e9xkxgj/epgdWupWSqDvDeoFLHqtpKQqybT7965M6TejGUz0yc01rC6hKs6kISOQcgfWgLI7sEZO0jGeBUVwc7ciqOkQ7ISrBg6nnJq5crmMdRQB7l+yrIDD4mjB4E0Lfmpr6BFfLf7P/iO30CXXfPimkNw0QVYxk/KDn+Yr26H4gWB62l6Pfy6V7MTO2FFcknjmwY8wXaj1Mf/ANerUXiyzl+5FcH/AID1p8yFY3FfdIyg/dOD+VSqOTVaznFxAkwR03jO1xgj61ZzQA6igUUwCiiigAooooAKKKKACiiigAooooAKKKKACiiigAooooAKRqWkY0ARuPSomPWpHJNRt3qWNHjnxGP/ABObgHrwB7cCsiZjhTk4x/hWt8Q+NcuTnjP9BWTIc49MDBrjluz4vNP40hkm3AqvNycH+VTSHGMdfeoGYFjuPGOcUjih8SPGtXKp4m1DB+ffwMcVFvBGXOG9M1V8RT+V4h1F2x/rTx61lf2oQ+7Ga7VsffU/gR2Ok6Ot1iJMCRz1z696r6z4aisrl45EklcH78Cblb8a57/hIHQERLtBPrzikHiO4xxgcc89aZZqf2Ui/dsLg46/us0DS1wB9hn+vlCsv/hJbkLjecfWk/4SW5wOcH1zQBq/2YvQ2E6/9sh/jQdLQAj7BP8A9+xmsj/hJLgj5u/vSnxHc46k496ANb+zUPH2Gf8A79inHTUJBGnzf9+waxf+EiuSxw3Hfk0p8R3AXr/OgRs/2UoOf7PuD3HyCj+yyRn7BN+CrWMPEdzgZH4Zo/4SS4B6kfjQM2v7IwATps578quKU6ZkZGnzYHX5VrDPiO545J/GhfEdwAOTn1zQFzb/ALL+X/kHTY+i5FKukSOBtsJ2GcDAWsI+Ipz/APWJpT4juOQM5zQBvjR5s4/s+Y9uQuKU6LI3P9mzHjrla50+Ibk9f1oHiK5xwSR0xk0BY6UaLMxx/ZkpOO7JR/YU69dMlx67krmv+EkuRnaSePyoXxHdZ3HkehNAHS/2HMVyNMlYdzvQYpw0G4wD/ZsuM4yXSuXPiO5LZ5z35pW8R3eBkk8Y+lAHUroM7HP9nScc8yx5px8N3XU6c4J/6bR5FcgPEVz7/WnDxHd5Pqe9AHZx+GrrAb+zZCAcZ+0R8fT/ABpH8NTqqN/Z0gDnjNxHkn+lcX/wkV0GG7nnpkimnxBdt2PqOaB2O4j8MTFgjWDBh3F1HjP5U5fDMzgg2bOFOMfa4x1/CuF/t66OMjJ7Uh167z06+tJgd+fDJClWsCJBxxeR4/lUw8LMDkWQ9wb6Pr+Vec/29cnjbR/bt0BgADnqOtF2B6OfCbAAmxTJGeNQjGP0pT4ZYJvFkpJOOdQj/wAK81Ot3ZYEnI9CM0v9t3Xpz3o1Cx6Y3hRyVAs4icZx/aUeP5UN4WkWQR/ZLdSRkk6muPzxXmh1y67KP5Un9t3bHjj9KeoWPTF8MuXOLa0znqdTH+FNXw6SXJs7P5f4m1EH8uK8yOs3xORIQT6CmprF4MfMSR3pahY9V/4RiTAL21jkjp/aQz/KkHhucKGS308/7P8AaQ/wrzOPxBeLbPEEQ72DFyvzcdgfTnNRHWLsnjNFxWPTx4duGBbydOz1x/aGf6UHw/cK4BTS1Pf/AE8/4V5h/bF6PUA9eKBq94c/M2B2xTHY9SPhy42Dc+jc+t83H6VEfD8y/ebRiAcD/TGP9K8y/ta8Bz81J/at4MdSfcUhHqH/AAj024kSaMD2JunH9KT+wLg5Jl0QAdB9oevLzqd5/tfiKBql6DkMwpgepJoNyT/rdFXnqbhz/SmnQbktjz9GyP8Apq5FeX/2ne9SW+tKdUvVO7c+fWgD1AaDcEgC40XJ7+Y9KdAnIz9r0YY4Iy9eXf2nfAA7mAPWj+1L7PDNQB6a2iTZ2teaN/vfPikfRZcnN9pAHcgNj+deaNquoOixln2oCAB2zTf7SvQQTnIOcYouB6WdIk3DOoaSD7I34d6d/ZLbedS0odv9Wx/rXmP2+9JJy2aBqF4WBJP0ouGh6aNJ+TJ1TSx7GJuP1qNtLRSM6rpnsBAa81N/e4wWPrTDdXbDBZj+NAaHpq6cDwdW048dfs54/WnDTlC/Nq9hgDtb/wD168zF3eAjk/iaT7Xdsep/OgD006dEB/yGbEnGP+Pb/wCvSjTowATrVrjp/wAe3/168y+13n/PRgPrSG6vAeXPXPWgD0w6fGJCp1m2AH8X2Yc/hmnpp8GAx1yAgEDAth/U15h9ou+u859c0n2i85O9uT0zRcD002UOSBrkOOmRbD+VK9nbocf20DjoBaivL/PujzuI/Ghp7o8lz+dFwPTFtYiUA1dDzyRAvA71I1naomTrRPH3fIUfSvL/ADbjjDnPsaXdctyXz+NFw0PTWtrVRj+22K9z9nWtTRp9D0wvPeXk1/NgiJPKRURsY3EdCeeK8d3XAOTJjt96kBm7OPTr1oEd7dTW6zyPHIuGb6VRe+jY7R2rkMzEj5x781IguFcYYEntnOaQXR22m3lza6dqEllcSwS+fF80bYJBVuKni1rV8DdqN3/38NR+DLVrq1vknUkF42OOxGe9b/8AY0ZwRkDPbrWFSWp4+OryjO0GVrXVtSdwGv7o555kNerfC+4uH12xE8skmQzbWYnnBxXntvpCq4wT1r0TwAvk+K9KVsjlgAP901lCTcjz8PWqSrpNnvimnio1qVa7T6gWiiimAUUUUAFFFFABRRRQAUUUUAFFFFABRRRQAUUUUAFFFFABSGlppoAY/tULjIqY8VBJk5NIpHjfxC/5DV1j+9/hWbJ94AjAHGK0/iBn+2rkjjL/AOFZkvUnbxXHLc+JzT+NIicEAE4zVeTBY8dqtuPlHfH6VAy5PTnFQzgTPGfHFgkXiB1KZScZU+571yE9qYpNrHJBweOle2+JbKK4h3tErOnRscivKNVs5FmZsYGa3pVLux9JgcwcrQl0MR4sZAI/KmbcdSM1JdB4cL1Ld6pnJJzurc9mMpSV7lnA7YOPUU3AGSCPxFVhuIyNxGfSlCuecNj6UGlmWCOMZH5UEr0OMVWZXHGH/Kmtkn7rAUBZlg4OOQKXaO5qtk9QDQNw9aAsyztx0OBS7Qv3SMVXRmXBIx6VeW1faC3Ge1IzlNx3ZCMjof0oK88GrAtX9f0o+yuD6ilch1fMrnJ79Paoyy/3uanuoXhjLE5BqJLUsIkOd8gLLgU0zSL5le43K9C3NJ8ucbqfDabliHzFpc7cCiK13+UpDb5QSMDIGPWmV8yIhM/e5p6gbevHrTobTckQYEvJnGB6VTbIoB3LQx0oaUKcEnPpVdO5zip4bcOu584LbAB1zQGq6ieYpI+Y0GRcDLHFOa28szbwTsbbgc8077JsknEgJEYHA96BfMj3KRndx6UgKnoSMetPa0YXaw4I3YPPvSXNvtj8wKwG4qN3HSgfzG7k5GaGdR/ETjrUz2eFlwjfulDFiODn3ot7MyLCAjM0pIyBwPrQHzIS6g/eJNPVt3QnFEFvuR3IZ8MFAQZPNJNC0Fy0ajLA4wOaBP1Dgclj+dNyvY1EwYtyOaNhyB0/GmNLzJcrj71AKdzmo/LPt+dBQ+34Ggdn3H5XFIpGcA4qMqRSc0aBbzJ949TTgy54Y1Xwewo29c4xRYOUtrycf1oGPcUthA8wYnIQcA471bNkeBk4qG7GEqii7NlIc9Mil4ANXPsR7k0gsiB/F+NLmRPto9yrkU0gVd+wnjrUV1aSRx7kycde9NMaqxbtcrYXOD1pWxj/AOvUeU28BvMPHtSoEx+9Vtwz3/nVGtvMeQB17+9LwoJPT1qGMKeJQR3GKVgplJ2sIzQFvMlDA9OlGVI4OajcKWHlK2wD5s96VxHtxErFieSe30oC3mOJB4yCR2pSRnB60xhHsOFPmkYx2HvSxCFSDMrkqTwOM0B8xWKD72KABkbcVHCsfIm3AHBBHWp7WA3Fw/lgrF/nFJuwm0le4hwDjHWgYPXpV/7AMDOfpSjT1JHX86XOjD6xHuUOgOKQkBecYFaH2BeQMnv1qlqVs8TK2cofShSTKhWjN2TK/nLngUvnLnpxUIj4+8KUxZP3x+VUdHKiUzJzxSecOwqMx4H3hSCPIyWGfTFAKKJDLk9OKeJgDyKr7D68/SneWd33vxxQOyJvPX0qWN1YcAZqqsROeQCPUVLbW7TTIkYJPc0m+5nO0Ve5bU/OOQK1dK06e+k2QIC78DPH61ZtdKUlCRn3xmu68N6StofMONzDjHasZVFsjy62NS0iaGh6ZHp+nx2yjJA+Y9NzdzWmsII6AAevWpI0AXGCKmEeFB5rmbueRKq5NsZFF82e1dL4TATxRpBPH7wj9KxI1yV44NbWh5XXNJZfvebjn8KqG4Yep++j6nu6cgH2qQdKjixtAHPHWpK7z7IcKKBRTEFFFFABRRRQAUUUUAFFFFABRRRQAUUUUAFFFFABRRRQAGmtnPFOppoAjY+tQueDUzHJFQuOOtSM8Z8e/NrNwD3kxWfM20EYAC9/StHxz/yGbtsdJDWXZaPDqVm+p+Ib17LRo32IkY+e4b0UfgefauGT95nyOIwtTF4mUKZXkv7NGAa5iz0+9SCWOX5onBX1ByKa3if4e2knkHw9byKvG6aQyOR6ng/zq4fDmheIrWS+8AXZtb6JdxsnfKSewzyp/Sk33OufD9RRvGV2Y17GJEZWA5rg9V0tmcDjDHamTgsfQetdpp92t5A3mIUmQ7JIzwVb0NVNX061uZtPnnhLz2TmSI7sDJx1HfpQrX1PMowVOq41NDzC/wBLMmY2Q5H8QrIfQrkE7eR24r1OW1LSMzDGTnNV3tVXqBWsKrWh6lLFTguWL0PMTodyOuPwGaBo1wpHOfbFelG0BB4wOtRm25OVwap12bLGTPOBotxyOc+wptxps5bL7VIAHA44Fek/Zhv6Z4prWMb8lQRS9uyvrs0eaLpcrnCnP0HFS/2Jcbsd/pXoq2iLhUQA+1P+yL3UH3qnWYvrkzz2HRXjcPIpYjtjir32WRR9w812S26nd0OKPITGAB6k1m6lzKeIlN3bONFnLt5Qmj7JIf4WrsPs4LHpzntTPsvHzAcHHrRzMz9szjp7BpYyjKfqBWd/Z1+imNc7D79q9Fe1G3jFRi2UsDkemMU1VaNKeLnDY8/Gn36IY0J2Hrg8Ui6fqEQMaHCHrg16ALYBwOB36UfZ0BIBBP8AKq9saf2hLseepYX8amOMkKwwcNTjorLENxIY9SBwK7wW456DPenSQKccj8qXtmhPHzOCi0kg/MGc9PSkGnXsDsYCwB6kcV3v2YAgLyT6imiEBiCfxAo9s2QsfNM4NdPvoTujOGPJweaQaZexkyq2JDyeTXdCDcPQA8HGaDAuBnPXqaPbPoH9pSOGGkXDAyPIPMJz3/nS/wBlXU5zPJwvTOTXcC2BY5P5DFILQ++OnSj2ov7SmcONLu3HlvJiIdOv8qU6TeJlYnOw8HnH512624Kd8jjOaBbfKBg+vHGaPasHmM0cR/ZV3Aw8iTBPXGRU9lpbQMXkO6T1Hauw+yjPcD0pGt+T1xS9qyJZjKSszkbjSxKd2CpJ52jrUR0PgHc2fTFdl9mA6g8cilNuCOOppqo+glmE0rHGnRM4w7En2o/sMhsBm49q7PyApHBJPtThb4l4B29xR7Vj/tCp3OEl0gr0LH8KYulMSB8/4ivQPsqkn5PmxxT/ALHiP7n1odVjWYzOG/sFtwB3AkZ6VKnh/Jw26u1+z5ZAQcjoc1ItvhmBQ9PrS9q2S8fVfU5W305lVUC7EHHAzipDp8qr0JweMCunW22q3ynA96kFtvQfLkfrUObM/byk9WcsumybvmH4mkWwl3MoByOma69YMMMr8vrSrakk4X9aOboP2jOS/s2QISBz/Knf2XJnJ79q6tLYhDuH4GnPbN3GDmjmBVH3ON/sfD5WMbj3xTm0UHlo1bHrXZG2O4EAbh3oFvh2yMCjnkNVpdzjDoxlGXQHHPSlbScqq+Wu36V2X2T5Seooe2G1fl57GjnY/bO+rOPTRdmV8sAHtiki0ZlyERFJ74rsxbgyYK4GOtBtupCjp0pubF7aXc4waJg7xGpYE4OKe2hhmDvGjZ6Eiux+zZQDGSTzR9lA2dMY59qXMw9tJ9Tj30Mu2CikdiRSro7Ku0AADoMV2KwDJOOBx070ggHJB+b0o531F7Vvqcj/AGTIRnA46innSX44BA9663yNy8DjvQbddyg9PWjmDm8zk10h8kYXnpUb6M0isjAH612ItRvJI6dqVIAQcACi7WoRm11ODPheNicLjnnnpTz4WjByVx9DXdLbqB9etONvhskdB1qlUZr9Yntc4UeFIzkgKMeppU8KQ4+ZT7YNd2LbBOQKTYqgqTk0e0kw+sTvucHJ4TTcPLxj3qxD4Ut8FZAT3yDiu1FtjHcGpDD8+QCeKPavZg8TLucSfCluCdq5H54q1Z+H0hBCBRzzxmutWMbiMZIFPihG0kDv1AqZTb3Mp15S0bMu2sFTaWUHHtXQW0WMY7+1MhhHUc981NqUzWVi8kTfvWIRCPU9/wAAKmKu7HKrzlyorahqsFkWjTEkg4Yk4VT/AFNXbHRPGOpwia10e78o8guixZH0Y5roPhl4aNvpC+I5ooJtRmJGnx3GSkS5IMpH8THt7d6h8SXPjtbl5jfRPGh+7HlP61bi/so+hw+V0lBOpuZM41jSZo49bsZ7YnhTImA3sGHBNbugzRzatpmwniYbgewyOtVvDvjy8DS6d4stvtWmvhJVkGTGDn5ge9bD6R/YHi62gikMlu7o8DnnMZI/P0rOLakceKyuNCpGtT2uj2uL7qj2qQcVHGPlxUmc9eor0Ue4PHSikFLTAKKKKACiiigAooooAKKKKACiiigAooooAKKKKACiiigANNI5pxprHmgCJqhfgHPSpX6jFRv0OallI8a8aq02uzxIcGSXaPqTisb4mu15r0ei2svk2VgiwpxwigAu38hWx4zJXWrh0OCsm4fUGujuNLstca31C2j3i+mje8OOQI1JC/Qtj8q4V/EszzsBy+0qdzjvBvwztXtEuru3QBwGTzF3Mfwrs4fDlnpkqTaciQyoQdyALnB74rrJBzjAH07CqU5RUklmYRwxAvI7dFUdzXXJRSPSj5HjPjmKKx+JOoiFdkd1FHcMvTDMOf5VFLF5kIYk1S1O+bxD4nv9VVSsMziOEHrsUYB/rWiRtiCgk/WuI+MzOpF4qXIZNxEBgEA1n3URS2ubiOKSfyUL+VHwz+wrdnRfcmqxBhk3IzAjuOKSdjGnVSd2Z7QBbW3do3hMsayGNz8yE9jUJiA/hOPWtJ1MpLSZJ9SajIGAuT6UN3NHWu9NDNaLb90cn3p0Fs51KW0ltZ/LS3Ewuif3bE/wgVdaEEkHI96eWcxmPLFPTNF7bmkK0Vfm1M1IhjaFyB3pTAMkmrgiC8DNP8oD6GhyuZe1ZmyR/uwQvNEVhJ/aIga0ka2+z+cbwN8gc9ExV9oww+6Rnily6Js3MVH40XtuaQrRXxK5mrb4z0POKBFxhh+VXniBGQOaaEGRkY+tHMZKq0U3iAHCqQaI7SU31tA9rJJBLA0r3Yb5Yz2TFXDGNp460fP5Wzd8v1oui41op+8rlFYir4O0d800xhWJG0HvV3ZtwCoPOeelO8td7EBTxSvqZe1sZxwwPAxzwadHp8zXVmn2UyW8sTSTXgfiI9lx+X51cEQYHAUZ7mjLCPy0OB0NO9tyoYhJ+8rozypWTCsD+FKIiGbkA/nmrnkAEHI9MCl8oFwfl44pKRg6rM8IQjDKjt0poT5Bt4NaSRKqtn5sdulNWNQo6cHpTuT7V2M6dvJhZgAxx8o96gsZ5rhEWcCN+/eth4Q/UDAqMQKrjZRcaxFo8pT8sLwDnNKqZUFmwQavmJSGJwPakaMsgDY544o5iPasoGP5gQcZpDGAxI6j2rQaLGORzS+WNxGRn9KVxe1ZiSzzi8RERRb7fnJ6k1aEPy8cDpV3yhzuwMd8U9VAQYI655ouxzxF0lYoiIbwMnIp3l4J5z+FXjHuPpT0UlyMjnvSuxe1ZklfkOB05PvUdjLcSNMLhQEzhAo7VrGIEHntSrGoj4PWncqGIcVZFbyvu/Kceg5p6qhPQn3xVsx8ryc96eUAfrn3oT7AqrKQjKowwSKqag0sVsTaqPMxgFhwK2FHBO40jxq6gck5zxT5mWqrTuilp7O0EZmGZCOSB1q2sf3iqMO9SIFGAc4HSliGJCSxxScivbtkQgDchWH9ac0RXGBz25q0oUrgZ5707AwAenQUJjVYqNEdy5GOO/ekWIktgfTNXdgyOD+FGASTyQKLle2uU/K+Q4BODThD0yvJq0Ewp4OOtLt6elGpPtHcqPFh+B24JoERA3bcDsM9aucBsc89BQBgn1PTNGpSqdyn5I8sYX5qf5BwARnPerAUmP7v+NSEHjj8KLsPalPycMflpqoMHI6d6uFQGJPQ1HwxbK8A44pXE6hV8olcKB9akaFtgyR+AqyiEJ92n45HBpp3H7UqeR1/n60oiUg5XmrWDu4H5U5UwCQvNFxqo31KqxbgOAKeIgrDA96lKjAxkmpmTBHH50bgql9in5J5IAA7VzOqWd9JqcMizFIUJ3IB9/05rstvzfpRsDKcr+VUnYqNeUdUUbWJ0t0D8mp2jyw46VOFwOB7U4phhQQ6jZVMRyRxUhsZX1Q3p1AixFv5a2QTo/8AeJqxgbzwDTo0yOn0p7FRrOF7dRkcfHoM/lVHxWjDT4SnRXOD74rYjBUDctOvbYXdq8LEfMOD6GiLs7k0a3s6imz1TwwYz4X0EwgeWLGJV/BRn9c1tCGOWMpIilTxg15b8NfEyWAGhaw3lBGxBI/Rc87Sfx4r1iONsDAznuOQa6KdRWsz7anONWKlFnm3jXwtbR3Uku1fJmgl2E8bGAzz+ApmoTP/AGd4Ia4H+lfZUZ89cEpiu38YwWMulJ/a83kWiOGcD70g/uD69/avNr7Upda10XToEG9Vjj7IoPArKq1zKxx5hXjSo2e7Z7rGPl69KeDnrUNuxaJSe4zUwHHFdq2OtbEgopBS0xhRRRQAUUUUAFFFFABRRRQAUUUUAFFFFABRRRQAUUUUAFMan0xvrQBGetQtnNTN06VE3AOallI8i8XW7vqd023q5/GsPStZ1HQJme1y0bHLxt91q9R8RaVALS/viXMiRPKFz8u4KTjFfNifEbV/tFudQ0E+Q8YLCKFw/PcZFck6Mr3PMWBnCs6sJWZ7A/xMKgF9HkL/AN0SDB/SuN8YeKtZ8Sr5EsRtrDOfIjP3uf4j3/z1qjp/iG1uG89Yxcx9TDJC8TD6nBzVXU/FELEG30qS2UZ3MY5Jfy4oUJPQ650q8425i5Df2cGQsMy7RgKFHFJJrUDIWENyB6bQTXBX3jnW45sWOl5iHG6Wzbn8KoJ488SJ93Toc55JtCafsWeQ8ipttuWp6NNrEI2kW9yw9gKrvq8O/BguCe3C15//AMJx4pKsfsUY65P2PFRSeL/FlwPlgKqBzstMf0o9gWskpLqegHVY+QILjr3xTW1WLb8ltPkehWuATxb4tJwtsxx2Np+vSkfxX4uOB9nk/wDAXGf0pqgUslpfzHetqaKwJgm+mVpv9rJ82IJ8AZyWWuBPifxdtA+zyev/AB6j/CkHifxgvBim4OcG2Az+lH1cr+xaXc74aqjL/wAe85x/trzQdTAYEWs3/fa1wUniXxiVEjRzBCO1uAP5Uw+IPGauXCXIz28gAH9KFhw/sah3Z3/9p/NxaT5PfeMCgalzhrSYHrneK88Gv+MllZwbwv15iGB+lPHiLxmRtLXR3df3Iz+eKPq6D+xaHdnetqfBxaSn/gY/wpG1MEBvsc3P+2P8K4A6z4zKhd12AOQAgH9KJNa8ZM6sZLvK9BsAFP6uCyTD92d//aIDAm0kwf8ApoPy6UDUwQR9hkwOeHH+FefHW/GAfc093n1Kg/pUba14ub5TcXeCegxR7BB/YmH6s9COpgkEWMmfTzAf6U2TVPLZd1jNz/tcfyrz1tU8WugT7RebTzwRTv7S8XYRxPdkDplhR7BC/sXD+Z6Euo7gSmnzYHq+P6Ui3znOdPkH/A+T+lcC2qeMRJlrm83f74/lT49R8ZRqXS6ugc8/OCaPq6K/sXD+f3nfG+k2Kf7Ok47GTn+VO+1zF/l02Q57+Z0/SuCg1DxqSzR3VzluSTIvNNfUPGbY3X1yAO3nKKPq6F/YuG8zvxdSqSBp7fXef8Ka15OY8nTZFxyBuPP6VwbXnjN/nN/c88ZEy0iXHjJPlF/P9DcKf60vq6H/AGLhux3v26dgMaW/HUeYeP0pwurksMacSMZzvP8AhXAC48XvGVW9kKL6TrR5vjBEEg1CQL2IuV/xo+roX9i4bszvRPeYJOmMoPIyx5/SkFzesgxpTEA9Nx/wrgfP8XFyf7Tl3j1ul/xqJl8USOS+pSZYck3YH9aPq6D+xcN2PRnuL1Sv/EsJPTG48D8qUzX/AJhxpDbezFzj+VebrB4lRGA1MqG+8PtYyf1potvEJx/xMxkEkA3Y/wAaPq6H/YuG7HpsR1F0bGkkAf7TH+lPzqKIP+JYAR/DubP8q8wkh8RNy+r9OcfbR/jSLba8r+YNYRXIxk3vOPzp/V0H9i4bsep7dRbaTp2AT23HFKE1HzGC2KMuOq7iK8oS21pQdutRqGGDi96/rTRBqywGEa3EIuu0XZxmj6ug/sXDdj1ny9SUOzWCKoOMndzT1ttWaMY02POe5YV5JLDq0nMmuQkjoDeGkmi1W5/1+uxPjjDXhPFP2CD+xcL2/E9d+z6mHVVsUYnkgbjipGstVDkPYxr3+YmvG7e01G25t9bt4sj+C7IzTprXUZwPP12BwOm68JpfV0P+x8Kuh7DHZ6wVP+hR8d8nFI9rq4C/6NBuJ4GSDXkAttRDIRr0A2cr/pZO2ohp1y8/mNrdp5g53m5Oc/Wj6tEP7Hwu/Ke0Cy1bHNrbj23HI/CkS01U7iIbbaP4gcj8ea8Y/s2cZb+3bQk9f9JbJ+tINOl8vb/b1oF/u+e2P5Uvq6Gsowi+ye1iz1RYg5itwPXsf1qf+y9YaIP5MKr1yVOP514h9ilaIRP4htti9E85yBRNbSkbW8SQuuB/y1f8qfsIlf2Vhex7atjqTy4iW3YDqByf50r6dqyFt5tl74zyPrzxXh400RsSPEFupIzkO9JLpsa48zX7c7+vzOc/Wn9XiNZVhf5T25bHUzb+aZLXZnAIwBn65qX+zdTAjZWg+bvjj+deF/2db7Nn/CQQbQeFKuQPpT1sYvLCjxHHgfw4kwKfsIj/ALKw38p7m+l6mj/vJrVBjPb8utMt7DUJEYpNaMOfT/GvDDplqCxGvxEjv5b0iaVZ7TjXol9hE9L2EQ/svDfynujWl5DHhruzEmcYJXr+dD2V+gUm6tMHnJ28/TmvC30mxY5fXIjz3hc0raPZY51xMAcfuXpewiNZZhv5T21Ybkz7Fv7HJHGSuf50n2a7ActqFgMDOcr/ADzXiZ0fTQATrkeT6QN/PNINH03aP+J0uD1At2x/OmqEQ/szDfynt1vDdyxr5GoWT84LArgfrUxtrt1Vvt9kozgn5T+ma8LGk6cGA/tkgZ/59m4/WlGkaX21l/8AwGb/ABo9iu4f2bhf5T29oLqI/NqliFxnqgP86SMTMXC6rYbhyAHT8zzXiR0jSz01Wdh0ytqef1oXSdJIydSuBnr/AKIf8afsV3H/AGbhf5T3I287ZVdUsi3Xhkp6287OudWsgAMksyDP4ZrwsaXpK9NSux2yLUj+tH9laRuGdRvMdz9k/wDr0/Yof9nYZfZPdfJk3GRtXskT1Z061AsyICX1ywBPQeYma8S/srSG4/tG+I/69f8A69H9k6Qoyb2/x6fZP/r0exQLL8P/ACntyujq3l61Zuy8MQ6AD9aJp4lYb9dswoHOXTr+FeJDSdHZc/bb8g+lqP15oGlaQRzdX/H/AE7Dj9aXsV3D+zsN/Ke2x3luXIOv2R9BvWpo5IyhYa3acnGPMTFeGDStF73eoDHrbD/GpP7M0LaP9L1Ij0FsP8aPZIHl2G/lPcZbqCNQH16yPPJEiYFWraSOdlaHXLQgdzKleDJpvh8cvc6qQOeLccfrVqCx8KpjzZdbyTztiWn7FCeW4b+U9zOk213L50t9HK02MEOPmNalvZ3+l27bdVuLWLou2fArxvRtX8P6ThbWbXzF2V40IH4V1dh8QvDVpGTLpF9eSFQA08KsB+Gah0jeGFpwXu6HaMkF3HNd3OpmZIFzJPLIdiD6ngVo+H00zUp44tOvIrqTG7ZGdxIBHNeO+JvEuieJCialJrxs4+Ut7eOOKFD/ALoHP411/wAKtU8LaP4isDpMGrte3jLaj7Sy7FVmHJx9KaoLqZSwVKT5pK7PpaxEggXzlUMOgHYf41cFMA608V0I69hwp1JnFLTAKKKKACiiigAooooAKKKKACiiigAooooAKKKKACiiigApj8Gnmmt1oAiY1E/cVKwB71C/FSUZfiCVodE1CSM4dLeRlPoQvWvkK88XeIJ1iebW74kgciTrX1t4rZl8NaqVOGFpLj/vk18WOMW0Xy7vlBOKALx8Ra0SAdavfXHmnmmN4h1fjbrN9nr/AK01nHGRuXtUWUBUeXzjoBzimIvSa7qp661e9cf601Wm1PUG4OqXm4d/MNVgYgG/dknuAM81SuZw5McSHcTjjPX0osBNcatqTSGOK/umJP8Az0PJp89/qNuitJqV1nHQSHJP+FSwWLWi/urea4vCMlYkL7frjpUVtaEh72/RsKcBSD196LCCCfVHj3yahdJu5H7w8D1qCXULt5Nq6hc7R/EZSc0+5kkuwrJazmLGVZVYj35xiqRaELwjH8eKAJftV2y5bUZx2++arte3pbat5cMTwPnNRyAEgIp9TxWpDbLpyIZEMl84JSJRkqMdx+tAEVxcXcEAWa8nZiOFEhwPpSmS5NgZpbiYMxG3LnIFSafp73OLq6V5A5/dxqpZpDjnAHYUarZ6jLcJGdPvUZgTHGYGBIHXAxz2oGZZubtjj7TMfUbzViwtdQvvtBtpZG8iFp5CZCMKOv1pf7KvxKIv7PvfNK7gggbcQPbHSug8F+TpepX9rrol09b6xktllmiYbCxGGIPbigRnad4c1bUrdLmO4jjgaJ5vMmmIAVWCkn8TVTVdI1LT7m3jkk88XP8AqHhlLrKMgcH8a7+HWfD2i6P/AGXNcR6usGnvE3lAxpNI8qttU9eAOTWRo/ie3/4Sjw9qLWCW2kaPcqVgiJbYuQSSTyTkZ/CkNDb34dajpqOdZ1KKymiRJJodrSNCrdN+OAT2XJNdVNb+E/BnhbQ/tOhReINb1S3+2F7mRkiijJIHA9cfoa7j4qSWHi2H7RoHiHS5LbeJzZyyiItLwCxJ6jaAAMVV1/4X3HjDwR4SvdKvYIb2205Ij5gOyVOo5/zwajm6F2saXwt03wH45sLwnwdYWd7aFRNHvZh82cEdOODXcn4Y+CSQv/CNWAJ44Df41wvhTTtO+C3ha51DX7w32raiwVYYBjdtBwiZ7fNksfbiuO1L4x+JLi6Mls1vYx9RDEm/HsWPX8hSd+gJLqeup8OfB8bGNvC2nKFHDuWPH51538VW8G+D5LOwsPCGl3mpzqZfn3KkaZwCcHJJ549qzdC+MOs28/8AxM44r6FuoK7GH0Petrxv4Jn+KNjYeJfCV1DLcxp5M1vI2zIHOM9iCTQr9Qaick1p4T8aeBtek03QF0fxDpUSXAFsx2zBm24xnkH0ryDWLNLC8a3MkhZePnTbz3FfRXhv4ean4B8C+K/EHiAxNqDWqLHbRPkIiuGOW7knH5VkfDDxZoumXF/qWt6TZXBuZA0ckrIzw9ScBhwOe3pT5rPXYaipLQ8ENu/THOM8jFV2XDdBn+dek/FDUtL1zxC8ugJ/xLbK18k3DLtM0hJJb9cD6VwNkiGYhu6N/KrWpD0C2hPkebKAIQTyRyxp0MSzQMAgJjRmY44BJGK3LTw1rmr6ctzYaZezWcUQKSRwkoex574qLU9L1C20dLmGwuodJyB9reMhZWzjr9c8e1OxJzQXK5IpSnPTFbtz4V1y1sIr250i8itJiqxyNGQGLfd/OrF34I8SWUccl1o17EkjiNSycs7HAUDPc0WGcztGOgFGMf4VcNhcmC4m8mTybdxHK+3iNjnAPvwfyqrtweOCKAGkD+EcUm05HrTyp/Cjb15oC4w+1GOTx1q3Z2dxe3cdrZQyT3EpwkUY3Mx9q0tQ8K65p0ttDf6TewS3DbIUeI5kb0GOpoC5h45HAxS7eeR+FdFN4M8RQahb2E2j3qXk6loojH8zgdSPpkZqtr/hrVtAeEazYzWhmDGPzB97GM4596LAYpGO1OCDHTJp23370oU7sBhjsaAEwOPloAHHy8U8LtOCcUoQED5qBDVAVgdgOP1qQDncEOCeaaFwOW56YpUYgkZ4oAmG3b/qhjPXFTxuQ4HkgkEY461XQcECVeffrVyCOZz8u9gD1VSf6UDH6mFS+GU6KDz3zS6uFBtjs+Xaen4UutKftmQw5VTnPSjVAfKtyGz8px+GKSGNhCuuDCPoacJ4sYCp16ZqIhypzIPpX0z45vrjw/rmhaH4c8PaZe3F/aGRVkQA5XAwOOmOeaYj5sWRNrAxqo9QeKejRBQQqFfXNfRCyePiOPAmjAdNpda1Ph1qtzretano3iHQ7Gx1CyRZCkUYI2k49KAPmhWgOQUUd+tOLw/cKgD1HevoJdZ8R6r4q13SPDmg6LcJpkuxnnGzAP3c8dTg1qWll49a4hW40Dw5FCXUMwkyVXPJxjqKQHzQDb5C4UA85Jx+FNKwOB821hzwcV9qnRbAuxaxtTz1MKk/yrj/ABDfSaXq72lp4Jn1CFMH7RBGm1sjOBQFz5c8kkARgMD374pPJVMq4256A9/pX09438C2Gu6TaTR2qafqM8kQ3IgDLuPzA44JA/lXS6D4K0Xw/bsNPsYY2x+8nkUM7ADqWP8AKgLnyJZKFhctu25J5U8VaGzaCwAX9K9tvvivpbXrwxaL5un4I81ioLD+9tx09q6bR/BWlNrem+ItJhi+zzxN5kWwbHLDhgOxH9aAufNitDkZZcc9OaUGI4yy8c19fatZLZ6bc3Flp0N1cRoWjgCAGRvTOOK5/wALXOo6xdTW2s+FBpduIwRK5Vg5PbHr3piufMhRU5+UYGT+NSJbSSIHjt5nQ9CsZP8ASvpTR/hxokGu3+oPbRzKZAIIG5jhwBk46ZJ/Kn/ELxdB4PitYVtVuby4DNHCG2qijALH8Tjj0NIZ8zvCUJR42jfrtdSDUSKCPlBOc9Fz/KvffDet6P8AEhbjTNW06OC7VC6MDuPplTjOR1ql4e8US+Htds/Bj6bbusM4s/tO75iCfvEY680wPD2iOPlikOTjiM0NAUyxidf95CB+dfZd7b/Z7S4kSNC0aMwBGM4GcV84+L/iNceJ9EFk+mwWsbMrsyvubjnHTjtSC5wAjBbcF4xQyIyjjCjrxU4Hy8cnrxTNxIbjj39aAI1TCkAgfQUoXJ45x0pssipjecY6VW/tC3DYLgMO2aALhiVvWt7wMwj8Y6E2MEXsPb/bFc7FdwuQqsPm4rb8NOYvEmlP3F3Cc/8AAxQB9u8An608EHpTD1pwBpgPp1NAxTqYgooooAKKKKACiiigAooooAKKKKACiiigAooooAKKKKACmmnU00ARPUMme1TNUL9allGF4wYL4X1ck4AtJf8A0A18W3IcwRCMhTsGa+zfHH/Io610/wCPOXtn+A18X3uFt0G4/cHegGMKuDywAAr0r4aXH2Xw3eNC17aXUl9Ghv7ezFwGGOIiOoGTn8a8mu3AACu3A59BXpXw18K+M7nRje6VrkOgWF037trmYp55HGVXB6Z60xHY67HqukeFbs2VzNDqy6lcArpViJFnbAwGHO0D1PcmuY8Q2uoP8PvDLR6XdX2stNdS3DxwFmWQkDLYGc/X0o1xvF3w0EGkxahe3E9+xaGSF98crsedvBJbJHWqmiL8R7OF5Jk8RRIWL+UsTAuzHJPtzmgLHWrc3+kfDTw5Lpk2qQ6i0Dl7W1td4kbd83mHGUI/Pms3Vbjxba2fh2HwzaGa0udNMlwvlgxeaSS7SMe4z3Nc1eS/Eq2tptkWv2trEGYgIwVB1JrI8HWniTxKsuh6Vqs0Gm7PNuTLMVgjQnq575OeO5oA17HxLrQ+D+oGO/lXy76K0j2kDbF5Z+UY7V5iPMIAAHFezav8EtWXwzLdaD4ittahgzK9pDE0eSAMlfmIJx6jNeMPnaMHkDGOn4UXCxNZbvNHAyGX+dd78Iw0nxPgkKedJsudqHncRGcD9a5Pwho93resJZWq5x+9lJ6KqjOTVmQ3GjatK1tcT29/E5OANjYIwQCDQI7j4X6drMHjCSTVtM1CxQ6dcpDti2uDtHEef4qu+ErjVbPWvEV54kfXrazi0qX7NNcnFwEDrnaTxu6VxOmWHjrXYodR0xNavoxuCXCSMdp6EAk/niprzwV8QtRlIu9J1m4crsJlct8vXGSenSgLB4U8Tatc/EXSmi1O/kimuo4B50uWaLd91u1c7431G71LxTqUl5PJOyXEqIXbdhQ5wB6VHqWh61oGqw2mo2dzZ3zYaKPHztk4BGPU9MV6ZpfwbszbxJ4j8WR6dqsuC1pDamfys9nbcOfX096L2Gk2eNEjjIq9o8kq6jBFAFDTSLF8wyPmOOR+NbfxE8D6h4D13+zdSeOVXTzIbiMYWZM9QOxz1FYWhZ/tzTRnH+kxcf8AAxQI6Px3YW/hzxLeaT5CXPk4xKRtJyM9K+uPhzk+AvDZULt/s+EDn/Z9K+U/jYNnxJ1Tn+5/6CK+sPh9IyeBPDyoo2jT4ew/uComXE+cvjFq8msfEPVixJisGFnCueFAHzEemT1+lcGyljzwB6V2fxesZNI+ImrCVCI75xeQkjqDw35GuP8AlPKNwentTWwmQbsNtPzH1r2j9nDXp7TxXPpmc2l9Fkrn7si5II+oyPwFeNSEY5A5r1P9ni0efxdb3JBUIGl56ABSB+Zb9DRLYcT3T40yFPhb4jJHBtsDn3FfIPgu3TxF4q07SpYYIY7h9jSrHlgACTjPfivrn4yPn4W+JPmB/wBEOMLx1FfJvwiyfidooBHMx/8AQTShsJnO+IppBqVzZscRW07ooA9CRz78VTssC4OP7jdfpVvxN/yMmrbRgfa5eP8AgZp/h3R77WtWs9N01A93et5MYJ45659BjJ/CrJPefhwbSWx8C+dr81hLBaSSrYREBbnbJnDEnA54+lcl4xivpvh9od5exNDbPr88rq8oIRGcbeO4HzYrQ8afDCx0i1ifRdUudSkMBiuPlCmF1xjC9cHnH096898M+D9e8WXl3Z6X5bPZgNIJ5tirkkDGeOxoGeofES0aLTPFmoahLexRTyrLY3IvwYrjLAxokY6YAJJrBs9ReTVfhOst6XAUvPmXOG83hmyevuao/wDClvGLqqM+m7VzgNeghfwrnvG3w+1rwdYWt3q81iVuHMarBPvYEDOT04oEdX4g1Pw7dfDrxbFodi1k39qxbzJc+YZ33N8yjsMA/nXjxwfxr2Twf8O9Ag0mDUvHF/dg3EaulnaYTyQwyu9yeWIOdo6DBNVPiz8MrLwzodj4h8NX015od4/llbgDzIm7c9wcH6fjSur2Ks0rnk/GKTp/9enqK9P8A+A9Fn0mHW/GV5cxWUxzDbWpCkryAzuemSDhRycE072FuYvwTeOP4m6LJJIsaB3JcnAUbG5zXq2j3ENhYeHD4d1Vteiu9Vkc3Go3AjMB8sr5Y6kEgk5rlfiV8NtG0/wn/wAJV4Lv7ifT422XVtcOGaPPAKke/rVbT/grrt3YW9z/AGzokImQSBGuCSmR7Dr9PSha7C2LHxVtpNH0nQGSTUNMu2uZR/Zst/8AaGCcfvNw5APTH1rlfjRcfaPiPreJ/OiSULHh9wUbRkD059K6ub4Iawz7pfEehBjwS9wxNcTong2+1rxhD4es5reSd5XVrhWzEqoTufPpwfrTasByeAa0/DVjFqniPS7CZmWK5uo4XKnBAZgDiuuuPBQaC6Fhp93fwW8jJ/aVpukhOO+NvSuR0u4l0PXLK9MYkezuEk2E4DFTnB9jikB7R/wrrw7qOqXdpFouq6QlhqcFr580pK3qO5U7CQOwzxXPfDvwBpmt3uorqUV15VvqkVtEFJUPCTJkg4+bOwDNc9L8Rddu/FFlrGpXUt0ltdm7js3lPlKc52j2HSukHxu19iovLS0nC3YuolxsEYAICDHYZoCxW8Z+F9Mj8IRaxZaFe+H7o3/2Jba6lL+cDj5xnnAzXqPg74e+CoNY1DQ5dPe/u7CKKR7m55WXruZQDwCTgDnpXjV74z1HxXolvpOtkXFxbyNJBeNzIM87Ppkfyrp/Cnxcn0LT7pbfSI7q/uFWa8nllwHZMgEADgY7VnWu42SNKbV7s9ruPBHhO4luLKHQ4LZo0VzOkAUEkngH8OfSrujaNYW8l3o+jWdxpa6VLFcNLDhY7kvyVIPX7teJ6h+0Hq9zatCmkWcHT51lJP8AKuv8L/GLTtU09U1O5l027kkjDxxQtMWij5IzwFzyCfSsaanF+8ErdDwPxisS+JL9B91ZmBwMfxtVPUthgtghJXaxzntkVe8WX1vea5fzWkZMVxcyXAZurbmJA+gzVC5WSe1STCiONSoPTcT6V1EEUxtViyodmCkn0r6W+I2uaf4d+KngLVdVlEVmunyhpMEkZAx9etfMuBsZWjyCD0619Vp4rsmTQNK1u6sm1i9soDAj6d5kSeYo2ruJ6ZHtQI07n4w+CYkJ/tGRgP7sJNc98L9bs/Fvxd8Tazo6u1kbGKEs45JDYBx2zg8e1WY/F1po2hW1z4tOmWUs1zPbxx2en70UQsFJyTnvmrmmeL57DW/EGm6g9lbJYWg1GF7GzyJoNucsM/e5Ax9aEhnO6J4U/wCEi+KHjyNtX1HTvs9xHIwspNpk35xu+gH6110PwuSO5jkPijxFIY2V9rXA2tg5x06Vxdp8WtcfwpqmuxWNgjW99FaLF5R3MGUnexB6jgYHvXTaD461i70211LVJ4orRtMl1GVbe13ONkoQIoLc8HPvSaA9SK5DfL3/AAHtXinxN+JWs+GPF0+m2P2X7NGkciiSMktkZPOelcz40+J85vku/DWq6us7/LLFPAscaKBxtXruJ615xq+uXeuakb3U5JZrmYgPM4ycdOnsKLAfVw1S2ufBWma9qaqEMcN4xXgITjn6DNdFeW8OoafLHuDW9xGyFlPDKwx1rwDUdR0c/DeJ21jxPcaU8jWcNo4RdzRruAbjhao2F14g8Map4c0zSNU1E22p29rI0ixl0iMhw2B0AH1osAXPwg8UW+oNa20UFxByEuWlCLgdMjqD/hXtej/2d4Q07w94clvFkndfKRmOC5AJZsdgT0+tcZqevXek6bJPrGta/cCS9ubZBYQofLWM4yxC8HHfivH/ABFqUFzrs93YzX0iHaVlu33THHfI6e1MR9baxFePpd2umFFvjGwgMg4D44z7Vyngu28bJqTt4rlsXs9hAEPLl/UYA4ryLwDrusazqlxDqGtat9ktbOW6ZLaT94+zGFHHvWpDr6a7r2j6Pp2peKLVrq4CXDXc2CqbcjC4ByfWgD2uw1Wwm1i+02CaM3dqymWMEZ+YZ/OuM+LvgK78UmyvdKkiW9tkMbrKcB1JBxnsQf514t4fs5bifxFdLc3EF1pVtJcRyRt87MJNp3Hvxz716PH42s7bwd/a8V74gkRLn7EBJOoZpNm7cTjpxSAs/C34e3fhfVJtd8SSwW6wQskUaybgu77zu3QcDAA9TXn1xrdtqPxVg1hSI7R9RV1duAEBA3fiOad41vNTv4PDS3uqXlx/adrHNIJH+RWaTacKOOP6Vq654b8K+GbK7utZh1G8UalJZRiO4CbFRQ2T60wPoa9iE+nzhWzG8b4YdCCpr4mClUVQeAAK9rtdJht11Zra88Q6lpP2G2urWwt7giQrMWBUnqQAPyJry/xO2i/aY49F029sFiDLMl1NvYtxgY7YwfzoAw2QggHgkZqDf5eeRxzntVkAEZJwPQ1a8PWUWo+JdLspxuinukR19VzyPxoGel/Df4WQajZQ6p4nDOsyh4rP7uFPQv3JPp2r1hfAvhyW28n+ybNU6ALCoxWlb/eB6E1pwDPJ60AeC/En4NQw2zXvh8mFl58ofdPHT2rynw60639l5+VkjuYwRjkEOK+3GhWaNo5AGRxjBr5P8f6XHpHxAvkjA2s0UwHTndg/yoA+wsfMfrUh4xUandyO9SDFADh9KWiimIKKKKACiiigAooooAKKKKACiiigAooooAKKKKACiiigAppp1MbnrQBG3tUT1K3XioW6dako5rx6CPBut4Iz9jl/9BNfGepfLBEVXPygfSvsr4hnZ4J11uOLKX/0GvjPV8iCLkDgU0JmXgSOQRjcO31r6Vj1Kz1rwfZmz0u+kLW62qSWsJC7UG35XPbv8vWvnrQLaG61m0gvCWhmmRGAOMgsBiuq8ea/dDxfqlveCSI207RQxqxRYo1OECAdBjHSk1d2KTPRvFll4ovtP8JvpulalLf6bPJPJI0O3BAARuT161QuLz4wzzMyQalGh5wTGMfSvQvhprz3/wAP7DUtXnWPhl8+ZvvqDgHPvVyTxr4aM2xtThz/AHtpx+dQnbSxTVzyK+tvi9qNpPa3BvjBIpWRTLGu5T2zmr/g7wfrGk/DvW9Pnt/sOqXtwpgk3oQAqgDnPbLcepr1O21aw1JWayu4Z9vaNgT+NfP/AMWtTuIPG+oRanEfLBC2ob7vlgdV/E84ovzaCtys9N+CvhnX/D/jS4t9Rkuk042ZkxOwKvJuABUgkZHOa+b/ABCFGu6kF24F1NyOn3z0r1XUPEeuWvwb0nV/Pmimh1Ro7SdictHsbnPcZz+VeM7mYkk5Jzkk1UFYUnc9W+B1rqc+r6imj2H2s+WBNucIqqQcBmPTJBwO+PatOb4NeJbnUXurSTTZhluHvw5GegJA/nWZ4Zv7ix+DOuT6ejxrJqkSXbIcEp5fP4dP1p3wb1yZfiFYW+ko8cEysLhFJKlMZ3H6HH509rtAtdGdHp/wv+I9lYw2mn6xaWMEQwEivmCk/QL3q0nw3+JrKd/jK3Qg9BdyNx68LXp/iDxVo3h+VF1W5xKfmESje2PXHb8awYPir4buJ9ha5jBP3nj/AMDUczY+VHHaZ8Hddg8S2WveI/E2n3K2kizyGRpN21M8bj061pXOi2/iC91Z/CPijS3vZwGggSVywK9MNgfnXQ/FIPr/AMO73+xWjm8xRKNjZMiqwJX9OleD+Ab6/wBS8c6PFYxSJeJcoXCqQUQH5t3oMA0rc2rGnyvQ7T9qW7S4tvByPJHJdQw3EczL/fHlBse2Qa8L0+cWt/bXJXcIZUk2567SD/Sum+Kus3+q+OdWF/OZPs1zLbxKeiornAA/r3qx8G9CtPEfxE0jT9TUPZs5leM9JNqlgp9iRWq2M5bjfF6az401648QW2g30VreECLbGWBwMcNjnp2r3LUfidD4O8O+G9HtNPN9ejTIJZd8vlpENowOAck81xPxwuPEmkeMbZ76W7t9JMStC8W5YunKjHAxwMVy3jm407ULfSWju1stXs7OKzureUEBti8MCPaplroykrao9VuW0v40eFJpDE1hq1g+F+bcYyffupx+leHaz4a1zRruSC4t3Yqcb4+je+K9Q+DWv+GPCGn30uq69btfXzICkasRGi5wM9yc5rttS8d/Dq/VvteoxTAcj92ck/lUJtbFWufO+n+H9UvLzyDayq2duNpJ/Idf0r2C21qD4Q6fYxPZte61qMZZITIEWJAQNznHUkYwOm2uztfiB8O7QGW21O0iYgdEbd/KvMPjhq3hbxX9h1HRdegbUbZDE0bKwEiZz19Qc0b7jskd3q3j6Lxx8KfFkSWrwajb2oDwBt+dzAKVI65xXjPhHwp4v0DxXZ6hD4au7m4tSZhbkgEjBHPXH5VreANb0Xw3pl6bm7F9qOoNCsscSkpBBExckk9WJGMfStHQU1i78Z6Hf6ZLeR3MskZijKtgxZO5iMdBk5PFHPy6IFDmPIddW7Gt3p1G3ktrx5meaGRCpjYnJGD9a2vBMt8mu2Eeju66jMHggMbbWLMcAZ7Z9a9R/aludN1OTw7qdmq/bJPtMEjADMiRsoVvpktg1wHwcLT/ABE8PQpCz+VdeYXUZKrgg59v8a1TurmWx3F9a6Ppmqrb3fi5nv4G/wBJe0sGeKMjA2bi4yB/TpWs/wAFbPWVl1C18WPi7PnjZYbV56Y+euE8ReCfFuj+JLu1ttLurtLiZ5IpYU3I4JyCT26969otb608CeDNJ0/WJvO1FYMNDCfmznJ57AZxn2qLstLqcS3wFbI/4qw/jan/AOLqFvgF5vyv4q3HoMWbNgf991p3HxXJu8Lp0AhBAAMhLED1OK7Hwr8QNN1WZY3j8idiNqF8r+dK8gaTOO8c2+iy6vY2WreINPjmsImjeJrOSVQWIJZyGwD049B7VN4r0ZdM+Csfh6bUYJI7jVYUtL0OTGyOd2QOoCjPH615r400/WtG8UatbvYzzW99ctNHKkRYOGOeo781N8VNNv8ARvBXgix1NZI5jHdStC//ACz3MmAfcD8qErO6Bu6szkfHegWvhrxJPpljqkWqRRBSZ41CjOORgE9PrXudlYaPN8NvCt7qmqm006wsvNmaABpZZ5SEVQOcYCemTntXzSe4HWvVPA3hfVvEfwp1r+ylka4h1GGaOPp5yiMjAz6ZP41TV0THc9E8DX3hPVdH1bwpDPqkcepkSPHdbVZwvXYQMD6UifBzwi6v5KavIuOv2oA/TpXDfDnwr4hufFNlfapYy6dYWL+bLNcrs3cdAD1rsPEvxUjtJXh0WCKfBwLiUfKD/sqOv1NS009C733La/BrwkzPuTUOTx/pWcev8NTnwP4U8G211qwvdVt/LhaDzBKGOH42KMck81yenfFnU45WF5b29yrdSF2kfSug8XMPiB4IeLw87PfQSCb7OeGbsRRr1DQ6fwL8R9KWys/C9hFLpbbPJtZLpQ+4/wC1jjJNfLWvqw1TUFlI8xLuRWweMg4OPau48E+HPEOq+MNOtJNNurd47lJZZZEKhFDAk5PX0rj/ABnKP+En1aFQoSO9n5H8R8w81cdyJMxFXnrn2r2zw18PfDV9p3hnT7mz1qbVdbsjdfb4DmC2JJxuGOAMd68UG3PNeq6D8YtQ0qx03Tfsom0i2037DLaNKV84nd8+4cg84+lUSZHinwzp2h+EPD2r6Vdz3E92syzs42r5iMq4UenP410+kfDyLTdL8XjWVZrrTLBGi2P8vmMTuzjrg8fnXN33iXTNX8FaR4cttKWykstzR3TXBfcWILcY4BOOvpVp/FOrnSdatJLSaSTVFjWRweAFJJ/Pj9allJFLUvCQ06ynnae2lMaMzfu2zwBjB98j0/Gu91n4VWjQ3Meizm0ij0RNRZ35Mr43FWOeFOK8xu9b1B7C5tJJneFVxJEXyB+Pc16bqfxQ0vUtB1m3itZFv73T49PSNfuRxIpyxPc57ClqNHi1rCkkbNJKUiH3mA5YnsKS5l8zaqsFReFA/hqB5gfLWQEoq4A9PU06ZbdHHkyFx9Mc1RDARbkyH6jtXt81lo+p614R8QnxXo9pb6bZWf2mCVyZQYuSAB1PbFeHrIFxsJ5/KlQpjsGGSP8A61MD3afxr4On0rSU1nSoNXhm1G9uHjlY77SJ5AQ2B1z6e1LYT6bqXj7xle3XifS0s7vTns7WRzsGJF+VVHogXBI614UHjBPynB9/508SW+1wd3uc/wA6Bnonge70ibS9Y8K67fi2tryZZ4NSjJKxSxgqpI7qRzXZeFPFdhDq0mmaXq0OnafYaPLZWGo3uCZZWdW8xl7AnovpXhRmgLHAOR0waVZl4POG6c0CO48a6U0VxJqM/i7TdZvrmUmRLVGDDj7xzwB2rlzHMFUF+M55qqZYnHKsW45B7ULJHjHzHPPJ6UhnZSXsLfDOy0wXCC/TVpbjyxziMxgZ/Ouvm8f6ha3fhW20jVXh063tLWK9RVwA6n5xnHpXkiSwoi5LDHfNSo8QJJkY+hPfmmB7vqOu2uuaJeWtj4vi0ITajdSyCSEuZ4XPy9CCB1P415RrGnxadqUlrZ6jDqUCAbbiOMxqxPUbSe3FYsZjJZlmZSMjnt9RU8S7onY+a0UbBDKFJUMeQM+vXikB2Hw71ldA1i8vpZ2hzYTxIyLk+YQNmPxH6VBofiC5t/GOn63qkj3c8M6yynPzP24rnFUCONv3ih13ISDhx03DPUdeamt1aaTbEGfYu9yqlti56t6D8qAPQ5pPD2i2XiSfS9ak1KbVYGt4rU25TyQ77izPnnHsK5pr21k+H02kyuTdNqguQn+wI9pOfrWVaadfXsUs1nZ3VxFEf3kkULOqHqckVWyGUHJwfTnNAjv7Q+Htb0Hw7HqetzaXe6TF9neP7P5omUPvyvPB4/Wtaf4k2jWlxJ/ZdtcyXGqyXL211GHCwFQBgngMcV5jHbXEt39mit53uclfJEZL56kbcZ/SmT281u7RXMU0Eg6pKhVhkdweaAPWU8X6Tca94mnj1680xNTs7dIJ/Jy1syFsxoB/CAf1rz3xVYaVZNG+k67NrEsrMZmktjFt98knJNZUVtPLbzzxQTSQQbfOdVJWPP3Qx6DNNjtJ545pIoZJI4FDzOi5EYJwCx7ZNFgK5BJPOal0uZ7PVLW8jxuglEq4PoQf6UsFtLcTxwQI8s8hwscalmY+wHXvVvT9E1LUd7aTp15diM7ZTBEW2N2Bx0NKwz6h8Palb6xp0F9asGjlUN/unuDW/bn8q+ZfDfiLWfCV5Lb+W8Tof3ttOCuPw7cV6Nb/ABeRYAz6MzOBztnAH8qQz2JZEiDSysEjjBdmPQAV8mePdXj1nxLqGoQA+XI2Izjqqng/1roPGnxJ1bxFataFY7KxY/NDEclx6M1efTyFo2GQowTn1ql3Ez7gtG3W8R/vID+lWBVTTTusLU+sSH/x2rnbmgQ4UUDpRTAKKKKACiiigAooooAKKKKACiiigAooooAKKKKACiiigApDS0mKAImxmoXHHWp3qFuKko5T4jD/AIobXuMf6FJ/6DXxnrBAijB6gAdfavsj4msR4C8QEHB+xyfyr4211uYwF96aEw8MKh8R6Tv5X7XFxn/bFfWniHwb4d1zUmvNX062uZkJO90OcDnBx1r5L8MHPiLSwV/5e4v/AEIV9h+J5mOkamYtyt5UvA+lRNu5SR84eOPFc2t6iwt28rTYD5drAnCog6EAcAnGfxrkzcSddzZJ60yN8onoowaWQg5HUnnNWI2dD1S5tb2FoJ2hl3DEg6g+tfTPg2fRfH/hyG51TSrS4uLZzFNFNGH2SDrjI6HrXybDIUniVPvbhj2r3H9mS/kuNW8WRZJgxDJ9Wyw/pUtDTLv7U8SQfD/S4o0VIlvVVVUYCgIcAAV8qqfQmvq79qsD/hArE/xC+Tr/ALrV8oA+o604u6Ez6U/ZohiufBOvQXKJLG1+oKuMg5jro/HVxpXw28NyTaBp9na6jqD+TGYogpyBksfUAHOPWsD9lsMfCmvAIAhvIyCTyTtOR/Ks79plpVv/AA38v7gJcDOf4yU4/IVDethra55TfXkl3NJLcSSSyu25nY5LE9yap+a/mZAIA70isJBwOPrQ8obhc4q9iT0X4VeL5dH1hbe4fzLSXgq5ztPqK+hbe2t0unkRIleQBmKjBIz3Ir4702QQTPMeFhieVj9Bx+tfXvhtsaJp32rJma3iMmTnnaM1nNWZa11Pkf4wiFfiJq6wDAEzBhjHzZOTXOaLqN1pOp297YSmG6t3EkbjsRXSfGWMR/EjW+MBp2cc9ieM1zuhw282oWqXoY2xl/eKpwWUckA9s9K1WxHU9fsfjr4oNqyx2BnUnDMsZdAfbj9Kwbnwlrfjm3k167Gm6Ja3ErE3F6+15374AGcA+1dZ4l8aJfWsX9jRLpmmwQFre3hbByBgKQBj1J6Vx/jKe9t9E8KXs6PNpz2RZcklRIXYtk++R+VR1NL6GnpPwj1Z9Pie01Lw7cruPzHzCevXOP0q5J8I9cEYP2zw7n2WTJ/StL4DPc6iNalSN1sP3aqxB2+Z8xIX8MZrttV8XaBpkpilu/PkwQywDfj2J6Ck207Alpc81T4Ra/MuftHh5MdQfMP9KZJ8HtZe1mZ9R8NxRKDulPmKF/EivSdH8caBdER+ebVjgfvgQPzrmPjtcXC6Ho91AvnaZ5rmYIDtJwNpPt16+tCk27BbqcDe/CvWfD2lv4hstQ0rVrW1HmSi1csUUH72CORXRv8AFbx9fWC2kGl3LI6bFMNuxLrjsQPSsL4e6he3dt4uFjGw0xtHmNwqfcRv4PYE811Hwv8AE8mneMG+0JdzWZQKslpHvKqhyE9Ap6sfYU35grtaHjXibWb/AF7UWutSlLSqojVMbVjUfwgdgK7r9nPI+ISDJ5i2gD/fWl+Pd5Yal8Rri805VUSQjfgfeYAfMfc0fs5An4iJ1BMBOf8AgS1XTQg+odf1KPRtDu7+XcUtYmkYd2wOn54FfJ3iXVLvUNSuZr2XfdSSEuQcgf7I9h2r6L+KFrdv8O9djUAv5HmAAklsEHH5Cvl27mWe7eUNkSnzAfc81ENypMFDE7c59yf51bs5GXjJ/A9PxquuMdOCadvOSA2CeFyf1q7Eo+lvhJ4jbxD4Sia5y15ZyG2kJ5zgZB/EEV5t+1UqbfDTRqFH+kA857pzW/8As4I82m+IrlWZbeS8RIv9rYnP81rC/arGbfw3k95x/wCg1K3sVLa58+YORnPFfXfwFdh4PQKeBb2w47cPXyGvzE5bnNfXv7Pbr/wiW0nj7PbEAfSSiWxK3KPx615rXR7fTIWIN0jyTYJBKKVUD8S2fwr55Zg+Tk5zXtH7SVtLbano19tH2WaGW2Yjs25WXP15/KvD/MJbnBGegNEByJlOOvSuh8Ia5ceHtXg1G3dgIiPNHZo8/MPyrAVvMxtXiluHP2R4YwXnnxBEq9WLHH+frTewk7H2hBLHIIpEYsCVI46189+GNMluYvF11pXh2w1vVhrzRbb1AQIiWJxk4HNe66JbiCK3i3EtbxpHgccqBmvBPDOkalrXifxHp9ncywwLrMtyWjOwRSIWxLI/XaM/dHWlDQqR0iaX4PsNZ1tNLTw+l7HfxpMNVUtbopTLRQnoG3E/pWL4PvrO3Xxq48I6QLPT7aW/tjNAZgWL4VS5/hxzgYrsdCj0uW51KSx8cnUftMoM4GkJLGsoGNw7ZwPeuK8VeFdV0nQLzWPBWvS+INI1BGsr1FhCyREsOiD3GOmRVJkHj2oXLXd5PclIozJIXKxrtVSTnCjsKrm6mzzI+3/er2ez+EegaTa2cPjzxPLp+uXaeaLC1jDmNPfrk/kKtyfB7wjqX+g+HfFt02syIz20V1EoSQjqMgD9Pypi2Ob+BUOgPeeI5PEy2JhhsA8X21S0YO/5jtHJ4x/k11/ijwxpMmja9rej2WnyW0mn29zp8tjCyAIZHErMpJ+bpz6Vl/CDw3q/hnU9d1XxG8GjaNaRtZ3j3sAlWZifuIONw7kjrxXpWn6fapqVn4u/4SrUFs1t9kMUdgkVsIOuBFnOO9MD59+JGkWukTeH4bW3Ns8mj281wjDDea24ktnnJ/CuP5/uAAivW/iJ8NfEeoeMbS5066fX7fW23298OABjJEmOFAB+mKvWnw68AJHMt54r1CaW1fyLie2gUQtL3VCc7sfjSA8WGR/CMHilD7Two9817X4m+DmnnSZJvBupXl7qEEYnezuVUNPCc/MmPoeKzPCPwt054tNTxheX9pqeqc2GmWkO6coOskgP3R04OKYHlQdh/CuO+RXuegeGhfap8L9Rh0qK40n7Gft8ioGjR0ZmYyfmOtWp/hT4Bjla3OtazFJ5nlCVgmxG6Bjx93PeszQPh34ssb3WPDeo6xLpfhJFE99fA4hli5xsyepGcjOPXPdAO1TUHvvBvw7WSC2bTptcljfbAoR0SVRGCQOhBb6103jfw3o//CP/ABD1vSEiUvshmhCDdDPFKSxHoGBBqxEng/VfD1jZ2useJ7zR7Jla38lQqK0fK4+UbsfjXJeOvCtwnhfUNf8ABOsX2p6FfOG1W3nOZlkUk7n46c8ii4Hju5jghFBBp2+RW5RfXp1qudxyQ3HehNx24fNMD1j4K2+lLF4h17V5UtpNJih+zyvB5yQtIWBkKfxEYAHpk16H4lgj0PQ9c8R+ALUHUb2Ozm8yK1EjGN9+4qnYEgE15z4C8LWlt4Uude8c6hdWHhq7KJFZwEiS/ZckHH90Z49cmvRtPuvCekINRtP+Ert9kKwFhOSyxKOAVJ6DJPrQB5p8ayyeK3n+yotzLp9tNMoTGJSnzAj19q9Zhbw3DZHwWsVw0cui/a/IaNfJ3GMuZC/XeT3riNb+Fmra34qgvNE1Y6loWq5n/tOdt7QDjIk9cDp+RxWrZaZ8Pbm4uI7JPEOptbp9nlvkuWVZRjBAORkY7DjpSuM574om9ns/B2pXtiYRPpCI22PYqsDnaB24I4rqfhxqej+GfCPh9rqG6W71q+lik+zoredtYIqyE87Bu6D3qp4j8KWPiyxuI/Cd5qqa5pQOdO1OcyGaM4+5k8dOCPSo7XwxoHhex0uHx3LfXeuXQ3w6fZzFfsadeSCOp6n1HtTA6LQtP8QWOpand2EVz/wjmkXU0VjplmAv2xyx4b/ZBPLH0xXEfC6K0bxjq+oazblP7NtZ73aig+VKGHIU8ZXJwPpXaKvhC1gii8vxBpttMxh+1LfPshZv4m+bjJPp3rn9M+F91pGp6jc+LNSW38M2ibmvIn2teoeQgAPHQZ9+nWlcVjoNenvNYbQ9Z8E/ajdXdnNHeXWxFunhjkT7o/vEk4x6VyvxsXOp6IzecZG08FhdqBPkOcebjuecVu6PdeB5hDc6R4f10+SrGFkumVgCedo35GetZviDwOPF6xa14CmmuPOkEN7Y3sxMts443FmycDuPyouM6jwJqGjafaeFtAeGU/2rp3myIpXynZ872kHUn5ep6Vj+G9b8NN8M/Eei2ml3CpaWnnXMjOFNxIW2hgeTwQMegFVW03wLoV6uk3dtf69qdpEDd30Vw0UUZ6beG4HUAc1cPhzwTrFw2iabZ3Xh/VLmFZrS5eYvHNjouM4NO4jE+F15puhaB4m13UhcLPBJb26TW+PNjVslgueOcc+1eiXV7NAuqT+HvDsuo+dJa6h5ENyISTJFyWA69Bn/AOtXn1n4N03wjpEl58SFluJJpPJtNItZSTMRx5hwRnOeM9M+proli8JWkMl4vhfVIwhCSvDfMZAo45AbkD0pDPPvifBa23jjVI7UttLLJIGfftkK5Zd3fB4rlA5UcnGe/eu2+IXguPRYY9a0G6+3+Grz5o5wdzQlv4W9evX8K4d5cQhRt2k5zxQIaSFXlifau6+FXgCbxjqLT3Qkh0aFgJZRwZT/AM81/qe341X+GPgS58Z6kWcvBpduw+0TAc5/55p/tHuewr6r0nTbXStOgsdOhSC1hUIkaDAAoGXYUWNFRBtRRgD0HQCpQOKap4pw6UCHUUUUwCiiigAooooAKKKKACiiigAooooAKKKKACiiigAooooAKQ0tIaAI2qFuamaonqRo4z4pED4f+IP+vR6+ONdJGznFfY3xYbb8Pde4yPszD9a+N/EIAePIIOPzpoGS+D1MvinRwWwDdxdP96vsHWbi3tkne7nSKEsUJfgHJxivj3wdNHB4r0WSdtscd5GWI/3hXW/E7xHfXnjDWrXUHlCwXTLHGSQEAPykD9amUW2VF2RR+Ifh258K668MsTJaSktbSkfI69cD3FcybhguAqjHctX1p8M1g8ffDG0Hia0ivFDPDmQfe2nG7PrXMaz+zr4euJw1hfX9khb/AFYIcAegzQn3Ez5llvjE3yPvlbjgdPpX1j8AvB1z4U8JSTakhi1DUnE88ZGGiUDCoffBJP1qfwR8I/DvhS7W6ggN1epytxcneUPqo6A+9eS/GXxTqsPxDu7S4ubiCytFUWsMUhVTkA7zjqc559qTfNoikjv/ANqjA+Hdtzg/b4wMc5+VuK+TlbJ9eehr2rxr4gvte+BllNqZZnTVvKjkbrIoUnP4dPwrxMDJ44px00JkfT37LgP/AAh+t4XJ+1pgD/dNdN8XPCsnivwy1pbxKl5byedA7EDDDjB9M15J8NNbvtN+D3i3+xWZLuK5g8yVeqI5IJX3wOtZHw38QX5+IGktbTzOZ5hHLG0jOHU5yTnuOualrW6KW1jhbsXFheyWuoRva3SHDxyDHNIZ0ZCXnVNo4wM5/wAK+wPFPhbRfEkWdVsYbpsYV2GGH0PWuKT4QeGY5Ny6e2PQylsU+dC5Dxz4deHbrxZrcNvFHINLSQSXMu0neAfu/icV9UW17pz3Tww3MT3Mf3442BKex9KwtT0g6P4L1SLQIvKvDauIPLXkNjqMd6+XtHur4XdraabbyDUlmBjCg+YXz37nnr+NT8epS0Lnxrbd8Sda+XaBMVxXJ2Mi/cdjGc5WQfwmui+Lc/2j4ia4yyrJtuChdDwSAAf1BrntDXOs6eCR/wAfEf8A6GK1S0M3udSs95pSGzuorOKdeGScEMu7nkflX0H4Lsbe++HnhyO8hW4iFoo2ONynGe1eHfHxcfFHUyMjKxn1z8vWvd/hqX/4QTQBkhRZIQO596zkkjSDujjvi14o/sy2h8NaOi2SNH5t00Py/IfuoMdM8k+1ePyTNIMcAD+Gus+LBY+N9WZht+ePAPB2+WMHH4GuNQY68jJ96qOxMn0JRK8ZIBJ7Edq9b+DniTzHk8P6mEntJQWhaUZCsOqEd89RXkjsCSFHPr61veDPOh8RaLJEBu/tGBV7ZOeQPwokroIs+hvFFnb2fw/8Rw2ttBBFJZTHEUYQElepAr570/xx4nu7K30Oy1GBo3xFHaxRY3n04HPQda+ivHrB/A/iBVYbvscp5PbFfLnwi5+Jugjdx55/9BNTBX3G5WMbWJZob27/ALQZptUZikpf/lnzgj612n7OrFfiTCq5GYWz/wB9A1xnjtf+Kz1zHa9l/wDQjXQfBC8Wy+I+mMzKgl3Q72ONpYcH88Vo1ZWITufR/iDx74bs7ufT9Q1FS4JhkCqWRCeMMQMA9a+ePiL4KvfC139ss4nudBnPmQXCKSFU9AfTFV9X8L+JNL1d9HuNLvLmVpTsMcZcTEnrketfVPhDw9NZeCtH0vV0R5oLZEmXqM9ce+M/pWfw6l2vufF8epphcP07Vo+HNJ1fxhqSadoduXJPzy4wka9yzdq+qr34Y+F7iWSRtFtCzEMW2e9dRommWelWqQ2NvDbQg8LGgQE/QUe0CxwHh7XPCXgGwtfCw1NBcWg/0g7SSZDyWfHAJPbPArgv2ovKks/C8sDiRH88qytuBBK85rg/FehazovifUra7trqb7RcySJKImYTAtnI45PNXPizDc6V4T8FaLqJ230FtNcyxsfnjV3GxSO3ANNLUG7o8vQc9Oc9q+qfgvq2n6N8Ori/1W6W2tILe2Z5Cf8AroAAO5J7V8rc9j0r1zwap8U/DfVdGtpIotQtpLaSCJ3C+aE35xn/AHsU5bEo9Z1bxL4W+KVrN4XzcWt7MN9ubmPYzMOhX39q+ffF3g7WvCF8YdRtZJ4FPy3CRkqf8PxrtvhJ4P1q98dadfXsRtLaxmEss0rBScfwrzzmvqC8t7G5jH2p4G74ZlxUXUdimrnwbb3c1wyQWdrPNO3ARFLEn2AFet+A/AMvhqFvGXjrFlb2OHt7Vxl95+6WHrk8L1719NWtpptmweP7LEx7jaDj61xnxr8NzeLPA89ppU8DXCSpOsZkGH29Vzn3pudxWOc8BePtF1TUI7SI3FtdTt+689AFfnsQevtXmnjO8m07wBrA092tze6/eR3Jj4aVQThSfT2rI8G+DtaOv2txq8Y0zT7CdJ7i7uHVVRUOTj1PH61u6B/ZvxB0/XvDwuvsWoSalcajYvJ92UPnCn0px12BvQ0fgza6PdaXc2+r3stv9nt0e2it3IZ2YEu2B1wQox3rS+HWpXll8ZYoEa4tk1CykluoHYHfKgOGbHGeCePWsv4eaBr+gxXcF5oV/wCfC253VSFOzoc87h3xWzodu3h/xJL8QPGrXGmWMS/YbCzkT9/clhgsV7ADn160RTuDSseb+D9YvH8Y3Wt6pM8ondYbq6kTzCok68H2BAFdd8XbmwtNFEfhlRDZ6bcK0dxCCpErKThT3xgZPqan1j4baloWrGfw0sus+HNSKzxywKHaHb0DDPPB4Na2teC9Y8SaNZaJHY3VrJNcGS7u7lCIraID7/PVsZ4H4kUO6eg9LHO/HTV7/UrXwNHfXMksM2nQXMqFsK8jfeYj1rrtNi0G5RLpBi+luWiWBNxMikg5bJ4XHP0GKp+J/Dui/EnQYk8E6g1xqvhuNbNYZSMXcSdCD784bpUmmQeJLOzjgl8P6oJDJvIEPzsSDgZBwAPrTnfoKNupzHgPWNRg+HfxMsILy4SCyhja3Ctjy9zOG2+gOBTfAGl6Vqdl4ftdThkewjQtKtudrkkk446DOM4rovDmkaD4P0+90PxtfNb6v4uULcQRMCLCME7N7diS3X29qTQfh94h0KaXT2spr2CEnyLqEKEkQnIPXg+ooldR0ErX1GX0Vr4d8R+HBpD3MCx60iRtK+XaCQ4Kf7vHQ1zeua1dWvxl8VzyTSNOrtAkm47kjBHyg9hjjj1rstU8Ota3Onal4p8/S9D0Sdb15JSDJdTDGyKMDryCT+HuRBqHhe28YagfGfghGuk1L5NQsXYeZbyHHzD8uR+IpxvbUGlfQW/g0loEuNLsZxdXERF8Z5C6FSMZVen+ArmfFuq3cvwC8PK11PNF9suIiXckuqZ2Z9cYrvB4M8SxW8pXS3adk8uLMqqqkjAJ64A71naTpvhHVNJi+G9tqsjajppaS31FgPLluTneEXoQOmCamN2OVlsRfD86O2ilL2wurmW3tUFv5LZK4Tll9MsT+Oap/Du5kj+K89nDJItvqGmSvcQ7vkd1TAJHc+/vWn4L8EeMtIsruCWyMEoXyZJAyussag42DPfJ44rHisZvh0l14s8SjZr91E9tpemCQFlUrgySEcYHHA6epJ4avcHax4OAqxqD1CikcJ5TjodtPJPAA3ADHTrTFG7jGM8VZB7B8ZLlpL/waoc+QNLtGVOy5zyB26Cux8NanZS6LPD5DSandTMqN5RwqcAnPQDGfzrK0yy0/wCK/hCwisStj4s0W3jijid8pcxp0/D37E1uWHgnxXaRK50ndIoKrH9oTb04yey+/wClZzT0saQt1OL8C3lwnww8fWkdxIEgubUooY4CsSGx7HFN+FGoRWTWT3qNLphkm86JerH+HPtmum0SLwx4CVvCevyf2hfawFbV7qFsRWpX/VoO5xknP51Ytfhdrmi3M1vpyQajpJcyW9wJlVirHOGU/lkGnJO2hKtfU5m/1NJ/i/4aurOOa0he9jWNCdp8suQB9OaxfGl3NH8TdaeMedOJ5wgcb84bjj2/pXo+q+HodL1ePxX4xjjtbXTdpsLCOUNNdTjkZx90AgcfiaTVfDVr4/a28WeDzBBqmSmo2E0m0ZOMtu/vD1xg01tqDauZPi7VYrnwLFbR2lxDcvF5t08oyD0AH1ySePSuf8W3M8vwN8IJNPI/7+7VtzE7tvAzz2/Su81TwBrtzpJsj9ghNwwD3EtwGEEfG47RjccDoCKit28D+INPPgCPzIrK2DLZaoz5Mk5++w+pP0NKCCXkZvgHWjZaawubcPELZTAsWFZSc8k+pwOc/hVL4Ytd23xO1m2mlZZH0268xUY48wBTn689a6HQ/hv4ksYBb3FxppWJtu9LnHmKOhxjjp096p2S2Pw11J9Z15bfU/E+oMyi0tZtyWlucBiW/iJGO3OOO9EVrdg9tDzTwNqcmn6jNIrMLd2iW4KjOY+uPx5roPi9ri61ZQ3unwPBaR7o4mI2kMqksQOw6flXYN8PLa81SPWPBN/ZDQ7753gmk2NA4BGBnPHt2rT8SeDrWbSNLtPEl7Y2+iadunupoZgZJvSKNevOeT16ADmhq7BM4j403B/4T/TZxISv2a0kXv1U9B+tdPp2vp/YF7pk9sGvZJ223QPG3OAMfTjikuG0L4rWrpbLBoniXT2Bs/NbKSxL91W9eOvXFOj+H2t2kDSrf6ObogjZJdYVT6/SiSfQcbPc5Pw4C/wb8aRMTti1C3ZVz90YH5VyGgaRPres2mm2xAmuJVjRiOFz1b8Bk123jCfS/Cvhh/CGgzrqFzcusurahniSRcYVB6fyGO5qr8HyI/iNo4C55cdf9huaroT1Ppjw9pFnoml22n6dGI7aBdq8cn1J9yeTW0gO3iq0WMDFWk9qAHjpTgOKQCnUCCiiimAUUUUAFFFFABRRRQAUUUUAFFFFABRRRQAUUUUAFFFFABRRRQBG1Qvj0qwRUDdDSGjiPi4cfDvXj625/mK+OfEJzLHxnivsX4w4Hw517Jx+4/qK+O/EPEqY646UkNmZbTNFdW8kY+dJFZR7g5r2zXPEum6/cQS+IPBUV3qUSLunW5MQkHvgcj8a8VgBEyE4+Vl59K9daeLVLnT4LoKba1jA93JOT+lTNl01fc6CL4/22h2kenab4XgtoLcbEiS4wq49AFqOX9pafHy6FD+M5/wrh/in4atIfH66dosKt50YdYUP3C3QH06E1z5+F3icsR9iiUjPWZaLKSE3Z7HpE37Rt+xPl6LaLn1lYj+VYOt/EtPGTxrqXhnTLiZDiNmLEj1+auL1H4d+ILCymu7u3gSCFC7nzlOBXefB7wudf8CamdK+zyatb3QcxyELujZRjnt0NJxSWg4y11M3xJPr/ju70bw9a21la20J2W1ra/LDGe7MfXANeU7DHIysMFCVbHrmvoXwlod1oXiBNW1xI9PsbHdMR5qsz4U+h6e5r5/nJeaRzxvcnH1JNOL0FO17nSeC/Emp6At0NNk2rdYSSJl3LIBnqD9a66XXNW8GMuo21vpEFzP8oaGJS3Tn6Dmub8ET21o95LNbpcXAXZDG4yMt1Nehz6do3/Cttfa8hjW6jVJUuWHzb/7ik+vpUyaT1HH4TlJPjX4rJyLqNeOixADrVRvjD4qLlxqBBzk/IOaytH8Calrunw3lnJZRREbczTBCSD1x6VeHwq1cddQ0hf8At5/+tV8sSeaRMnxc8W3MiRNqc2HOPlVf04rYiN7/AGdPqEuuR2t8VZjGCFkPtuArlNH0NNC+IekWOrXFrJF58fmvC+9ArHufyr2L4h/Cu5l164uLGfSxp91g+bLNsKEAD7oBz07VE466GkZdzxvx14Uk8P2eg30kxlXVbZp8Y/1bAjK578MDn3rD8PDOu6bnAH2qLn/gYr0L43XVqkPhrQrR2k/sqCUOznJO8rjPoSEzjsCK4Lwvot94h12z0nTFDXd3II03HCj1JPoBkn6VqnoYtanY/HqaG5+J2pNA6SKqxrlDkZC85r3X4eYXwHok00ixolmgLMcAfUmvIdY8KeFNG1e10aZNTv75nAmujJ5ase7BcHA4OMnJp3xJurmy0vwrborLo0VqwSMElfMDEfMe5Ax196zk+bRFxvFXZ0Xxr0Oa6EOuaan2jbH5cwi+bcnZuPTmvH4Zw8ZHGMdhj869e/Z5muJ315GMjWGI9uTlRIScgfhitzxn8LtM1a7N1bRfZppMljEMAn3FJS5dGOSvseFiQIMswjT1Y5r0v4LaHLrOvR6zMpi0zTFPkbh/rpSMbh7KM/nV7Sfg3aRzrLfSySIpyUPANWfjUl3o3guwsdIUwadLMRciEnlAPlBx0Gc/Wm5J6CSa3PRvHJjbwJroiZXP2KUBtwb+Gvlz4WzRQfEfQZZZBHGLgbmZsADB611HgzVLu60/XbW3XytPbTmik3H5EZioX8Sa6Wbw74J03xJ/ZuoeHbm4toEAublLhzsJ43N7Z+lJPkdmNq54941ljn8X61NbyrLDJdysroch1LHBHtVbQrS5u9Tgjt28tiSTIcgJjuTXf/HP4e2/gXV7KbSZZZNI1BC8HmHc0bD7yZ7jkH8a4bTpistqZ3b7PuYNjtmtN0QtGenwa/qlr4Qa+tPEV/cXsab5Ighbbzj73pXK3HxV8ZLIdusXKqCOw4/SvRvh3qh8NW00ttb28iywGJjNIFiUE5Lse/c4/CvJ1sNL1zxHqTS6nFpemGQtHPIm4NjoAP1rKKV2ayukWj8VvGTSJIddu/lHAyNv4jHNT/8AC3/Ggx/xOpiB0+RT/ShPBnhXBMnja3/4Dbf/AF6x/FOgaHplosmk+Ik1GdnCmIQ7cDHXOa0tHqZ80j0vQPGniC+tFuNY8RyWTMAYSYgxYHgkcVkat4dh1r4ba54mvLprnWLa+QicyFmeInb82e+efwFdFp0PhvV/D3hyTT9Ujs7q0tVSVZ4zMBJ/EMZ456dqj8bSWHhX4ZX+kC4Wa/1u4jk2KNpwhyz7f4V6ACs1pI0fwnhAwGAwCO1eg6Z4atbbwzoOs3jyrbXs8izELnG3+76Acc9yfavPx/k17t4UbQvEvwq0nQ5dUfT9RsJZHJaPzFJY55UYJGMc1pPaxnT+I5PUtHiuLa9vPDEf2i0tYCZ3lzmM8nPoOBxXnR1G4OD5sn/fRr369l0zwN8Mtfso7uG6utUhKCRAVM8jcLgHkKqgkn1YV5fpGgeD59Mt5dR8T3FteMo8yJLXcEPpnNTBK2pdRu+hyX9qXWDmeQk+rH/GnpeXR2jzH+Y8YY812g8O+AwOPFd7/wCAtYxTTdP123lsJpbzSoJuJZE2sw4PI+tXp0Iuz1TwZ4H07xBq9nbWclxNF965kaMlYRtPJ9yelcp4a8BXF/421KGG+Nho+jzb7rVGO0QqCSNp/vHsK734Z+IJNCiv7hbq2CXMBaV94xGeob1JUZGO5Nc7q90dV+C2t30DFYZvEPmFS3LKEHX16ZqYFVNtT2zwbFb+LbFtQ0i68SiwLFI5574xCfBwWUYzjI7gVw/xR8AT+K45W0G61GfXdJyk2mX9x5jSRseHjY9M8exx7VV/4m9p4T8LPax3QsptOjZXtw5Bk6FTt6YAXA9zWoX1K1+Nfw8GoNLHezaXsuQxwz48zhvccVSbZDStcteDNJtfCYsvB95quq3+uyJ9ruobC6MUFgn+02eBz35J5xXS+MPDmkHShbapqGsxWGor9n+2rqTyxRufu7wexPHTHrXkHw/W9fVviDLZpJcXimNmXBZ2TzX3Mf72K6FhqE/wq8c+dFcDThbo0XmoVUybssVyPYZx7U2wtdGb4Z+Hc/w+1fUPEPjDVJbLStObyrdrNyJb8t0VQOQOnHc+wr2Kw8PW+oaWZANYil2CQ2cmsSecMjo2DhT9TXh3xIuZptH+Fss0rHNlC5ZyTg+YnzYPfpXaazBrth47K21ndidbtfsxjRirpkcl8Y5GSc0SBJM5rxl8LZPFWoxaz4Ou2eC7mMWoQ375ksXAO4uSScDHT2Hau78FWnhW4sfJOp6tJY2v7iK+n1KRPtjLw7JGDwgPGen865HMieJvjdEjHmx37QcDODz+R60ngvT7w/CHS77S4Jpned47rykJdY1J2hQOQuSScDuKG3YLHZfEX4d6PrdjbWdreXUF1N82nXc1480byAZMbBjxkdCPf8eI8CeErbwVcxWPiKe4m8Raku9rG1vWgis7dScyzSL+nHsO5rT8TWt7bfCGCa6jmgZtbt5IlcFW2+YBux1GaDbrd/tLa1aybf3tuCqsOGZUVlDe2QKa2Bqx6PL4Z8OzadO1nLe6i0aEvFHqUoZl74y3NeQW3wj0611v+3pNdjTwLDGLxboSbZRzxD6gj169sZrsPAOna+vjqyOo2l7E8Zd7mV0KoeMdehyTwBXAa9x8GtSgAbbB4iukCk5x98/1qYvuDSWx7D4Wt9D8T2MV61nNYpcrvt4rq/k86SPOFcoGG0Ht1rgviF8PbLxCt6mgLJY+JtKTMthLcGb7VCclWRmOegOPfg1NdadrE3hrw1d2tncXtpNpsLBoI9xEmOc45HG3HbAq1FbXdl8cfAseo7vtn9j7Js8ncA/BPt/ShA1ZHzK644JYNnkHjFNHOOQKtakoTUbtSOk8gx/wM/4VU+XuDk1RJe0y+urGdZbW5khlH8UbFSPxrWbxVrRyDqlxj0MhrncDGakRAUduML6nmkB2Xw/8MXfjLXZIDeLa2kCfaL67fpFF689WPOK998HN4W1tZo7XR7KHQrNvs0OoXsrNJdMv3iq8fKPUn8K8h+C/OgfEROgbSEb24Z/8a67wTpWpaj8O7KbS7eS5t4ry5WaKPBbcWGGx34yKG30HY6nxr4R8L3NymiXlnZaPJeqZdJ1W2OA8gxuRgTweRx3BrF0fQ9P8ETW+i6hb2OveKb45uA8xjtrKEZOSfpz0yfbvnfFfT73Tfh/4NTUw0c66qW8tjkxqSCoPp0H0rW1G0S5/aGmg3BXdJDHnkCQwqVJH1AP4Uwtqdtqfh/w9FpEmpWGiaLqv2YF7mGOPDFAPm28nkDsevrXn8PgTwtZyv4p/tdJfBQTzo7YE+Y0nXySfT269q6jwroGuQazLNeWc9tDHbTLPIxGJCVIAH97nmvJ9OwPgBNECd0esurZ9THn+tJPuNpHtfhO10LXtMiutT0fRNMNygaC1IDyBDypcnAyRg4H581y3ibwTpniS/m0ewhsNB8V2ZDIkQPkXkJ5DY69PxHTpV5tD1LUfDeiTafaPcWsunQGHZgBH2DOcng55zUE1rLp3x58IQ3UvmSjTPKZ+u5gjZoTE0TeErfw3bai+gaPaaffW9igfUdYvlD75WyAiL3J2seuAB3rZ8Y2HheLTklu9M0ufQpyIJ7q2UJNas33XyO2foRx1rhvgrZtdz+Mbe3w9wrQlVzjKhpMgfXj8q3vGeg3lj4B8VTXERt4pkhWNGxyQ5ycD6gfnQ7sdkYcXhfRvh/i+1JrfxJf3cgTRrMABXUkASOen8QHpXpsGk6RPafZ3sfD666yFlgNvmIP1xk8sPcY+leO+IWT7N8J5pf8AVm0twf8AgMiZr3LWfD017dQlE2ulwkgnDDhQck+vQY/Gk7hY8S8b+HtM1PTbzxD4bgTT7mxbZq+lZH7l843L+IPsRzWJ8KTs+I2i5zzKRj1+RhXTGPb4j+LtudpZ7IS/gJG/xrk/hm//ABcLQi3GbkfyNMm2p9ZRdBVtOgqpF2NWVoGTUtNpwpiCiiigAooooAKKKKACiiigAooooAKKKKACiiigAooooAKKKKACiiigBrCoXPHA4qc9KjcUmBwXxkJX4b643/TID/x4V8e62oadWJGO2P5V9ueNdDHiPw3e6WZvJFwu3fjOMHPSvEL/AOAd9LIzDW4SM/d8n/69A7HgVuVhkJdd6Hqp9K3LbXGtE22szISAqsU3Ffp+deov+z/qgJA1m12/9ciTVWX4CaopyNWtSvp5ZzQ7Maujye81Ije8LytdSHdJcSNls/Ws03d4CQbmcj1Mpr1u5+CWoxA41O3PtsNUZPhBqCkAX0HA9M80kG55bJcTSIVkmlcH+EsSK0dB17UdAlZ9Lu3gMgxJt6MPQjvXct8KL5Tg3sX4Coz8Lbscm9j4/wBn+lDsCutjjdU8R6lqMEkM9wfJkO50QY3H39fpWOAOpr0n/hWV0FIN2meucU0fDO4H3r1Meu2hWQO73OIsLuOGVJXLrKhG1l7+xq5qOr/biGvJri4CnKxscLn6dBXVH4bTgn/TAcdflxS/8K2cNn7Xkem3+tGgK60PNriaSdy8jZPYHt9K1PB1jHqfivSLK7Qvb3F1Gki5xuUnkV2h+Grcf6ZyR/drR0TwVNpOo2V7bzoZ7SYTqWU/MR0B9qLoVmWtC0bw/wCML6/t5NEttOTT9VitSbViPMjZmBDf98frXSeB7608TQJc/wBmxWYsdQktUSBi29BE7ANnvkVDqsus3ksDQNp2niK5F3ILO32GeUdC56nGTVie815r20ubSawsmtpHmWO3tQiPKy7S7j+IgdKNGPUyfh94LtodNtbrxzpMouZLu4mna7U7zELfcD/M1Z07TbD4W3fhzV541kguNTuVF4vLNavGNhz7Zpyt4k/s2O0k1hpkXzsPMm98yjDfMfYnH1rE1Hw7qGo6DpukXWoF7LT2ZoY9v3d2O/Uj0pXQJHqeoz+D/E1nEINVOmrA2cKgk80KNqse+ce9eKeLtbk8Pxz6Xp2oxajpbyFo454gz5/icjooJ9+af/wr5OB9tk/DpUZ+HMR5+1SH8KlaO5p0J/DvjjWbfR4ks7/S7GEkkQ7VQj3IxV2Xx34jdct4h01R0wMf4VlH4bwAEm6kJPfFJ/wriA/8vT/9807K5Opov438Qlkz4g07Kg4wR/hUOqePdeuLN4rnXLCSAj5olCncOuOBVZfh1bjn7Q5A68UH4c22ebmUjOcAUWV7hqc/aeLbu88nT5ZEt7IzCZkRQiswxhmx1xXtskfhKDTRLc+J3vJJwr3EIUBrgg5AYk9M15qfh5bNtzO4CjAwKX/hXlpjPnyY9MUmk3cabKvxe8aJ4lt9L02zw8FiZZpJQfleR8cL/sqOM981wEBdInyhK9wTwf8AA16SfAFtxieT8qVPh/aK2PNcjGOelUmkS0ecG4zCEMMmwdvNJGfaqszyykYXYq8BR2/z616o3gG2Yj96/HQYpF+H1mGDGWTI65oTSFZs8p8uQA9cHvmkMTj/APX1r1n/AIQGzIyztnvgUp8AWAGC8v1xT5gszyuCS4tnDQu8b56ocGi4M08hknkaR26s5yfzr1YeALHgbnNKfAOn8jc+B2pXQ7SPJDCw649vapIGnt3328jRsP4kODXrQ8A6aBk7yP50DwHpucsrkduafMhcrR5NdPcXL+ZcSPLJ03O2Tiq5RiSMH2r2M+AtMPRHx3wetNPgDTSejj6UuZIfKzx8o+Bg8H1qa1lkgOQAynqp6GvXP+EC0zfgK2fU80o8BaYONjn1+anzCszygSqQV+zpn6n+Wa9Q+F2taRq+iXvgrxMot7K+k862vEbaIJdu0AjpirS+A9Myf3bZ6g1KPAulZw0TEZweetK6DlbPZvCn/CZaDoNpo7abbzw2ERgjuIJVbzwv3DtJG3Pvmud8b38fh7xUvjbxdHE9/aQC20XSYJwXfGd8shHA5bpziuEj8KWi42tOoxjiVv8AGmv4N0+QhniLHoCzZo5iuVnovhXThDrVz4s+G7Wl1Z6zEBeWk8wje2lBLZGfXJyvFdB40g1zX/C9zpOrSWOmWN0w+23pnXMNuOWCjuxxjsB7145H4O02MEpGyk9SGxn8qkfwjprghomb6nP86OZBynSxXfhH4gwR+HtMUaZf6GU/sS6uHyJ1Qgjd7EjkHsc16fp+oeK3eObU49OjCDLQQXSkSH03EcV4Uvg3TIwNtuMjn6VL/wAIlppyTAD9TTcri5Wb1/r2heB9U1BfEKQaxrXiGQ/20LeTMVpbkHbGv94jPsTyfQV2Hw90+90C0a08O6pptz4ak/e2c0k43qrZOxl7kZ65FeX/APCI6Xn/AI9VAPPTmhPCOlqCfsqenSjmCx6t8TdS0+LRbSTxZeW0umW0wuTbwShpL2VTmOMDsoxkn6dBmuQ0PWbDxxq0Xinw+1npHi63Hl3lnPNhJ4yeCH9sdce2K5keEtKViVs0BPOQKVPCWmKWxbAcY44o5tBWPfDq98un+ZJqOim5VD8v2kBN2OCx9AcnjrXjWm+KPA/m3Hgm8j8/Qrgu0usO21prtj80vH3VySAR/KsgeEdMAx9jjyevy9frTx4U00vn7OoPqRRew+U9U8Lf29odlbae2u6FdWNqoihbzwjSRLwuRzhiOvNcd498S2PhzXrzxLfXWn3/AIpeM22lWdtL5kVjF0Mjt3Yk+nsO9c6fCulnn7JFnvlRSv4W00gA2qbfSi4crPEZ3ZpWkkbLuSxJONxPJP61GRgAHA/GvcT4V0zaN1qCSMVJ/wAItppGDaoR0HtRzByM8LUFhkDpyTT9+RkKMZ4+te5J4W00Lzar9KenhfTgM/ZE9T6UcwuRnnvwu8YN4Q16SaS2jubG8jFvdwMMl4854Hrya948OvpNjHc/8Ix4z07TNCu2a4S1lH72F2+8ASwwM+2RzXHJ4W0wHP2ZDn8qfH4a04MSbSLsDRzD5Wb3i3UvDFmtje6vrNprltpILWWmwP5j3FyefNlYk8DHAxgZPXpWdZeJNG+INpZ3+oXlp4f8W2L5+0Op8qZO46gkdPcVB/wjenAjFqg7nHGakXw3pvT7HHjrjH9KOYOU7268SQTeHbiwfxxoq3VwNhuQnMSYw20bvmbngnofWvO9N+IHhSwuv+EWg0lW8GGPymmZSZJJCeZjx3z9e9Xh4a0wnIs48+hFSp4a0xsN9ijz7UXDlOh8H6hY+G4Y7dvH2m3Glw8QwuoDiMDCqzbuo9QK5fxj4w0rQNauNftb+013xPc4itXijPkWEHcDk5Y+vXmtCLwxpW3iyhP1HIq2nhrSuMWEI/D9aLisVNO1bw5reox+JdE1y28NalLGEv7W4TKyEchgMjnqM9xWz4x8ReHtX0aC11bxVZXGnQkTXVvaRky3m3kIOflBP5+1V4vDOkfKGsIG+q9quJ4Z0gcHT4SCem2hMLHG2HjzQvGNtdaJ4ns10m0Vg+l3USf8eYX7oz2IwPY8iuy0/wASaZCIZbzxrpl3LCuEcoygNjqUDc/pV2Lw1o+4FtOtif7xTJq/b+GdHVhjTbX6+WM0XuFjxXxp4rsNK0q50bw9K1/PqDmXVdW2bWvGP8C+ijJ7+w7mud+HMzyeOtAdEYMbxcgjFfTcXhzSOv8AZlrn/rmK0LPR9PtJVmtrOCKUcB1QZFO4GovXjOKtJ0FVkHGD2qwnQUCJhThTVp1AgooopgFFFFABRRRQAUUUUAFFFFABRRRQAUUUUAFFFFABRRRQAUUUUAFMYdafTWAPWkBXcfT61BIKtOOKgYUmUVXUelUp0yDWiwNVpl68UrDOfvV6gjisSePk10l4nORmsmePJNAzFliBPSqbwD0461tvFgHd0qs8HUDpSKMdoAQeMe9RPBwcDNa7Qc8jFM8nA5H0osIxzAcZI+mKQ2/BGBnFa3kgjOCKYbfJ/rSAyGtzjGPypDb88jOa1/J56e9Ibf0x9aBmQIOvHA6cUgtjj6/jWy0PXtkUwQYzwQPalYDJ8ggnAo+zkDIAP9a1TBjGQeaTyMZ4wRxRYZki24Pf0oFrkHitjycYHegwDuKbQGM1sOSQM0fZsDkZ7Vri3zjAx/WlFvz0xRYDGW2xkAUfZ+fu8VseQerce9L5B9KLCuYxtR0A70j2xCjitcw5xgc/Wnm346UmBiG14460ptuOQPqa2Ps+evSlW1PYD60kDMY2oOO1KLXkk9TWuIPyB4pRb5OcdKpjMf7McHOeKDajjjNbQg5yPxo+z4X61IGL9mIGMdKd9mxwBwa2Bb8Ypxt8DOMUAYpteckAkdqBb4ydvTsa2vsxpDbY7Yp2EzH+z/Kfl4PPNJ9nyTgYBraaArkc80htyCvGaGhmT5GDgj8BQsA6Ece1awtvu9utL5BzgDPvQhGQYOgC+9KbY9wM1rfZ/k6ZalNvnHBzQx3MoW2WwRml+zE5ArWFt3waFtxkDH5UkBki328dad9mGMYNaot8hsfhmlEB644piuZAt93bg0vkjOcce9azW/HH4UeQRyBzSC5lG3G0DH50CDPUc1rGAk9OaDCSMDp6U0BlG3AA4waBbgj7uK1TB83SjyDjOMfSmBlfZgGGOO2MUeRjsRn0rVaAg/NR9nJ9c0WAyvs4PGOO9OMGW7Y9hWqbcjqKUQcYAz60kgMkWxznHFOMHOccj1rVEGemB+FKbc4pgZQgGMY4p4g4wBx/KtJLfg8U4W5yRjqKAM3yR0Az9aesPK+laKwdMccU8Qjk4/ChAZ4g6dMfSniDA5PFXvJzipRCcdOMdaYFJIMjgD61OkGO3HaraRD+7T1i6dRTArLGBnA68VPHGM5IqYR4PFTLHn2oAjWMZH071aRTkChY8djmrCRgj+tBA+JcnNXIlwRUMSelXIkyKALCAVYjFQxL61YUYFMQ8DnNWEGQCetRKuamTgUxMeKWiimIKKKKACiiigAooooAKKKKACiiigAooooAKKKKACiiigAooooAKKKKACmugbGexzTqKAInAxULCrLVER70ikVmUdTUEq8GrpHtUMqgikBjXSZ6VmSw5z2rcnTk+1UXiBY5FIpGQ0IycYqBoe9bDxAdOtQvF8x47UijIMPtmmmDnp0rVMXI4/8ArUGHjpQBkmAAe9NNuMgkVqmHnpSGCgVzK8gA9Kb5AB6VqiI5Oe9Hk45NAzLMH+zSG3Jx2961TDkcUnk9PegDKNv37+tNNuMYx+Na3kg4GPpS+QeaQGT9nHy5H50hg4wRnPatbyPWgwjHTigDJFsMZ79jR9nyema1hDntSGD24pgZRt8cenWlFv27VqCI8ccUGAN9aAMsW4wcfhSG26VreR7UCHHXrSsIyhb4HHXvSi3rUMWR0+tKIeOlAzJNuCeBxS/Zs9MVqiHjOOKPI7UAZS21OW3GeR+NaogzyOlOEIx70WAyTBznBNAtgef51reRwR0FHkE/SiwGR9nz7ml+zggcY9x2rW8knjpTvJA6jrQBj/Z+M4pRbf7Naxgz14oEBxjn8aAMkW+AePxpRb8dPwrV8jBHHWlMAxigL2Mf7PnFO+zcdOlav2fFHkZHFAXMtYMgg8fWgW/HA61qCDIzQIM9qBXMs23KkjNHkDp2rW8kKeOaDDnPFFhmSLcHOVoFvnPGTWt5JAzgY9KQw+gOO9FhGX9m544+lH2fk8cVpmDnvThAMdM0AZX2Yk+9KYMDAFafkjrzTvIzg+lMZlC3zS+R7YrU8kAdOlAh5PBpIDLEOe1DQnHatQw9iMUeR+VMDNNtnaSMY6Cl8jI46VpCHGe9KIhzx1osK5mmHAxQsGByOO/vWkYcgDFK0WOOOPSgZnCDntilEAx61o+R0NOENAGf5PtmniI44HFX/JA60vlc0CZR8oDGOKesR/A1dEIBp6xUwRS8oA5AyRUix5FW1jp4jAGMdaBldI+amWIg5HSp1jANSRp1oJuMiTmrUS4I9KRExjjmrCoOlBI6NeeKmVKRFyKlUUwGqCKnTpTQtSAYpiCiiimIKKKKACiiigAooooAKKKKACiiigAooooAKKKKACiiigAooooAKKKKACiiigANMxT6MUgISKiZcVZIqN1z3xSGZ8yDpiqjRjOSDWlIuarsmR0pFFBo89qY0WO9XinNM8v1HBoGiiYR2pvlDHTNXjH7UmzmgZQMfFIIqvmM0hj9qAuUBF220GIdOav+XzSeXmgGZ5iweBR5PPSr4jyeaUx0Emf5PH8qRohir/l8c0eXQBQ8rijyjjir/lZ6ijyj3HegooeVSeUe/StBoiG9aDCaAuZ/k9MUGL5sdq0DFxQIuKAuUBD+dHlYq8Y+aPL70mhMoeVk9OtAhGfer/lnNKY+aBFIRDBpREauCL2/GnCOgq5S8rnpxSiHFXfKxS+UOlAMoiHHFL5IPHbvV3ys8U4RYGDQCKJiz2xQsXJ4zV8xUnlUBcpeVQIu1X/KJNIY+RxQMoCLOeM0ph46Crwh9uKDFgdKAKPlZ7YoMWetXzFgCmmLPABoJZR8n2pTF7cVe8rA6UeVQMo+VyOKTyRnHUVoCIimmPmgCkYeOlHkgdqvmLjpSCM9xTGUBF7UoixkAVe8sntigxUEsoCLB6Uvkk9OlX/L4pPLNAij5Q5IFAiz2q8YuelHl8Y70FMo+V3FKIuvAq6IaXyjQJMo+WQaUw4Gau+VzR5fNANlMR5+tL5XUEfjVwR47U7y/agRREPYinMmCeKtmHoaXyyaAKZiHGaXy+c4q2YuacE4oAqLHjtTvLHTFWvLpRGMZNAFUJzx0pwQGrQXvigR88YoAhEfFPVMdalVKeqetADFX2qZVNOVakVaYhEXNS4pFGakxTJEApaKKYBRRRQAUUUUAFFFFABRRRQAUUUUAFFFFABRRRQAUUUUAFFFFABRRRQAUUUUAFFFFABRRRQAU1qdRSArumKjK+tWiKjK5pWHcqlM00xkY4q0U5oZDnvRa5RU8vp6U0x89KumPvik8vjjP5UrBcp+Xx0pNntVvYfQ0eWfQ/lRYLlPy6PKzirnln3/ACoMZ9D+VFguU9nPIpDEPSrnln0P5UhjP90/lRYLlPYD2o8oDOBV0x89D+VIY2z0P5UWC5S8vHbml2Vb8ok8g0hiP90/lRYLlQID1FL5ftVryjjofypREf7p/KiwXKnl0mz2q75R9D+VAiOeh/KiwXKXl8UeX1GM1bMZz90/lS+UfQ/lRYLlMR9KAnNW/KP90/lQsR/un8qLBcqiPPXmneUPSrQjPofypRH7GiwXKoT2pwj5qyYz6H8qd5XtRYLlTyuaXyvxq3sPpRs470WC5V2etHl1a2fX8qTafSiwiuI+elHl1ZKHHSjyzRYOYreX1oMQqzspfL4osO5V8vijy+3cVa8v2oEZA6U7CuVBH+VAj9qtlD6Unl0rDuVjHxSeX3xVvyz6UGM+lArlTyzQY+ORVsJxyDSbMjvTSHcqiM0ojyOoqyI+OlHl89KAuVTHjHejy+ateXR5fNKwir5fqaPLq15dHl/WnYCsI80mwirYT60eX7GiwFXZzR5dWfL55zSlKLAVfLpfLH41Y2fWlCcYxRYLlfYB1HFGwDnFWCh44pfLp2C5X8ul2VPsOeKUJzyKLBcr7cCjbirGzPalKUWC5AEoCc4qcJS7DRYVyEJxTglSbacBRYLjNtOC07FFMQAYooooAKKKKACiiigAooooAKKKKACiiigAooooAKKKKACiiigAooooAKKKKACiiigAooooAKKKKACiiigAooooAKKKKACiiigAooooAKKKKACiiigAooooAKKKKACiiigAooooAKKKKACiiigAooooAKKKKACiiigAooooAKKKKACiiigAooooAKKKKACiiigAooooAKKKKACiiigANH4UUUAH4UUUUAGKMUUUAGKMUUUAFFFFABRRRQAUUUUAFFFFABRRRQAUUUUAFFFFABRRRQAUUUUAFFFFABRRRQAUUUUAFFFFABRRRQAUUUUAFFFFABRRRQAUUUUAFFFFABRRRQAUUUUAFFFFABRRRQAUUUUAFFFFABRRRQAUUUUAFFFFABRRRQAUUUUAFFFFABRRRQAUUUUAFFFFABRRRQAUUUUAFFFFABRRRQAUUUUAFFFFABRRRQAUUUUAFFFFABRRRQAUUUUAFFFFABRRRQAUUUUAFFFFABRRRQAUUUUAFFFFABRRRQAUUUUAFFFFABRRRQAUUUUAFFFFABRRRQAUUUUAFFFFABRRRQAUUUUAFFFFABRRRQAUUUUAFFFFABRRRQAUUUUAFFFFABRRRQAUUUUAFFFFABRRRQAUUUUAFFFFABRRRQAUUUUAFFFFABRRRQAUUUUAFFFFABRRRQAUUUUAFFFFABRRRQAUUUUAFFFFABRRRQAUUUUAFFFFABRRRQAUUUUAFFFFABRRRQAUUUUAFFFFABRRRQAUUUUAFFFFABRRRQAUUUUAFFFFABRRRQAUUUUAFFFFABRRRQAUUUUAFFFFABRRRQAUUUUAFFFFABRRRQAUUUUAFFFFABRRRQAUUUUAFFFFABRRRQAUUUUAFFFFABRRRQAUUUUAFFFFABRRRQAUUUUAFFFFABRRRQAUUUUAFFFFABRRRQAUUUUAFFFFABRRRQAUUUUAFFFFABRRRQAUUUUAFFFFABRRRQAUUUUAFFFFABRRRQAUUUUAFFFFABRRRQAUUUUAFFFFABRRRQAUUUUAFFFFABRRRQAUUUUAFFFFABRRRQAUUUUAFFFFABRRRQAUUUUAFFFFABRRRQAUUUUAFFFFABRRRQAUUUUAFFFFABRRRQAUUUUAFFFFABRRRQAUUUUAFFFFABRRRQAUUUUAFFFFABRRRQAUUUUAFFFFABRRRQAUUUUAFFFFABRRRQAUUUUAFFFFABRRRQAUUUUAFFFFABRRRQAUUUUAFFFFABRRRQAUUUUAFFFFABRRRQAUUUUAFFFFABRRRQAUUUUAFFFFABRRRQAUUUUAFFFFABRRRQAUUUUAFFFFABRRRQAUUUUAFFFFABRRRQAUUUUAFFFFABRRRQAUUUUAFFFFABRRRQAUUUUAFFFFABRRRQAUUUUAFFFFABRRRQAUUUUAFFFFABRRRQAUUUUAFFFFABRRRQAUUUUAFFFFABRRRQAUUUUAFFFFABRRRQAUUUUAFFFFABRRRQAUUUUAFFFFABRRRQAUUUUAFFFFABRRRQAUUUUAFFFFABRRRQAUUUUAFFFFABRRRQAUUUUAFFFFABRRRQAUUUUAFFFFABRRRQAUUUUAFFFFABRRRQAUUUUAFFFFABRRRQAUUUUAFFFFABRRRQAUUUUAFFFFABRRRQAUUUUAFFFFABRRRQAUUUUAFFFFABRRRQAUUUUAFFFFABRRRQAUUUUAFFFFABRRRQAUUUUAFFFFABRRRQAUUUUAFFFFABRRRQAUUUUAFFFFABRRRQAUUUUAFFFFABRRRQAUUUUAFFFFABRRRQAUUUUAFFFFABRRRQAUUUUAFFFFABRRRQAUUUUAFFFFABRRRQAUUUUAFFFFABRRRQAUUUUAFFFFABRRRQAUUUUAFFFFABRRRQAUUUUAFFFFABRRRQAUUUUAFFFFABRRRQAUUUUAFFFFABRRRQAUUUUAFFFFABRRRQAUUUUAFFFFABRRRQAUUUUAFFFFABRRRQAUUUUAFFFFABRRRQAUUUUAFFFFABRRRQAUUUUAFFFFABRRRQAUUUUAFFFFABRRRQAUUUUAFFFFABRRRQAUUUUAFFFFABRRRQAUUUUAFFFFABRRRQAUUUUAFFFFABRRRQAUUUUAFFFFABRRRQAUUUUAFFFFABRRRQAUUUUAFFFFABRRRQAUUUUAFFFFABRRRQB//9k=;clipPath=inset(20.33% 10.67% 24% 9.33%);" vertex="1" parent="1">
          <mxGeometry x="109" y="80" width="632.34" height="440" as="geometry" />
        </mxCell>
        <mxCell id="iLwp0gC0lX80GOxpzJ4_-4" value="" style="shape=flexArrow;endArrow=classic;html=1;rounded=0;fillColor=#e1d5e7;strokeColor=#9673a6;" edge="1" parent="1">
          <mxGeometry width="50" height="50" relative="1" as="geometry">
            <mxPoint x="130" y="590" as="sourcePoint" />
            <mxPoint x="170" y="485" as="targetPoint" />
          </mxGeometry>
        </mxCell>
        <mxCell id="iLwp0gC0lX80GOxpzJ4_-2" value="&lt;font style=&quot;font-size: 17px;&quot;&gt;Smazání obsahu v bufferu pri zápisu přes klávesnici&lt;/font&gt;" style="rounded=0;whiteSpace=wrap;html=1;fillColor=#e1d5e7;strokeColor=#9673a6;" vertex="1" parent="1">
          <mxGeometry x="30" y="580" width="190" height="80" as="geometry" />
        </mxCell>
        <mxCell id="iLwp0gC0lX80GOxpzJ4_-6" value="" style="shape=flexArrow;endArrow=classic;html=1;rounded=0;fillColor=#e1d5e7;strokeColor=#9673a6;" edge="1" parent="1">
          <mxGeometry width="50" height="50" relative="1" as="geometry">
            <mxPoint x="461" y="602" as="sourcePoint" />
            <mxPoint x="376" y="485" as="targetPoint" />
          </mxGeometry>
        </mxCell>
        <mxCell id="iLwp0gC0lX80GOxpzJ4_-5" value="&lt;span style=&quot;font-size: 17px;&quot;&gt;Vyvolání dané funkce na které se v menu uživatel nachází&lt;/span&gt;" style="rounded=0;whiteSpace=wrap;html=1;fillColor=#e1d5e7;strokeColor=#9673a6;" vertex="1" parent="1">
          <mxGeometry x="370" y="580" width="190" height="80" as="geometry" />
        </mxCell>
        <mxCell id="iLwp0gC0lX80GOxpzJ4_-11" value="" style="shape=flexArrow;endArrow=classic;html=1;rounded=0;fillColor=#e1d5e7;strokeColor=#9673a6;" edge="1" parent="1">
          <mxGeometry width="50" height="50" relative="1" as="geometry">
            <mxPoint x="173" y="388" as="sourcePoint" />
            <mxPoint x="288" y="419" as="targetPoint" />
          </mxGeometry>
        </mxCell>
        <mxCell id="iLwp0gC0lX80GOxpzJ4_-12" value="" style="shape=flexArrow;endArrow=classic;html=1;rounded=0;fillColor=#e1d5e7;strokeColor=#9673a6;" edge="1" parent="1">
          <mxGeometry width="50" height="50" relative="1" as="geometry">
            <mxPoint x="169" y="384" as="sourcePoint" />
            <mxPoint x="288" y="477" as="targetPoint" />
          </mxGeometry>
        </mxCell>
        <mxCell id="iLwp0gC0lX80GOxpzJ4_-7" value="&lt;span style=&quot;font-size: 17px;&quot;&gt;Procházení menu&lt;/span&gt;" style="rounded=0;whiteSpace=wrap;html=1;fillColor=#e1d5e7;strokeColor=#9673a6;" vertex="1" parent="1">
          <mxGeometry x="10" y="330" width="190" height="80" as="geometry" />
        </mxCell>
      </root>
    </mxGraphModel>
  </diagram>
</mxfile>
